<?xml version="1.0" encoding="UTF-8"?><svg id="a" xmlns="http://www.w3.org/2000/svg" viewBox="0 0 92.44 309.88"><defs><style>.b{fill:#fff;}</style></defs><g><path class="b" d="M51.63,13.13c-.09-.14-.28-.06-.24,.33l.33,.28-.09-.62Z"/><path class="b" d="M51.02,15.8c.16,.47,.44,1.01,.75,.7-.32-.46-.19-.57-.56-1.07-.04-.4,.11-.69,.23-.63-.08-.14,.07-.62-.14-.83-.26,.52-.27,1.17-.05,1.85-.07,.15-.16,0-.22-.03Z"/><path class="b" d="M50.5,54.61l.04-.25c-.02,.07-.03,.15-.04,.25Z"/><path class="b" d="M50.32,78.65c0-.18-.04-.26-.07-.27,.02,.17,.04,.31,.07,.27Z"/><path class="b" d="M49.96,82.75c.01-.09,.02-.16,.02-.24-.03,.09-.05,.19-.02,.24Z"/><path class="b" d="M50.5,54.61l-.1,.64c.11,.05,.08-.33,.1-.64Z"/><path class="b" d="M51.82,21.15c-.02-.13-.05-.25-.09-.35,.01,.11,.03,.22,.04,.33,.02,0,.03,.01,.05,.02Z"/><path class="b" d="M50.23,44.01v-.2c-.04-.06-.08-.11-.14-.16l.14,.36Z"/><path class="b" d="M50.18,35.87c-.01,.18,.27,.25,.39,.32-.12-.1-.17-.24-.19-.4-.05,0-.12,.02-.2,.08Z"/><path class="b" d="M50.68,22.98l-.04-.23c.01,.06,.02,.16,.04,.23Z"/><path class="b" d="M50.17,49.83s-.08,.04-.1,.07c.04,0,.07-.03,.1-.07Z"/><path class="b" d="M52.28,277.34s-.03,0-.05,0c.03,.05,.05,.06,.05,0Z"/><path class="b" d="M50.89,286.76l-.02-.13c-.05-.01-.11-.03-.16-.03l.17,.16Z"/><path class="b" d="M49.59,90.27s0-.02,0-.03c-.03-.2-.03-.09,0,.03Z"/><path class="b" d="M49.8,159.23c.25-.78,.32,1.27,.6,.1-.11,.11-.44-1.07-.6-.1Z"/><path class="b" d="M51.78,21.36c0,.11,0,.22,0,.33,0-.15,0-.25,0-.33Z"/><path class="b" d="M50.4,159.33h0l.03-.12c-.01,.05-.02,.08-.03,.12Z"/><path class="b" d="M49.76,107.58s.09-.1,.12-.18c-.03,0-.06,.05-.12,.18Z"/><path class="b" d="M50.16,94.68l-.04,.32c.03-.13,.03-.23,.04-.32Z"/><path class="b" d="M50.16,114.27c-.02,.17-.06,.23-.02,.47,.01-.02,.02-.04,.03-.07-.04-.09-.06-.2-.01-.4Z"/><path class="b" d="M50.16,121.24s.04-.09,.06-.13c0-.07-.01-.15-.02-.22l-.04,.35Z"/><path class="b" d="M52.15,256.16c-.08,.15-.17,.25-.25,.32,.2-.11,.27,.92,.25-.32Z"/><path class="b" d="M51.66,21.16c.07,.04,.11,.1,.12,.21,0-.08,0-.16-.02-.23-.04-.02-.08-.02-.11,.02Z"/><path class="b" d="M52.38,114.56l-.04,1.11c.03-.31,.04-.71,.04-1.11Z"/><path class="b" d="M52.11,206.16l.03,.25c0-.1,0-.19-.03-.25Z"/><path class="b" d="M52.38,118.95c-.1,.2-.16,.41-.19,.62,.02,.05,.04,.1,.07,.13l.12-.75Z"/><path class="b" d="M51.89,256.48h0Z"/><path class="b" d="M52.56,263.77c0-1.06-.36-.5-.57-.72-.1-1.26,.27-.58,.46-1.01-.1-.79-.44-1.39-.42-1.98,.06-.04,.08-.16,.16-.02-.29-.83-.01-2.47-.38-3.44,.03-.07,.06-.11,.09-.13-.19,.16-.37,.18-.51,.15,0-.47-.23-.88,0-1.06,0,.29,.09,.31,.17,.45l-.1-.5c.35-.45,.12,.68,.38,.68-.11-.97-.4-2.09-.3-2.83,.34-.15,.11,1.73,.42,.74l-.13,1.15c.54-.88-.04,.7,.54-.11,.1-1.51-.17-1.69-.07-3.19-.19-.34-.28,.11-.47-.23-.34-2.14,.85-1.68,.4-3.25-.23-.41-.66-.56-.43-1.68l.38,.38c.04-1.46-.55-.83-.29-2.36,.15,.27,.13,1.15,.17,.93,.3-.99-.22-.7-.22-1.46l.34-.16c-.05-1.55-.3-3.27-.36-4.99,.1,.1,.21,.39,.31-.01-.17-2.17,.04-4.63,.24-6.73l-.29-.8c0-.19,.13-.35,.19-.14,.11-.82-.19-.04-.3-.43-.02-.46,.17-.61,.26-.32-.25-1.44-.54-4.1-.22-5.62l.09,.3c.12-1.18-.6-1.33-.33-2.43l.05,.21c.13-2.56-.14-5.4,.3-7.35-.42-.37,.19-2.54-.4-2.7,.29-1.46,.4-1.04,.59-3.11,.03-.55-.37-.82-.43-1.5l.31-.02-.32-.92,.37-.49-.08-.64c-.02,.25-.14,.54-.23,.5-.14-1,.21-2.43,.37-2.46l-.26-2.36c.12,.05,.17,.45,.25,.76-.31-1.26,.32-.23,.04-1.38-.07,.15-.18-.08-.25-.11,.19-.58,.19-1.89,.11-2.85l.21,.19c.05-1.75-.1-3.69-.1-5.66-.1,.7-.47,.54-.5-.03l.33-.23c-.2-.37-.12,.6-.37-.16,.04-.73,.37-.49,.48-.07l-.11-.89c.1-.05,.15,.16,.27,.21-.2-.37,.33-1.54-.02-2.07l.1-.05c0-1.96-.11-2.85-.13-4.46-.28-.03-.22-.66-.45-1.13,.09-1.18,.31-2.48,.29-3.9-.14-1-.24-.29-.41-.74,.26-.07,.23-1.49,.42-.75-.04-1.7-.05-2.17-.26-4.32-.1,.23-.15,.5-.24,.36-.04-.39,.11-.89,.23-.83l.03,.1c-.38-2.41,.75-5.57,.21-7.49l.03,.11-.28-1.99c.04-.92,.19,.55,.35-.13-.43-2.15,.06-3.4-.22-5.17,.76-1.37-.05-4.86,.43-6.71l-.18,.11c-.17-.48,.1-.58,.14-.93-.14,.05-.16,.52-.26,.22-.21-4.05,.26-8.36,.42-12.51,.05-1.52-.92-.86-.5-2.78l.33,.54c-.4-3.06,.01-6.27-.32-9.27,.08,.18,.18,.18,.17,.48,.24-.63,.01-2.34-.18-2.35,.02-.47,.18-.11,.28-.4,.14-.64-.31-1.6-.07-1.93,.04-.06,.08,.18,.1,.29-.12-.41,.03-1.93-.25-1.53,.13-1.13-.12-2.15,.04-3.05-.31-.59,.15-1.93-.29-2.11,.45,.08,.36-1.97,.15-2.69,.14,.24,.14-.62,.33-.34,0-.81-.09-1.56-.32-1.42,.54-1.5-.44-3.01,.26-3.85-.24-2.41-.41-4.65-.51-6.82,.45,.08,.04,2.4,.52,2.31-.19-2.06-.57-3.25-.46-5.29,.06-.53,.2,.3,.27,.48-.19-2.06,.04-3.98-.2-5.81,.04,0,.09,.2,.12,.39-.01-.36,.07-.84-.14-.8l.06,.35c-.3,.58-.62-1.43-.78-1.5,.59,.61,.15-1.81,.89-.84-.04-.24-.14-.54-.27-.48,.04-.35,.12-.46,.28-.11-.11-1.29-.33-.83-.32-2,.1,0,.14,.24,.25,.36-.19-.59-.39-1.19-.3-2.18,.06,.06,.14-.06,.14,.24-.03-1.7-.52-2.9-.33-4.76,.43,.55,.14-.63,.52-.73l-.11-1-.18,.4c0-.88-.27-1.65-.14-2.41l.15,.65-.07-1.65-.14,.93c-.19-.89-.47,.1-.37-1.07,.04,.24,0-.88,.22-1.34h0c-.12-.43-.24-.88-.15-1.53,.12-.17,.41,.14,.49,.03-.31-.43-.09-2.06-.42-2.6,.08,.18,.27,.19,.31,.13l-.25-.36c.08-.41,.12-.47,.28-.4,.05-1.22-.47,.39-.27-1.06,.02,.11,.06,.06,.1,.3,.11-1.46-.16-2.82-.04-4.16,.38-.4,.09,1.17,.41,.72-.07-1.93-.45-4-.36-5.87l-.04,.35c-.53-.26,.26-1.39,.01-2.34,.04,.23,.29,.3,.24,.24,.09-1.28-.13-2.62-.3-4.56l.14,.24c.12-.75,.07-1.99,.13-2.8-.14-.24-.11-.71-.31-.43,.78-2.51-.42-4.8,.23-7.03,0,.27,.12,.64,.12,.42l-.13-1.9c-.23,.15-.14,.25-.32,.65-.14-.24-.24-.78-.24-1.25,.15,.85,.37,0,.5-.38-.07,.06-.15-.06-.22-.03,.41-.99-.46-.17-.19-1.52l.12,.07c-.06-.51-.22-.97-.19-1.52,.27-.23,.12,.54,.34,.57-.02-.77-.51-1.52-.24-2.21,.07,.33,.08,.8,.15,1.12,.31-.76,.23-.84,.28-1.41v.06l.14-1.3-.09,.33c-.7-.96-.13-1.96-.58-3.25,.43,1.26,.25,.21,.55,.3,.08-.33,.18-.83,.26-.69-.24-.61,.19-1.02-.16-1.89,.1-.04,0-.65,.25-.52-.08-.8-.17,.19-.29,.12-.33-1.23,.4-2.88-.05-4.65-.19-1.52-.52-1.8-.68-3.21,.16-.48,.36,.39,.36,.39,.14-.77,.12-1.35,0-2.07,.09,.15,.16,0,.27-.23-.03-.58-.36-.39-.21-1.16,.11,.13,.28,.3,.39,.58-.09-.69-.27-1.36-.36-2.07,.17-.19,.26,.43,.37,.68-.08-.8-.15-2.07-.42-2.31l-.1,.51c-.01-.29,.23-.15,.28,.06,.21,.68-.09,.99-.19,1.02l-.06-.51c-.57,.52,.09,2.03,.06,3.05l-.42-.42,.35,1.04c-.11,.22-.34,.37-.4-.13-.21,.73,.15,.65-.08,1.27-.04,.07-.06,.04-.07-.03l.12,.71c-.09-.14-.29,.12-.23-.32-.24,1.28,.31,2.06,0,2.54l-.03-.11c.14,1.77,.31,.17,.66,1.5l-.75,.9,.31,.17c-.01,.18-.03,.54-.16,.48,.21,.68,.13-.12,.33,.28-.28,.88,.13,2.43-.36,2.63,.23,.32,.18-.84,.34,.1-.52,.27,.09,1.09-.15,1.89-.27-.25-.13-1.01-.37-.2,.46,.49-.1,1.57-.01,2.25,.36,.03,.15,1.48,.27,2.61-.12-.07-.2,2.14-.33,3.2l-.06-.03c.37,.21,.3,1.3,.37,2.09-.22-.03-.31-.17-.4-.61v.75c.12,.18,.18,.41,.22,.89l-.27-.19c.02,1,.32,2,.14,3.29,.26,.07,.71-1.02,.88,.34-.14,.05-.38,.1-.43-.25,.02,.12,.11,.41,.06,.65l-.23-.54c-.1,.58,.19,.3,.17,.77-.2,0-.14,.35-.3,.28-.02-.12,.08-.41,0-.59-.04,.53-.15,1.16-.3,1.37,.11-.05,.27,0,.29,.39,.01,1-.24,.34-.34,.92,.14,.24,0,.88,.29,.89,0,.29-.14,.35-.22,.46,.13,.52,.04,2.41,.35,1.83l.02-.13s0,.05,.01,.08h0c.29,1.69-.17,3.51-.04,5.18h-.1c.11,1,.07,2.22,.28,2.94,0,.3-.18,.7-.3,.57,.07,.76,.19,.85,.02,1.95-.17-.77-.15,.27-.13-.79-.09,.99-.24,1.22,.03,2.29-.25-.36-.32,.75-.24,1.22l.18-.7c.04,.53,.01,1,0,1.47l-.33-.26c-.4,2.03,.69,3.67,.01,5.21,.23,.54,.16-1.1,.44-.62-.04,.94-.52,1.91-.52,2.2-.18,1.28,.49,1.2,.36,2.54,.12-.17,.44-.33,.55,.67-.04,.94-.5,1.15-.59,.56-.01-.22,.03-.33,.07-.32-.04-.3-.09-.7-.22-.33l.12,.12c-.12,.46-.11,1.75-.3,1.45,.11,.71,.19,.3,.26-.22-.17,1.2,0,1.88-.12,3.11,.07-.2,.2-.38,.2-.18-.15,1.81,.23,.8,.28,2.03-.18,.7-.43-.25-.28,.99-.12,.75-.31,.16-.41-.14,.23,1.13-.15,2.1-.19,2.75l-.1-.59c.06,.35,.06,.65,.05,.94l.24-.34c-.04,.35-.04,.64-.14,.64,.16,.36,.39-.27,.61,.44-.12,.46,.13,1.41-.19,1.57,.11-1.46-.32,.16-.37-1.07,.04,.24,.04,.53,0,.88-.04,.05-.07-.05-.08-.14-.28,1.4,.36,.64,.35,2.09-.18-.18-.34,.34-.3,.57,0-.58,.3-.28,.43,.26-.14,.93,.1,1.01,.09,1.5l.06-.55c.18,.19,.15,.65,.21,1.3-.14,.06-.1-.59-.16-.36,.31,.72-.32,1.62-.11,2.63-.12,.46-.33,.04-.42,.45,.23,1.12-.24,1.22-.05,2.4,.24-.34,.18-.4,.41,.43l-.17-1.94,.35,1.25c0-.59-.15-1.24-.11-1.59,.19,.59,.14,.53,.33,.25-.36,.8,.21,1.59-.03,2.52l-.59-.03c-.26,1.39,.3,2.47,.15,4.28l.1-.58c.23,.24,.03,1.12,.13,1.7-.2-.05-.27,.31-.39,.56,.15-.03-.01,1.32,.38,1.49l-.26,.81c-.11,1.46,.56,1.67,.5,3.07-.21-.42-.35,.22-.51-.73,0,.47-.04,.89,.1,.9-.12,.27,.27,1.3,.08,1.73,.09,.2,.29,.26,.28,.79-.04,.06-.1,0-.1,0,.1,0,.13,.82,.35,.36-.62,1.44,.04,4.04-.48,5.29,.07,1.02,.13,2.26,.14,3.18-.06-.06-.1,0-.08-.18-.18,1.28,.57,.79,.36,2.25-.32,.74-.17-.77-.29-.31-.65,.2,.09,1.76-.29,2.74l-.04-.24c-.22,.75,.25,1.83,.2,3.05,0,0-.06-.06-.1,0,.33,.84,.44,2.42,.53,3.6-.25-.37-.13-.54-.39-.31,.04,.53,.41-.15,.49,.9-.14,.34-.26,1.1-.54,1.2v-.99c-.37,.51,0,1.29-.06,1.81l-.16-.07c.05,1.52,.44,1.55,.42,3.18l.12-.17c.39,.9-.22,.75,.07,1.64l-.39,.27c.1,.59,.38,2.07,.46,3.13-.29-.6-.44-1.84-.62-2.61,0,.59,.03,1.99,.22,2.3-.04-.24-.13-.53-.07-.77,.31,.72,.46,1.66,.46,2.83-.77-.21-.19,3.04-.79,3.89,.28,2.06-.12,4.1-.08,6.5,.6-.85,.02,.7,.63,.55,.04,.56,.03,.77-.01,.82l-.37,1.7c-.18,.4-.13-.53-.27-.48-.05,1.23-.26,.51-.42,1.33,.22-.17,.31,.43,.23,1.13l.28-.98c.33,1.71-.51,1.48-.19,3.21l-.19-.55c.11,.89,0,3.27,.49,4.14-.07,.16-.24,.36-.28-.03-.07,2.12,.52,4.72,.22,6.36l-.15-.16c.04,.4,.28,.69,.13,1.18-.06-.03-.15-.16-.16,.02,.05,.21,.26,1.05,.17,1.57l-.17-.45c-.2,2.07,.41,3.17,.51,4.9-.44,0-.58,1.62-.65,2.43l-.06-.03c-.05,2.41,.36,4.09,.54,6.32-.48,1.38-.2,4.69-.47,6.91,.08-.34,.34,.06,.39,.45-.09,.52,.31,1.44-.1,1.36v-.19c-.39,.39-.28,1.47-.29,2.3l.53,.14c-.77,2.19,.28,5.74-.41,6.93,.13,.53,.13,1.18,.26,1.71l-.28-.03c-.07,1.46-.11,2.2-.04,4.01l-.2-.37c-.02,1.02,.82,1.29,.83,2.23l-.42,.28c0,1.78-.36,3.58,.02,5.34-.06-.03-.18-.08-.2-.37-.01,.84-.29,3.24,.29,2.94-.38,.02-.04,1.84,.13,2.8l-.28-.15c.36,.81,.45,.84,.55,1.97-.04,.27-.22,.24-.15-.12-.15,.9,.26,.7,.12,1.78l-.18-.4c-.02,.92,.07,.85,.28,1.35,.11,.58-.07,1.75-.32,1.88,.15,.12,.36,.63,.29,1.17-.1,.07-.15-.12-.18-.22-.19,1.54,.32,2.29,.05,3.35-.09,.02-.14,.09-.17,.18,0-1.22,.02-2.21,.04-2.12-.26,0-.3,.99-.66,.2,.19,.79,.61,2.15,.49,3.11-.02,.05-.05,.09-.09,.13l-.03-.1c-.03,.22,0,.42,.04,.61-.04,.31-.07,.5-.08,.8-.21,.11-.11,1.13-.12,1.63,.28-.04,.24,.6,.47,0-.02,.08-.03-.09-.05-.42,0-.07-.01-.16-.03-.21,0,0,.02,.02,.02,.03,0-.32-.01-.75-.02-1.23,.14,.39,.26,.8,.11,1.34,.18,.25,.37,.53,.45,.69-.39,.67-.6,1.97-.85,2.16,.16,1.5,.1,3.54,.63,4.49,.07,.43-.15,.49-.23,.65-.05-.25-.04-.54-.12-.67,.14,.86,.05,2.53,.42,2.74-.17,1.08-.34-.61-.28,.88l-.11-.2c-.59,2.91,.94,4.74,.18,7.97,.05-.22,.07-.34,.13-.38-.33,3.68,.31,7.59-.22,11.23-.11,1.03,.13,1.15,.31,1.78l-.3,.22,.35,1.08c.26,1.53-.74,2.65-.26,4.58l.2-.25c-.04,.7,.12,2.2-.11,2.09,.04,.07,.21,.23,.11,.5l-.16,.02,.27,1.71c-.11,1.32-.63-.21-.66,1.72,.06,.72,.46,2.04,.57,1.78,0-.29,.1-.74,.26-.76l.08,.66c.47,.12,.94,.62,1.27-.99l-.28-1.12,.23-.36v.95c.23-.54,.04-.88-.09-1.26,.12-.09,.2-.25,.25-.47l-.44-1.1c.18-.13,.36,.49,.46-.25-.21-.52-.41,.5-.54-.36,.21-.54,.38-.38,.2-1.01,.12-.09,.2,.04,.25,.29-.14-.56-.06-1.49-.31-1.78,.26-.56-.07-1.9,.37-1.84-.11-.18-.35-.99-.36-1.5,.53,.94,.03-1.93,.6-1.68-.47-.7-.21-2.52-.47-3.75,.04,.07,.11,.2,.09,.31,.04-.7,.18-.9,.27-1.34-.39-.09-.48-1.17-.72-1.76,.38-.85,.46,.52,.82,.25-.32,.04-.32-1.48-.58-1.19,.23-.65,.11-.56,.44-.9-.49-.11-.08-.61-.38-1.15,.24-.94,.46-.24,.31-1.28,.15-.49,.32,.43,.32,.43Zm-.85-24.64h0c0,.21,.01,.39,.02,.51,0-.11,0-.25-.02-.51Zm0-2.07c-.01,.25-.01,.57-.01,.9-.1,.07-.2,0-.19-.21,.06,.11,.12-.38,.2-.68Zm-1.95,4.38c-.04-.33,.02-.44,.07-.48,0,.15,.01,.34,.03,.57,.01,0,.02,.03,.03,.04-.05-.03-.1-.07-.14-.13Z"/><path class="b" d="M50.13,242.03s.02,.07,.02,.14c.02-.07,.05-.13,.06-.2-.03-.04-.06-.08-.09-.12,0,.06,0,.12,0,.18Z"/><path class="b" d="M50.55,54.31v.04s.02-.07,.03-.09c-.01,.03-.02,.03-.03,.05Z"/><polygon class="b" points="52.25 208.47 52.18 208.47 52.24 208.65 52.25 208.47"/><path class="b" d="M51.51,42.91s.05-.06,.07-.15c-.02,0-.04,.07-.07,.15Z"/><path class="b" d="M51.57,37.98l.1-.7c-.06,.3-.08,.52-.1,.7Z"/><path class="b" d="M51.71,34.19s-.09-.06-.12-.07h0l.12,.07Z"/><path class="b" d="M52.04,94.42c0,.05,0,.1,.01,.15,.05,.34,.03,.11-.01-.15Z"/><path class="b" d="M51.39,76.5c.05,.19,.1,.38,.13,.58,.02-.32,.03-.57-.13-.58Z"/><path class="b" d="M52.38,114.43h0s0,.08,0,.12v-.12Z"/><path class="b" d="M51.52,77.91c.06-.32,.04-.59,0-.83-.02,.26-.05,.57,0,.83Z"/><path class="b" d="M51.84,17.77v-.18s-.02,0-.03-.02l.03,.2Z"/><path class="b" d="M51.81,17.57l-.03-.2c0,.09,0,.17,.03,.2Z"/><path class="b" d="M51.7,16.94l.07,.43c0-.15,0-.33-.07-.43Z"/><path class="b" d="M51.71,22.79l.1,.06s-.05-.05-.1-.06Z"/><path class="b" d="M51.74,24.31c.02-.36,.22-.91,.15-1.42l-.08-.05c.15,.24-.24,1.12-.07,1.47Z"/><path class="b" d="M50.48,30.67l.08-1.28c-.11,.22-.25,.52-.28-.06-.32,1.61,.24-.33,.2,1.34Z"/><path class="b" d="M50.32,34.63c-.05-.69-.16,0-.22-.03,.1,.44,.12,.54,.22,.03Z"/><path class="b" d="M50.32,63.25l-.26-.07c.04,.53,.1,0,.26,.07Z"/><polygon class="b" points="51.65 68.72 51.8 68.2 51.57 67.96 51.65 68.72"/><polygon class="b" points="49.82 71.95 49.79 71.72 49.88 72.6 49.82 71.95"/><path class="b" d="M49.91,120l.31-.16c-.06-.36-.41-.43-.31,.16Z"/><path class="b" d="M50.23,140.75c-.16,.23-.26,.81-.1,1.17,.02-.47,.14-.93,.1-1.17Z"/><polygon class="b" points="49.72 202.96 49.62 202.55 49.7 203.33 49.72 202.96"/></g><g><path class="b" d="M38.68,274.36c-.07,.05-.2,.19-.14,.2l.26-.21h-.12Z"/><path class="b" d="M38.49,275.05c.16-.07,.41-.22,.59-.46-.27,.18-.18,.08-.5,.3-.06,0,.01-.14,.1-.22-.07,.05,0-.11-.17,.02-.13,.23-.08,.3,.13,.21-.04,.07-.11,.11-.16,.15Z"/><path class="b" d="M41.75,279.03v-.05s0,.04,0,.05Z"/><path class="b" d="M43.86,281.4s-.05,0-.07,.02c.03,0,.06,0,.07-.02Z"/><path class="b" d="M43.99,282.04v-.04s-.02,.05,0,.04Z"/><path class="b" d="M41.75,279.03v.13c.07-.07,.01-.09,0-.13Z"/><path class="b" d="M39.56,274.98s-.06,.01-.09,.03c.02,0,.04,0,.06,0l.04-.03Z"/><path class="b" d="M40.57,278.23l-.02-.02-.11,.08,.13-.06Z"/><path class="b" d="M39.77,277.51s.21-.17,.31-.25c-.09,.07-.14,.1-.17,.1-.04,.04-.08,.08-.13,.15Z"/><path class="b" d="M38.92,275.96h0Z"/><path class="b" d="M41.07,278.82s-.05,.06-.06,.08c.02-.02,.05-.05,.06-.08Z"/><path class="b" d="M61.91,274.54l.04,.04s-.03-.04-.04-.04Z"/><polygon class="b" points="63.77 274.64 63.77 274.67 63.88 274.78 63.77 274.64"/><path class="b" d="M44.43,283h0s-.03,0,0,0Z"/><path class="b" d="M52.54,287.42c-.26-.09-.02-.44-.36-.5,.09,.06,.11,.51,.36,.5Z"/><path class="b" d="M39.55,275.03s.02,.02,.03,.03c0-.02-.02-.03-.03-.03Z"/><path class="b" d="M52.19,286.92h0Z"/><path class="b" d="M46.16,284.49s.05-.07,.07-.1c-.02,.02-.04,.05-.07,.1Z"/><path class="b" d="M45.25,283v.06s0-.05,0-.06Z"/><path class="b" d="M47.07,284.83s-.02,.06,.03,.06l.02-.03s-.06,.02-.05-.03Z"/><path class="b" d="M47.72,285.48l.03-.05h-.03v.05Z"/><path class="b" d="M60.03,276.61c.07,.04,.14,.09,.21,.15-.15-.13-.11-.28-.21-.15Z"/><path class="b" d="M39.45,275.09c.05-.05,.08-.07,.1-.07h-.03s-.06,.04-.07,.07Z"/><path class="b" d="M48.66,283.29l.07,.13s-.04-.1-.07-.13Z"/><path class="b" d="M55.4,281.3v-.05s-.02,.02,0,.05Z"/><path class="b" d="M49.07,283.7c-.05,.09-.07,.15-.08,.2,.02-.01,.04-.02,.06-.04l.02-.16Z"/><path class="b" d="M60.24,276.76h0Z"/><path class="b" d="M60.45,275.61c-.1,.09,.21,.3,.34,.47-.04,.19-.25-.14-.42-.23,0,.14,.18,.44,.11,.48-.05-.04-.07-.04-.11-.11,.13,.29-.22,.24-.05,.59-.03-.02-.06-.03-.08-.05,.15,.12,.28,.25,.37,.34-.04,.05,.08,.25-.1,.09,.03-.02-.03-.09-.08-.16l.03,.12c-.29-.2-.02-.15-.2-.33-.01,.17,.09,.48-.05,.48-.25-.23,.08-.24-.23-.36l.2-.02c-.46-.3,.09-.04-.39-.37-.21,.07-.03,.28-.25,.35,.1,.17,.21,.19,.31,.35,.04,.44-.76-.45-.59,.02,.12,.2,.41,.52,.15,.46l-.24-.31c-.16,.11,.31,.47-.01,.43-.08-.13,.02-.2-.04-.21-.31-.12,.09,.22,.02,.29l-.26-.23c-.11,.18-.09,.52-.21,.72-.06-.08-.11-.18-.22-.22-.08,.32-.46,.4-.8,.46l.13,.28s-.13-.06-.15-.12c-.15,0,.13,.14,.17,.25-.03,.06-.18-.06-.21-.15,.04,.31,0,.76-.37,.68l-.03-.09c-.19,.03,.3,.55,0,.46l-.02-.06c-.33,.15-.4,.6-.9,.47,.26,.33-.37,.1,.03,.54-.34-.07-.38-.18-.71-.13-.07,.03,.18,.34,.16,.44l-.22-.22,.14,.31-.31-.21v.12s.14,.05,.2,.11c0,.19-.38,.07-.49-.03l-.04,.4c-.08-.09-.08-.16-.1-.24,.1,.34-.25-.21-.15,.1,.06,.04,.12,.14,.16,.18-.19-.08-.31,.04-.34,.19l-.13-.17c-.2,.12-.27,.42-.46,.6,.14,0,.38,.28,.35,.36l-.25-.21c.11,.18,.14,.03,.25,.28-.09,.04-.31-.22-.34-.33v.16c-.08-.06-.09-.12-.18-.21,.11,.18-.37-.09-.18,.21l-.07-.06c-.19,.18-.19,.34-.33,.5,.2,.2,.09,.22,.21,.42-.17,.05-.45,.01-.57,.16,0,.19,.14,.2,.22,.36-.19-.17-.3-.03-.36-.22-.13,.19-.17,.24-.22,.59,.1,.05,.15,.06,.2,.13,0,.07-.16,0-.24-.09v-.03c.04,.5-1.06,0-.86,.55v.35c-.11,.05-.08-.19-.26-.24,.12,.49-.41,.33-.23,.55-.26-.28-.24-.27-.24-.21,0,.06,0,.19-.08-.08l.04,.21c.03,.22-.03-.11-.04-.16,.03,.17,.04,.19,.05,.31-.02,.1-.05,.15-.08,.14-.09-.19-.08-.56,0-.65,.04-.03-.55,.76-.34,.36,.08-.08,.16-.15,.23-.24-.05,.09-.16,.05-.26-.02-.09-.06-.16-.13-.23-.21-.14-.15-.27-.31-.53-.33,.07-.04,.14-.11,.17-.08,.11-.23-.21-.23-.35-.09-.03-.06,.11-.14,.16-.23,.04-.16-.37,.07-.23-.13,.02-.03,.07-.04,.1-.04-.12,.04-.16-.2-.32,.03-.01-.2-.29-.11-.26-.31-.27,.16-.07-.28-.4,0,.33-.31,.07-.44-.14-.36,.12-.07,.04-.16,.2-.27-.08-.07-.21-.08-.36,.1,.24-.52-.59,.03-.18-.54-.4-.05-.72-.15-1-.27,.33-.31,.26,.19,.58-.15-.32-.06-.71,.1-.82-.17,0-.09,.17-.11,.24-.15-.32-.06-.34-.4-.69-.4,.03-.03,.08-.04,.12-.05-.04-.02-.03-.13-.17,.02h.07c-.16,.26-.57,.3-.69,.4,.47-.36-.06-.27,.55-.71-.05,0-.15,.05-.24,.15,0-.06,.04-.13,.19-.21-.2-.04-.31,.16-.42,.04,.07-.07,.12-.07,.21-.15-.19,.08-.38,.16-.42,.01,.05-.04,.09-.1,.12-.07-.18-.14-.63,.09-.68-.21,.36-.25,.04-.16,.3-.43h-.17l-.09,.15c-.08-.09-.34,.03-.33-.12l.17-.05-.2-.1v.19c-.23,.05-.34,.34-.37,.16,.05,0-.08-.09,.03-.28h0c-.12,.04-.25,.09-.25-.04,.07-.1,.3-.28,.35-.35-.26,.18-.25-.13-.54,.05,.07-.04,.21-.18,.23-.21l-.21,.15c.02-.1,.04-.13,.16-.23-.08-.15-.3,.37-.29,.09,.03,0,.05-.04,.1-.04-.06-.21-.38-.15-.41-.36,.23-.3,.17,.04,.36-.22-.23-.13-.69-.05-.8-.29v.06c-.4,.35,.06-.32-.21-.23,.05,0,.24-.18,.19-.14-.06-.18-.34-.15-.64-.22l.12-.07c.02-.16-.14-.23-.17-.35-.12,.07-.15,.01-.26,.18,.31-.78-.74-.15-.49-.82,.03,.02,.14-.02,.12-.05l-.27-.09c-.15,.18-.08,.12-.17,.29-.12,.07-.24,.1-.29,.06,.19-.03,.26-.26,.32-.39-.04,.06-.11,.1-.16,.15,.2-.38-.34,.31-.27,0l.09-.08c-.09,0-.25,.07-.27,0,.17-.21,.14-.04,.3-.19-.08-.06-.5,.22-.38-.04,.08-.02,.13,.02,.21,0,.15-.29,.09-.24,.07-.33h0l-.02-.21-.03,.09c-.58,.4-.27-.09-.72,.11,.42-.19,.2-.16,.42-.36,.03-.09,.05-.2,.12-.25-.23,.12,.04-.23-.29-.06,.07-.07-.05-.07,.13-.23-.13-.02-.1,.14-.2,.22-.35,.12,.02-.55-.47-.4-.27,0-.53,.2-.78,.18,.07-.15,.29-.21,.29-.21,.03-.17-.04-.21-.19-.2,.07-.05,.11-.11,.17-.21-.07-.04-.29,.21-.26,.04,.09-.06,.23-.17,.33-.22-.13,0-.32,.07-.45,.06,.1-.14,.22-.14,.32-.2-.13-.02-.3-.08-.51,.08l-.02,.12s.15-.18,.2-.19c.21-.09,.03,.16-.04,.23h-.09c-.36,.45,.25,.12,.33,.24l-.33,.25,.34-.15c-.06,.1-.21,.28-.3,.27-.08,.21,.16-.04,.06,.18-.02,.03-.04,.04-.05,.05l.15-.02c-.07,.05-.2,.22-.19,.14-.05,.29,.41-.03,.23,.24h-.03c.26,.07,.23-.19,.61-.32l-.45,.62,.23-.2s.03,.07-.07,.16c.21-.08,.08-.1,.26-.21-.11,.28,.32,.13,0,.5,.19-.13,.05-.21,.25-.23-.34,.4,.16,.04,.07,.28-.21,.17-.18,0-.28,.24,.37-.28,.08,.22,.2,.22,.26-.25,.24,.03,.44,.05-.09,.08,.06,.34,.06,.53l-.05,.04c.28-.24,.33-.09,.46-.07-.16,.15-.23,.2-.34,.23l.07,.07c.1-.07,.17-.09,.24-.07l-.21,.18c.1,.08,.42-.04,.41,.21,.19-.17,.41-.6,.66-.59-.09,.1-.26,.27-.33,.28,.02,0,.12-.04,.1,.02l-.22,.11c-.02,.13,.17-.11,.19-.05-.14,.14-.07,.13-.18,.24-.02,0,.02-.1-.05-.06,.02,.07,0,.22-.09,.34,.07-.08,.19-.19,.24-.17,.1,.08-.14,.2-.15,.33,.12-.07,.08,.09,.29-.12,.03,.03-.07,.13-.11,.2,.14-.04,.25,.2,.42-.08v-.03h.02c.36-.05,.21,.44,.45,.51l-.07,.07c.17,.01,.25,.16,.47,.08,.03,.03-.06,.19-.16,.26,.12,.02,.21-.05,.2,.17-.19,.05-.08,.13-.16,.02,.03,.15-.06,.29,.23,.19-.21,.15-.16,.3-.06,.29l.06-.19c.08,.02,.1,.08,.13,.14l-.26,.21c-.1,.48,.83-.15,.49,.48,.21-.11,.01-.22,.25-.37,.06,.12-.19,.55-.16,.58-.01,.25,.46-.23,.49-.02,.07-.1,.28-.34,.45-.32,.06,.12-.24,.46-.37,.47-.03-.01-.01-.05,.02-.08-.06,0-.13,0-.19,.13l.1-.07c-.04,.13,.09,.24-.08,.35,.15-.01,.17-.11,.16-.2,0,.23,.17,.18,.2,.38,.03-.06,.11-.18,.13-.16,.06,.27,.23-.08,.38,0-.06,.19-.33,.28-.11,.29-.02,.16-.21,.24-.3,.28,.27-.06,.09,.3,.12,.39h-.12c.07,0,.1,.03,.13,.06l.14-.2c0,.06,.03,.09-.04,.16,.14-.08,.25-.3,.47-.39-.04,.13,.22,.04,.02,.28-.06-.21-.21,.24-.36,.16,.05,0,.07,.02,.08,.09-.02,.03-.05,.04-.07,.05-.07,.33,.31-.19,.44-.05-.14,.11-.21,.27-.16,.26-.05-.06,.18-.24,.33-.28-.01,.18,.17,.02,.2,.08v-.1c.14-.11,.16-.05,.26-.03-.09,.1-.12,.01-.14,.08,.29-.15-.08,.38,.17,.32-.04,.13-.23,.24-.25,.34,.27-.06-.06,.29,.19,.26,.14-.2,.09-.16,.33-.25l-.3-.06,.36-.13c-.05-.06-.22,0-.23-.07,.19-.08,.15-.05,.26-.21-.18,.33,.3,0,.21,.26l-.42,.41c-.06,.32,.44,.02,.51,.29l.02-.13c.19-.14,.13,.08,.25,.07-.14,.13-.16,.22-.22,.33,.1-.11,.11,.13,.41-.13l-.11,.26c.06,.21,.55-.24,.64-.06-.19,.11-.23,.27-.43,.29,.04,.05,.06,.11,.15,.01-.06,.11,.31-.07,.22,.11,.08-.04,.23-.18,.27-.12-.02,.03-.07,.07-.07,.07,.07-.07,.17-.02,.28-.21-.3,.57,.41,.34,.15,.84,.14,.05,.3,.12,.4,.2-.05,.04-.07,.07-.07,.04-.01,.25,.47-.33,.47-.05-.16,.3-.19,.05-.24,.18-.44,.48,.23,.1,.05,.46h-.05c-.09,.23,.34,0,.43,.15,0,0-.05,.03-.07,.07,.31-.16,.54-.09,.71-.04-.21,.15-.15,.05-.31,.25,.08,.02,.28-.31,.43-.26-.07,.12-.07,.29-.24,.52l-.13-.11c-.21,.29,.18,.17,.2,.27l-.11,.11c.26,.19,.47-.15,.66,.07l.03-.13c.27-.28,0,.31,.22,.12l-.1,.45c.12-.01,.38-.16,.5-.14-.11,.3-.31,.31-.48,.39,.08,.09,.3,.26,.38,.06-.04,.02-.1,.09-.12-.01,.17-.27,.29-.36,.42-.23-.03,.41,.03,.6,.12,.74,.14-.06,.31-.31,.44,.05,.25-.65,.67-.49,1.06-.95-.45-.4,.1-.12-.27-.62,.05-.1,.08-.12,.11-.09,.14,.03,.31,.03,.47,.05,.17,.08,.03,.16,.12,.26,.2-.13,.25,.12,.45,.15-.17-.14-.18-.26-.06-.27l-.29-.11c-.07-.39,.5,.22,.43-.16l.08,.19c0-.16,.31-.3,.04-.73,.06,.04,.2,.13,.2,.2,.25-.15,.07-.81,.44-.75l.09,.12c0-.07-.13-.26,.02-.2,.04,.05,.09,.12,.11,.11-.02-.06-.09-.28,.02-.27l.08,.16c.33-.05,0-.59,.1-.82,.31,.31,.56,.26,.69,.24l.04,.05c.26-.19,.12-.64,.21-.97,.47,.21,.58-.3,.98-.31-.09-.02-.24-.25-.23-.32,.11,.01-.08-.35,.2-.06h-.02c.32,.26,.34,.08,.43,.01l-.36-.39c.75,.34,.34-.73,.93-.36-.04-.14,.02-.2-.03-.34l.2,.2c.19-.09,.28-.13,.4-.34l.11,.18c.11-.08-.46-.7-.38-.8l.33,.27c.16-.17,.59-.08,.48-.51,.04,.05,.12,.14,.11,.18,.09-.07,.5-.1,.07-.48,.27,.27,.2-.15,.17-.35l.18,.21c-.18-.33-.24-.4-.21-.57,.05,0,.18,.14,.1,.12,.19,.02-.12-.25,.08-.25l.09,.16c.1-.07,.03-.13-.07-.33-.02-.13,.21-.11,.4,.05-.1-.12-.2-.31-.09-.31,.07,.06,.1,.12,.11,.15,.28,0-.02-.44,.28-.35,.07,.06,.11,.09,.13,.1-.12,.11-.22,.19-.23,.17,.18,.18,.31,.12,.48,.45-.06-.21-.23-.64-.06-.64,.02,.01,.04,.03,.07,.05v.03s.05-.04,.04-.09c.06,0,.1,0,.13-.02,.16,.14,.19-.02,.24-.06-.2-.2-.11-.22-.33-.33,.02,0,.02,.03,0,.07,0,.01,0,.02,0,.04v-.02s-.07,.08-.12,.13c-.06-.14-.11-.26,.05-.2l-.26-.39c.34,.21,.61,.24,.8,.4,.03-.25,.26-.4-.03-.87,0-.09,.15,.06,.23,.1,.01,.06-.02,.08,.02,.15-.02-.18,.2-.27-.04-.55,.22,.02,.18,.3,.28,.12l.06,.1c.69,.15-.22-1.11,.61-.87-.05-.01-.08-.02-.13-.06,.58-.11,.49-.93,1.2-.89,.17-.02,.02-.2-.05-.38l.23,.19-.15-.35c-.04-.32,.77,.28,.61-.24l-.17-.12c.09-.04,.12-.29,.28-.11-.02-.03-.13-.17-.03-.12l.11,.11-.03-.35c.2-.04,.42,.46,.63,.3,.02-.11-.13-.52-.23-.57-.03,.02-.14,0-.25-.11v-.12c-.31-.34-.6-.72-.99-.8l.1,.31-.19-.13,.08-.1c-.2-.1-.1,.06-.04,.19-.09-.08-.17-.12-.22-.13l.21,.42c-.14-.12-.21-.3-.35-.3,.1,.19,.33,.24,.35,.42-.2-.1-.31-.24-.24-.05-.09-.08-.13-.14-.15-.2,.05,.15-.1,.18,.05,.38-.24-.13-.13,.22-.44-.09,.06,.09,.15,.34,.12,.4-.29-.46-.2,.16-.58-.27,.27,.4-.09,.38-.02,.69-.02-.03-.06-.1-.03-.09-.09,.04-.21-.05-.32-.07,.27,.29,.23,.45,.35,.68-.35-.19-.28-.37-.56-.61,.23,.22,.09,.36,.3,.52-.23-.1-.13-.03-.39-.23,.34,.36,0,.12,.16,.38-.26-.08-.35-.3-.34-.1-.15-.06-.19-.27-.19-.27Zm-1.7,2.9h0l.04-.06-.03,.06Zm-.19,.2s.06-.04,.09-.08c.08,.06,.14,.14,.12,.16-.04-.06-.12-.05-.21-.08Zm1.79,.97c0,.06-.05,.03-.1,0,.01-.02,.02-.04,.03-.08l-.02-.03s.07,.08,.09,.11Z"/><path class="b" d="M60.14,279.35s0-.02,0-.03l-.06-.03,.05,.07v-.02Z"/><path class="b" d="M41.75,278.97h0s0-.01,.02-.03l-.02,.03Z"/><polygon class="b" points="55.51 280.99 55.57 281.04 55.54 280.97 55.51 280.99"/><path class="b" d="M41.37,277.22s.03-.04,.04-.06c-.01,.01-.02,.04-.04,.06Z"/><path class="b" d="M40.96,276.72v-.14c0,.07,0,.11,0,.14Z"/><path class="b" d="M40.7,276.27l-.09,.08h0l.09-.08Z"/><path class="b" d="M46.55,281.65s.01,0,.02,0c.07,0,.03-.01-.02,0Z"/><path class="b" d="M44.42,280.44c.05-.02,.11-.04,.15-.04-.01-.05-.03-.07-.15,.04Z"/><polygon class="b" points="48.66 283.28 48.65 283.28 48.66 283.29 48.66 283.28"/><path class="b" d="M44.64,280.48c.01-.07-.02-.09-.07-.08,.01,.04,.02,.09,.07,.08Z"/><path class="b" d="M39.26,274.65v-.03l-.04,.03h.04Z"/><path class="b" d="M39.22,274.65h-.04s.02,.02,.04,0Z"/><path class="b" d="M39.09,274.67h.09s-.02-.05-.09,0Z"/><path class="b" d="M39.64,275.21l.08-.07s-.04,.03-.08,.07Z"/><path class="b" d="M39.8,275.33c-.02-.05,.07-.24-.02-.24l-.06,.05c.13-.08-.07,.28,.09,.19Z"/><path class="b" d="M39.5,276.81l-.06-.18c-.06,.1-.13,.23-.2,.19-.08,.38,.14-.2,.27-.02Z"/><path class="b" d="M39.76,277.29c-.1-.03-.11,.11-.16,.15,.11-.03,.14-.04,.16-.15Z"/><path class="b" d="M42.43,279.96l-.19,.17c.08,.02,.07-.07,.19-.17Z"/><polygon class="b" points="43.87 279.54 43.94 279.38 43.75 279.52 43.87 279.54"/><polygon class="b" points="42.88 281.13 42.84 281.13 42.98 281.15 42.88 281.13"/><path class="b" d="M47.43,285.54l.21-.24c-.07,0-.33,.25-.21,.24Z"/><path class="b" d="M49.77,287.43c-.04,.18,0,.37,.12,.27-.06-.09-.07-.27-.12-.27Z"/><polygon class="b" points="56.79 283.28 56.82 283.4 56.84 283.26 56.79 283.28"/></g></svg>