<?xml version="1.0" encoding="UTF-8"?><svg id="a" xmlns="http://www.w3.org/2000/svg" xmlns:xlink="http://www.w3.org/1999/xlink" viewBox="0 0 1016.04 218.53"><defs><style>.d{fill:none;}.e{fill:#0082ff;}.f{fill:#fff;}.g{clip-path:url(#c);}.h{clip-path:url(#b);}</style><clipPath id="b"><polygon class="d" points="-1069.49 -727.82 -1069.98 99.12 -1044.25 99.12 -987.63 113.43 -908.01 160.67 -765.27 160.67 -652.11 173.61 -608.73 192.9 -538.42 193.02 -520.76 198.5 -419.96 220.53 -221.14 178.81 -153.13 178.35 -110.15 131.05 -59.71 99.12 -53.94 99.12 -53.94 -723.72 -1069.49 -727.82"/></clipPath><clipPath id="c"><rect class="d" x="-1063.3" y="-120.24" width="1002.67" height="224.04"/></clipPath></defs><g class="h"><g class="g"><g><path class="f" d="M4.69,77.37S41.6-43.51-120.22-32.59c0,0-84.13,6.41-135.83,80.73,0,0-.31-32.62-37.39-40.77-37.08-8.15-82.89,17.77-100.76,56.77-17.87,39-29.29,51.65-29.29,51.65H-53.44L4.69,77.37Z"/><g><path class="f" d="M5.46,78.53c.36-.45-.12-.62-1.35,.28l-.52,1.17,1.87-1.46Z"/><path class="f" d="M-3.79,83.11c-1.31,1.27-2.7,2.9-1.39,2.79,1.11-1.53,1.62-1.54,2.78-3.25,1.23-.91,2.34-1.28,2.26-.93,.35-.44,2.06-1.18,2.5-1.99-1.95,.65-4.05,2.01-5.99,3.83-.55,.18-.2-.27-.16-.45Z"/><path class="f" d="M10.74,41.34s-.07,.02-.1,.01c.07,.18,.12,.24,.1-.01Z"/><path class="f" d="M4.55,77.33l.11-.49c-.09-.08-.18-.16-.29-.19l.18,.68Z"/><path class="f" d="M-9.65-7.57c-3.01-2.99-1.94-.85-2.88-1.16-3.83-3.17-1.33-1.97-2.35-3.4-1.29-.9-2.49-1.63-3.64-2.23-1.16-.59-2.18-1.17-3.13-1.83-.07-.2-.42-.49,.11-.33-.77-.33-1.66-.83-2.63-1.41-.97-.56-2.04-1.18-3.12-1.8-2.18-1.2-4.47-2.37-6.35-2.81-.22-.18-.32-.3-.36-.39,.39,.61,.3,1.01,.07,1.21-.83-.38-1.64-.66-2.31-.88-.67-.22-1.18-.45-1.4-.82,1.02,.45,1.19,.3,1.74,.37l-1.85-.55c-1.31-1.34,2.52,.78,2.73,.33-3.55-1.34-7.82-2.38-10.48-3.44-.09-.22,.27-.2,.81-.1,.54,.1,1.25,.32,1.85,.53,1.21,.4,2.05,.68,.35-.3l2.04,.92,1.02,.46,1,.5c-2.73-2.38,2.48,1.14,.04-1.2-1.35-.63-2.45-1-3.38-1.34-.94-.34-1.73-.59-2.53-.79-1.6-.42-3.18-.92-5.99-1.8-1.38,.01,.26,.68-1.12,.7-.51-.1-.98-.21-1.41-.3-.44-.09-.84-.18-1.2-.27-.74-.18-1.34-.37-1.86-.56-1.04-.38-1.71-.78-2.34-1.11-.62-.34-1.18-.67-1.97-.92-.4-.13-.85-.24-1.4-.33-.55-.09-1.19-.16-1.97-.17-.82,.1-1.42,.34-2.34,.41-.92,.07-2.14-.06-4.26-.58l1.58-.59c-5.62-.84-3.35,.63-9.17-.53,1.08-.2,4.45,.21,3.61,.02-3.75-1.04-2.75,.16-5.68-.14l-.55-.75c-6.02-.43-12.67-.16-19.31-.07,.37-.21,1.51-.44-.05-.65-2.1,.11-4.27,.14-6.46,.19-2.2,.07-4.42,.11-6.65,.12-2.22,.06-4.43,.1-6.6,.13h-.81c-.13,0-.28,.01-.44,.02l-.42,.02c-.55,.03-1.09,.07-1.63,.1-1.07,.08-2.12,.16-3.14,.26-1,.35-2,.72-2.99,1.09-.71,.12-1.37-.04-.62-.29-3.17,.32-.1,.41-1.56,.91-1.76,.37-2.4,.1-1.32-.3-2.69,.77-6.52,1.86-10.39,2.97-.96,.28-1.93,.55-2.88,.8-.95,.27-1.89,.53-2.8,.77-1.82,.46-3.51,.9-4.96,1.16l1.04-.5c-1.11,.27-1.96,.57-2.66,.89-.7,.33-1.26,.67-1.81,.99-1.1,.65-2.18,1.22-4.26,1.67l.73-.37c-4.74,1.47-9.57,3.46-14.11,5.35-1.13,.49-2.24,.97-3.33,1.44-1.09,.47-2.17,.89-3.19,1.36-2.05,.91-4.03,1.66-5.82,2.33-.44,.73-2.67,1.76-4.78,2.81-2.08,1.1-4.06,2.19-4.04,2.88-1.32,.54-2.19,.95-2.91,1.24-.72,.3-1.26,.52-1.87,.77-.61,.26-1.27,.56-2.23,1.03-.95,.48-2.16,1.18-3.9,2.18-.91,.56-1.48,1.15-2.08,1.8-.59,.67-1.2,1.4-2.25,2.2l-.42-.49-2.54,2.61c-.67,.15-1.32,.35-1.98,.52l-1.88,1.63c.81-.57,1.85-1.04,1.84-.8-.73,.64-1.57,1.3-2.44,1.91-.87,.62-1.77,1.19-2.55,1.72-1.58,1.05-2.84,1.74-2.98,1.64-2.28,2.04-4.4,4.26-6.57,6.41-.02-.33,1.06-1.41,1.86-2.34-1.61,1.87-1.89,1.89-2.14,1.88-.12,0-.24-.03-.51,.17-.27,.2-.7,.6-1.4,1.5,.53-.31,.03,.51,.04,.67-.94,.63-2.32,1.83-3.8,3.22-.75,.68-1.48,1.45-2.18,2.22-.71,.77-1.39,1.53-2.01,2.24l.18-.83c-.59,.61-1.2,1.23-1.8,1.86-.3,.32-.61,.63-.91,.96l-.87,1.01c-1.16,1.36-2.34,2.75-3.53,4.16-.3,.36-.6,.7-.89,1.07-.28,.37-.57,.74-.85,1.11-.57,.74-1.15,1.48-1.73,2.23-.58,.74-1.17,1.49-1.75,2.24l-.44,.56-.21,.27-.04,.06-.17,.24c.21-.11,.51-.11,.68,.05,.17,.15,.13,.57-.2,1.07-.2-.12-.36-.28-.49-.49-.08,.46,.05,.4,.18,.35,.06-.02,.12-.03,.12,.07,0,.11-.04,.31-.24,.81-.46,.57-.57,.39-.53-.02,.04-.42,.18-.99,.27-1.31-.16,.35-.36,.76-.6,1.23,.05-.42,.22-.83,.3-1.38-.05,.22-.11,.34-.16,.38-.02,.02-.05,.03-.06,0,.01-.1,.03-.2,.04-.31,.04-.28,.09-.5,.09-.57,0-.08-.05-.03-.24,.07,.05-.06,.11-.13,.17-.18l-.03-.14c-.08-.29-.16-.57-.23-.84-.22-.85-.49-1.64-.73-2.38-.53-1.48-1.04-2.8-1.62-4.04-1.15-2.48-2.38-4.72-4.21-7.43-.55,.22-1.87-1.97-3.5-3.11-.7-.95-1.5-1.86-2.3-2.82-.85-.91-1.71-1.87-2.68-2.75-.94-.93-2-1.75-3.07-2.62-1.13-.79-2.26-1.62-3.52-2.3-1.8-.9-2.14-.86-2.21-.77-.08,.11,.09,.35-.79,.1,0-.3-1.27-1.11-2.23-1.6-.95-.52-1.55-.88-.12-.47-3.15-1.33-5.24-1.93-7.54-2.55-1.15-.3-2.38-.52-3.83-.82-.73-.12-1.53-.22-2.4-.35-.44-.06-.89-.12-1.37-.19-.48-.04-.99-.08-1.52-.12,.88,.33,1.89,.57,1.33,.68-1.53-.11-3.42-.68-3.18-.91h.41c-4.77-.16-10.22-.61-15.5-.44-5.27,.14-10.31,.91-13.82,2.44l.4-.16-1.86,.64-1.83,.71-1.82,.72-1.79,.79c-3.42,1.11,1.9-1.1-.72-.52-.48,.22-.95,.44-1.41,.66-.45,.22-.9,.43-1.33,.64-.86,.41-1.7,.77-2.5,1.13-1.58,.76-3.09,1.35-4.5,2.04-.71,.33-1.42,.66-2.12,.98-.7,.33-1.38,.71-2.07,1.07-.69,.38-1.39,.75-2.08,1.19-.69,.44-1.38,.91-2.09,1.41-.34,.09-.7,.2-1.08,.34-.38,.15-.77,.33-1.18,.52-.82,.4-1.71,.88-2.63,1.44-.91,.58-1.86,1.23-2.85,1.92-.98,.69-1.94,1.47-2.94,2.24-3.94,3.12-7.71,6.76-10.65,8.96l.56-.03c-1.06,1.6-1.75,1.47-2.78,2.4,.35,.06,1.67-1.22,1-.25-2.67,2.94-5.34,5.97-7.82,9.2-2.5,3.21-4.93,6.55-7.11,10.08l-.83,1.31-.78,1.35c-.51,.9-1.07,1.78-1.55,2.71l-1.45,2.77-1.38,2.69c-.91,1.78-1.8,3.58-2.72,5.34-.92,1.77-1.83,3.53-2.74,5.28-1.34,2.56-1.29,3.5-1.4,4.58-.06,.54-.16,1.11-.5,1.92-.35,.81-.95,1.86-2,3.37l.35-2.15c-2.31,5.37-5.22,10.57-8.28,15.63-.76,1.27-1.56,2.5-2.32,3.75-.79,1.23-1.57,2.47-2.37,3.68-.4,.61-.79,1.21-1.19,1.81l-.81,1.19c-.36,.53-.73,1.06-1.12,1.58-.4,.52-.8,1.05-1.2,1.57-.4,.52-.76,1.02-1.21,1.56-.83,1.03-1.66,2.06-2.49,3.08,.51-.84,.16-.75,1.65-2.48-.48,.47-1.02,1.03-1.61,1.66-.59,.64-1.24,1.35-1.87,2.06,.49,.06,1.26,.04,1.96,.04,.72,0,1.46-.02,2.19-.03,1.46-.03,2.91-.07,4.16-.13,2.52-.12,4.21-.28,4.25-.44,.37,0,.71,.02,.8,.03,.14,.01,.23,.03,.3,.05,.14,.04,.17,.09,.18,.15,.02,.11-.05,.25,.5,.35,2.44,.3,6.12-.64,7.41-.14,.22,.08-.68,.16-1.13,.2,1.59-.24,7.4,.06,5.88-.52,4.32,.28,8.26-.26,11.7,.09,2.24-.65,7.39,.31,8.1-.6-.31,.95,7.57,.76,10.3,.32-.91,.29,2.37,.3,1.3,.69,3.11-.01,5.97-.19,5.42-.67,5.74,1.13,11.53-.91,14.76,.54,9.25-.51,17.81-.85,26.13-1.07-.3,.94-9.2,.09-8.84,1.08,7.89-.39,12.45-1.2,20.28-.97,2.03,.13-1.15,.41-1.84,.57,7.89-.39,15.25,.09,22.27-.43-.02,.09-.78,.18-1.49,.26,1.38-.03,3.22,.14,3.06-.29l-1.35,.12c-2.21-.62,5.49-1.3,5.74-1.63-2.35,1.23,6.93,.31,3.2,1.86,.91-.08,2.05-.28,1.84-.57,1.35,.08,1.78,.25,.41,.58,4.95-.23,3.19-.69,7.68-.68-.02,.21-.92,.29-1.39,.53,2.27-.4,4.56-.81,8.35-.63-.23,.12,.21,.29-.92,.28,6.51-.06,11.1-1.08,18.25-.69-2.11,.9,2.43,.3,2.81,1.08l3.84-.23-1.54-.38c3.37,.01,6.34-.55,9.24-.3l-2.5,.32,6.31-.15-3.57-.3c3.41-.4-.37-.99,4.12-.77-.91,.08,3.37,0,5.12,.47h-.01c1.67-.25,3.38-.51,5.87-.31,.65,.25-.52,.86-.1,1.03,1.64-.65,7.88-.18,9.96-.88-.69,.16-.73,.57-.5,.66l1.38-.53c1.56,.17,1.79,.25,1.53,.58,4.69,.1-1.49-.99,4.08-.56-.44,.04-.23,.12-1.14,.2,5.59,.22,10.8-.34,15.94-.08,1.52,.78-4.49,.19-2.75,.85,7.41-.14,15.34-.94,22.51-.76l-1.34-.09c.99-1.11,5.34,.55,8.96,.03-.89,.08-1.16,.61-.92,.49,4.91,.18,10.04-.27,17.48-.62l-.92,.28c2.89,.25,7.62,.15,10.74,.28,.93-.28,2.71-.24,1.63-.65,9.64,1.62,18.38-.87,26.93,.48-1.02,0-2.44,.25-1.62,.25l7.28-.26c-.58-.48-.95-.29-2.48-.67,.92-.29,2.98-.51,4.78-.51-3.27,.32,.03,.78,1.44,1.04-.24-.15,.25-.31,.13-.46,3.8,.86,.64-.97,5.83-.39l-.27,.25c1.94-.13,3.73-.46,5.83-.39,.87,.56-2.07,.26-2.2,.72,2.94-.03,5.81-1.06,8.47-.5-1.25,.16-3.05,.16-4.3,.31,2.9,.66,3.24,.49,5.39,.59h-.21l4.98,.28-1.27-.18c3.68-1.46,7.5-.27,12.47-1.22-4.82,.9-.8,.52-1.17,1.15,1.27,.18,3.19,.37,2.65,.55,1.17-.26,2.15-.15,3.25-.08,.55,.04,1.13,.06,1.78,.04,.32-.01,.67-.04,1.03-.09,.18-.02,.37-.05,.56-.09l.3-.06,.15-.03,.21-.03c.09,.08,.67,.1,1.32,.13,.42-.25,.87-.53,1.2-.67,.18-.08,.23-.08,.3-.06,.06,.02,.08,.08,.06,.19,1.23-.91,1.03-.88,.53-.67-.25,.1-.57,.25-.83,.36-.36,.17-.61,.27-.56,.16,.27-.22,.55-.44,.83-.67,.24-.19,.49-.38,.75-.57,.52-.37,1.07-.74,1.64-1.1,1.15-.72,2.41-1.44,3.72-2.2,2.62-1.52,5.43-3.2,7.99-5.47,4.65-3.54,5.17-4.71,9.49-7.98,1.7-.74-.84,1.44-.84,1.44,2.62-1.37,4.44-2.64,6.63-4.37-.37,.46,.2,.26,1.03-.01,1.83-1.27,.83-1.44,3.45-2.81-.3,.47-.63,1.13-1.41,1.91,2.09-1.6,4.04-3.35,6.21-5,.8-.1-1.07,1.35-1.74,2.08,2.46-1.82,6.42-4.63,6.9-5.62l-1.75,.91c.91-.64,.74,.09,.12,.63-1.94,1.81-3.26,1.92-3.49,1.83l1.54-1.18c-2.32,.1-6.38,4.45-9.67,6.54l.88-1.62-2.94,2.81c-.83,.28-1.59,.2-.05-.97-2.57,1.18-1.89,1.62-4.16,2.55-.26,.08-.19-.02,0-.18l-2.13,1.72c.35-.45-.72-.26,.75-1.08-4.36,2.28-6.23,4.9-8.13,5.37l.31-.27c-5.51,3.99-.2,.89-4.04,4.33l-3.73,.58-.21,.9c-.6,.37-1.78,1.09-1.71,.74-1.94,1.8,.52-.01-.51,1.17-1.13,.5-2.43,1.33-3.69,2.17-.63,.42-1.25,.84-1.83,1.23-.29,.19-.57,.37-.83,.54-.24,.15-.47,.29-.68,.4-.41-.03-.73-.08-1.01-.16-.29-.08-.5-.18-.61-.33-.61,.24,.2,.34,.71,.41,.22,.04,.39,.07,.3,.12-.08,.04-.47,.1-1.38,.19-1.03-1.09-4.17,.19-7.25-.31,.95-.56,3.87-.27,.78-.77-1.86,.95-6-.21-8.61-.03-.12,.76-5.66,.32-10.02,.57,.28-.26-8.21-.42-12.27-.69l.12-.13c-.79,.77-4.97,.62-8.02,.78,.12-.46,.67-.64,2.32-.85h-2.87c-.68,.25-1.57,.38-3.43,.47l.72-.57c-3.82,.03-7.68,.68-12.59,.29-.28,.53,3.9,1.49-1.29,1.85-.19-.29-.38-.78,.97-.9-.44,.04-1.59,.24-2.48,.12l2.07-.49c-2.24-.21-1.17,.41-2.96,.36,.04-.41-1.32-.29-1.07-.62,.46-.04,1.56,.17,2.24,0-2.02-.07-4.45-.32-5.26-.63,.18,.23,0,.56-1.48,.61-3.82,.03-1.31-.5-3.53-.71-.92,.29-3.36-.01-3.42,.61-1.12,0-1.32-.29-1.75-.46-1.97,.27-9.22,.08-7,.73l.51,.04-.32,.03h0c-6.47,.61-13.45-.35-19.87-.08v-.21c-3.82,.24-8.52,.14-11.26,.58-1.13,0-2.68-.38-2.19-.62-2.93,.16-3.26,.39-7.49,.05,2.95-.36-1.02-.32,3.02-.26-3.81-.18-4.67-.51-8.76,.06,1.39-.53-2.87-.67-4.68-.51l2.67,.38c-2.04,.08-3.81,.03-5.62-.01l.98-.69c-7.79-.85-14.05,1.44-19.98,.02-2.06,.49,4.23,.34,2.39,.91-3.58-.09-7.32-1.09-8.44-1.09-4.91-.39-4.58,1.02-9.72,.75,.66,.25,1.28,.91-2.56,1.14-3.59-.09-4.41-1.04-2.14-1.24,.86-.02,1.28,.06,1.24,.14,1.16-.09,2.68-.2,1.26-.47l-.47,.25c-1.78-.25-6.71-.23-5.56-.63-2.71,.24-1.16,.41,.85,.53-4.6-.36-7.19-.01-11.92-.25,.75,.14,1.45,.43,.7,.43-6.95-.31-3.06,.47-7.76,.58-2.67-.38,.96-.9-3.78-.59-2.89-.26-.61-.66,.54-.86-4.32,.48-8.06-.31-10.53-.4l2.27-.2c-1.36,.12-2.47,.12-3.61,.11l1.3,.5c-1.33-.09-2.47-.09-2.44-.29-1.38,.32,1.05,.82-1.68,1.27-1.78-.25-5.42,.27-6.03-.39,5.6,.22-.62-.66,4.12-.77-.91,.08-2.03,.08-3.37-.01-.2-.07,.19-.14,.55-.17-5.36-.59-2.46,.74-8.01,.73,.7-.37-1.29-.7-2.19-.62,2.24,0,1.07,.62-.98,.9-3.56-.29-3.87,.21-5.73,.18l2.13,.14c-.72,.37-2.5,.32-4.98,.44-.21-.29,2.25-.2,1.37-.33-2.75,.65-6.22-.67-10.07-.24-1.78-.25-.17-.7-1.73-.87-4.31,.48-4.66-.51-9.19-.11,1.3,.5,1.53,.38-1.65,.86l7.44-.35-4.77,.72c2.24,0,4.74-.31,6.08-.23-2.27,.41-2.04,.28-.97,.7-3.07-.75-6.09,.44-9.64-.07l.11-1.23c-5.34-.55-9.48,.63-16.42,.32l2.23,.21c-.93,.49-4.28,.07-6.52,.27,.21-.41-1.19-.56-2.15-.82,.12,.31-5.07-.03-5.7,.8l-3.09-.54c-5.6-.22-6.39,1.18-11.77,1.03,1.62-.45-.82-.74,2.78-1.06-1.8,0-3.41-.08-3.44,.21-1.05-.26-4.98,.56-6.63,.16-.76,.18-1,.61-3.02,.58-.22-.08,0-.2,0-.2,0,.2-3.16,.28-1.4,.73-5.53-1.29-15.47,.09-20.28-1.01-3.92,.14-8.64,.27-12.2,.3,.23-.12,.01-.21,.68-.16-2.45-.19-3.21,.1-4.05,.39-.42,.15-.86,.29-1.55,.37-.34,.04-.75,.06-1.24,.07-.24,0-.53,0-.8-.02-.24-.01-.5-.03-.77-.06-.52-.17-.55-.27-.43-.34,.12-.07,.41-.1,.7-.12,.46-.04,1.64-.02,.71-.15-.04-.06-.08-.12-.14-.17-.04-.05-.07-.1-.11-.14-.08-.08-.17-.14-.26-.18-.2-.09-.44-.1-.75-.09-.31,.01-.7,.06-1.14,.11-.23,.02-.46,.04-.69,.06l-.35,.02c-.05,0-.13,.01-.16,0l.09-.11c.34-.43,.81-.96,1.34-1.34l-.12,.29c.36-.28,.55-.51,.72-.78,.08-.14,.16-.29,.24-.46,.03-.05,.03-.07,.08-.15l.19-.31c.12-.21,.25-.42,.37-.65,.99-1.76,2.03-3.74,3.33-5.72,0,0-.02,.26,.16,.13,1.16-3.1,4.05-8.47,6.07-12.53-.21,1.49-.75,1.94,.14,1.45,.91-1.82-1.04,.1,.77-3.52,.9-1.01,2.48-3.48,3.17-3.55-.59,1.13-1.16,2.28-1.77,3.4,1.6-1.37,2.3-4.4,3.36-6.12l.17,.38c2.56-5.29,1.88-5.71,4.68-11.35l-.51,.48c.77-3.44,1.66-2.4,2.57-5.76l1.19-.59c.19-.54,.46-1.27,.77-2.14,.31-.87,.68-1.82,1.06-2.85,.2-.51,.39-1.04,.61-1.56,.23-.52,.46-1.04,.69-1.55,.46-1.03,.92-2.04,1.43-2.92-.35,1.12-.94,2.79-1.64,4.47-.34,.84-.64,1.73-.95,2.56-.3,.83-.59,1.6-.82,2.32,.48-1.03,1.28-2.68,1.98-4.29,.77-1.56,1.43-3.03,1.53-3.64-.36,.82-.71,1.9-1.24,2.62,.36-1.34,.87-2.86,1.68-4.46,.4-.8,.8-1.67,1.34-2.52,.52-.86,1.08-1.75,1.7-2.68,.22,.39,.76,0,1.5-.81,.75-.81,1.66-2.07,2.74-3.36,2.07-2.65,4.67-5.52,6.21-6.26,2.42-3.03,5.22-5.71,8.35-8.21,3.12-2.51,6.5-4.94,10.22-7.48-1.66,.4-1.13,.02-.32-.56,.81-.57,1.93-1.28,1.35-1.68,.87-.61,1.48-1.02,1.9-1.28,.43-.25,.66-.35,.76-.36l2.96-1.3,3-1.18c1.5-.39-1.63,1.2-1.32,1.36,1.02-.52,1.65-.81,2.07-.97,.42-.14,.63-.16,.8-.15,.33,.02,.5,.16,1.93-.36-.38-.07-.09-.39,.59-.82,.69-.42,1.79-.9,3.01-1.35-1.19,.33-2.4,.61-3.59,.98,2.77-1.66,4.17-1.97,5.56-2.22,.7-.13,1.39-.27,2.27-.55,.89-.25,1.97-.65,3.43-1.34l-1.78,1.05c.76-.33,1.84-.77,3.12-1.17,.64-.21,1.32-.43,2.01-.66,.7-.22,1.43-.41,2.16-.63,2.9-.88,5.82-1.61,7.34-2.37,.6,.05,1.41,.26,0,.6,3.88-.56,8.2-1.22,12.37-1.41,4.16-.23,8.13,.12,11.07,.97l-.64,.2c1.43,.2,2.62-.15,4.32,.63-.12,.1-.64,.16,0,.34,.77,.05,3.9,.46,5.65,1.3l-.83-.12c-.28-.03-.56-.05-.84-.08,3.53,1.37,6.21,2.37,8.78,3.39,2.53,1.08,4.94,2.2,7.47,4.18-.3,.35,.65,1.52,1.8,2.95,.3,.34,.58,.74,.89,1.12,.29,.39,.62,.75,.9,1.14,.56,.78,1.12,1.49,1.51,2.1h-.16c1.29,1.71,2.36,3.37,3.33,5,.98,1.63,1.83,3.23,2.59,4.88,.2,.41,.38,.82,.55,1.24,.18,.42,.36,.83,.52,1.26,.16,.42,.34,.85,.48,1.28l.23,.65c.04,.12,.07,.19,.12,.36l.15,.58c.2,.77,.42,1.51,.57,2.34,.08,.4,.16,.8,.24,1.21,.05,.45,.1,.9,.15,1.35,.19,1.81,.33,3.89,.46,5.92,0,.34-.02,.68-.03,1.17,.13-.04,.21-.02,.32-.05,.06-.02,.09,0,.14-.01,.03,0,.04,0,.07,0l.13-.14c.34-.39,.72-.84,1.13-1.34,.82-1,1.75-2.19,2.77-3.52,1.02-1.33,2.12-2.79,3.28-4.34,.29-.39,.58-.78,.87-1.17,.19-.23,.37-.45,.56-.68,.37-.45,.74-.9,1.11-1.35,.74-.91,1.5-1.85,2.26-2.78,.38-.47,.76-.93,1.14-1.39,.39-.45,.8-.89,1.19-1.33,1.6-1.75,3.13-3.45,4.61-4.86-1.01,.82-.38-.63,.58-1.78,1.5-1.3,3.32-4.4,3.7-3.59l-.5,.5c.79-.26,1.9-1.11,3.08-2.18,1.18-1.07,2.44-2.36,3.59-3.44l-.36-1.16c1.83-1.08,3.71-2.56,5.62-4.17,1.96-1.54,3.9-3.28,5.79-4.88,1.93-1.56,3.75-3.08,5.4-4.26,1.67-1.15,3.13-2.01,4.26-2.36,.37-.34,.77-.69,1.2-1.04,.44-.33,.88-.66,1.33-1,.9-.67,1.8-1.33,2.56-1.99l.23,.56c4.76-2.83,7.17-4.17,13.1-7.59-.35,.33-.68,.69-1.02,1.04,.84-.47,1.49-.91,2.03-1.37,.54-.46,.97-.93,1.4-1.39,.43-.47,.84-.93,1.35-1.38,.51-.46,1.11-.89,1.92-1.28l1.36,.33c6.08-2.96,12.64-4.92,18.62-7.96-.06,.16-.16,.47-1.16,.89,.37-.13,.83-.3,1.35-.48,.52-.17,1.11-.36,1.72-.55,1.22-.38,2.55-.83,3.74-1.23,2.4-.79,4.24-1.55,3.51-1.95,.15,.35,1.82-.13,3.88-.87,2.06-.76,4.54-1.68,6.26-2.31l-.4,.7c2.8-1.48,2.84-1.72,7.01-2.88,1.02-.14,.97,.26-.38,.41,3.39-.41,2.48-1.12,6.59-1.6l-1.44,.66c1.72-.32,2.51-.48,3.09-.69,.58-.2,.96-.44,1.88-.8,1.07-.29,2.72-.51,4.17-.56,1.45-.06,2.7,.05,2.96,.29,.4-.35,2.33-.88,4.4-.85,.29,.18-.46,.35-.83,.43,1.47,.02,2.75-.05,3.9-.15,1.15-.08,2.18-.19,3.16-.29,1.95-.2,3.67-.42,5.7-.13,.09,.19,.35,.29,.69,.34-2.33-.01-4.43,.07-5.91,.1-1.48,.03-2.33,.04-2.15,.01,.02,.54,3.78,.51,.82,1.35,1.5-.24,3.53-.65,5.65-.93,2.12-.25,4.33-.43,6.16-.31,.18,.06,.35,.11,.48,.2l-.38,.05c.84,.07,1.6,.03,2.31-.04,1.17,.11,1.91,.19,3.03,.22,.42,.42,4.28,.42,6.15,.52-.12-.59,2.32-.38,.06-.98,.3,.06-.36,.05-1.6,.02-.28,0-.61,0-.8,.02,.04-.01,.08-.03,.13-.05-1.23-.04-2.83-.12-4.66-.13,1.49-.29,3.05-.46,5.11-.03,.98-.33,2.06-.67,2.67-.82,2.52,.99,7.41,1.81,8.03,2.43,1.42,.08,2.98,.16,4.55,.31,1.57,.17,3.17,.34,4.72,.47,3.07,.37,5.9,.59,7.77,.45,1.62,.2,1.77,.69,2.32,.99-.94-.08-2.03-.33-2.55-.28,.81,.1,1.8,.26,2.85,.44,1.04,.22,2.14,.45,3.16,.67,2.06,.39,3.8,.79,4.28,.52,1.92,.74,1.31,.74,.91,.75-.2,0-.35,0-.11,.1,.23,.1,.88,.24,2.21,.67h-.79c1.26,.57,2.47,1.06,3.66,1.49,1.18,.45,2.31,.88,3.44,1.25,1.14,.35,2.22,.77,3.32,1.12,.55,.18,1.1,.36,1.65,.53,.54,.2,1.08,.4,1.63,.59,1.09,.4,2.2,.79,3.28,1.29,.55,.24,1.1,.49,1.66,.76,.28,.13,.56,.27,.84,.4l.83,.46c.55,.31,1.11,.64,1.68,.99,.28,.17,.57,.35,.85,.53,.27,.2,.55,.4,.83,.6,.56,.41,1.12,.84,1.69,1.29,.57,.44,1.11,.97,1.67,1.5-.62-.58-.94-.86-1-1.07,2.74,2.15,5.43,4.42,8.02,6.83C-12.24-3.74-9.82-1.11-7.61,1.69-5.41,4.48-3.42,7.46-1.8,10.59-.18,13.73,1.11,16.99,2,20.3c1.06,3.73,1.59,4,2.6,6.21-.13,.33-.27,.65-.41,.98l.83,1.89,.77,1.93c.81,2.8,.81,5.37,.76,8.08-.06,2.72-.12,5.58,.42,9.23l.42-.95c-.02,1.32,.05,3.41,0,5.12-.03,1.71-.17,3.02-.39,2.79,.06,.27,.4,.89,.1,1.91l-.34,.06c.03,2.17,0,4.34-.1,6.51-.46,2.48-.77,2.23-1.09,2.28-.33,.04-.62,.38-1.32,3.94-.19,1.34-.36,3.26-.48,4.73-.11,1.48-.14,2.47,.1,2.03,.32-1.03,.91-2.65,1.25-2.66-.14,.83-.29,1.65-.46,2.47,.41,.35,.7,1.08,1.21,.99,.5-.11,1.25-1.06,2.29-4.08,.13-1.48,.21-2.96,.28-4.43l.7-1.31c-.19,1.22-.4,2.44-.63,3.65,.85-1.98,.68-3.38,.64-4.88,.3-.31,.56-.9,.78-1.75-.11-1.47-.25-2.93-.42-4.39,.43-.49,.57,2.01,1.05-.86-.25-2.05-1.02,1.85-1.01-1.5,.6-2.05,.91-1.43,.67-3.9,.26-.34,.4,.19,.46,1.18-.17-2.21,.07-5.83-.49-6.96,.27-1.1,.18-2.95,.11-4.5-.04-.78-.06-1.48-.02-1.98,.03-.5,.14-.79,.37-.76-.27-.68-1.05-3.8-1.4-5.79,.79,1.76,.58-.12,.24-2.34-.32-2.22-.87-4.75-.18-4.4-.38-.63-.77-1.53-1.13-2.62-.18-.54-.37-1.12-.58-1.74-.2-.61-.38-1.26-.61-1.91-.84-2.62-1.91-5.46-3.1-7.61,.17,.22,.52,.66,.64,1.08-.46-1.3-.75-2.14-.97-2.88-.22-.74-.36-1.39-.69-2.22-.46,.02-1.18-.91-2.03-2.04-.43-.56-.89-1.17-1.33-1.76-.44-.59-.92-1.11-1.32-1.53-1.1-3.27,1.89,1.23,1.99-.05-.24,.24-1.15-.93-2-1.99-.89-1.03-1.69-1.95-1.59-1.32-.51-1.21-.83-1.67-1-2.04-.18-.37-.24-.63-.37-1.37-1.06,.26-1.64-1.79-3.52-3-1.07-1.54-1.06-1.88-1.16-2.19-.05-.15-.12-.3-.37-.58-.26-.27-.71-.67-1.5-1.34-.59-.8-.17-.62,.4-.24,.57,.38,1.3,.97,1.3,.97Zm-90.02-27.27h0c.82-.04,1.52-.03,1.96-.03-.41,0-.98,0-1.96,.03Zm-7.98,.11c.97,0,2.18-.05,3.46-.05,.28,.2-.02,.41-.82,.41,.22-.07-.15-.13-.71-.19-.57-.05-1.33-.1-1.93-.16Zm16.73,4.15c-1.24,.02-1.66-.1-1.82-.22,.59,0,1.27,.02,2.18,.02,.04-.02,.11-.04,.15-.06-.12,.11-.26,.21-.5,.27Z"/></g></g></g></g><path class="e" d="M1063.56,57.79c2.86-6.28-12.2-23.44-19.28-24.73-7.08-1.3-14.22,1.6-20.58,4.81-27.78,14-51.37,35.38-67.36,61.07-1.43-27.62-5.46-59.65-30.24-74.23-15.25-8.97-34.84-8.57-52.16-4.11-36.55,9.41-66.19,34.64-91.08,61.7-56.21,61.1-95.71,135.92-113.6,215.2h394.67l-.36-239.7Z"/><path class="e" d="M-145.51,229.41S-195.75-2.07,24.5,18.85c0,0,114.51,12.27,184.88,154.6,0,0,.42-62.47,50.9-78.07,50.48-15.6,112.82,34.03,137.15,108.71,24.33,74.69,39.86,98.91,39.86,98.91H-66.39l-79.12-73.59Z"/><path class="e" d="M338.18,218.53s212.49-197.2,424.98-27.96-424.98,27.96-424.98,27.96Z"/></svg>