<?xml version="1.0" encoding="UTF-8"?><svg id="a" xmlns="http://www.w3.org/2000/svg" viewBox="0 0 753.94 237.03"><defs><style>.b{fill:#ffd300;stroke:#ffd300;stroke-miterlimit:10;}</style></defs><path class="b" d="M13.79,64.75c0-.72-.62-1.65-1.86-2.79l2.79-2.32-.31-1.08c.83,0,2.48-1.81,4.95-5.42l1.39-1.39h.39l-.39-.39c0-.62,1.29-1.88,3.87-3.79,0-.62,.41-1.24,1.24-1.86-.21-.21-.31-.44-.31-.7l4.64-7.43-.39-.39-1.01,.39-3.48,.31c-4.44,1.81-7.77,2.97-9.99,3.48-1.7,.88-3.61,1.32-5.73,1.32l.62-2.32,7.66-2.32c.21-.72,1.13-1.08,2.79-1.08,.93-.31,2.66-.77,5.19-1.39,.93-.52,1.99-.85,3.17-1.01l.7,.7,.7-.7c1.55,.46,2.71,1.27,3.48,2.4l-3.87,6.27-.31-.31c0,2.94-2.17,6.12-6.5,9.52l-.39,1.39c2.58,1.86,4.59,3.43,6.04,4.72h.39c1.91,.57,3.53,1.62,4.88,3.17l-1.78,1.7-.7-.7-.7,.7c-1.6-.77-2.4-1.57-2.4-2.4-.21,.21-.44,.31-.7,.31-.26-.16-.39-.39-.39-.7l-2.55-1.01-3.79-3.02h-.39l-6.97,8.13Zm36.22,1.63c-1.14,0-1.83-.46-2.09-1.39v-1.39l.46-.46-.46-.46c0-.36,.15-.67,.46-.93l-.46-2.32v-2.79l.46-.46-.46-.46v-1.86l.46-1.63-1.39-3.25-2.79,.46c-6.66-.1-9.98-.49-9.98-1.16v-.93l.93-.93c.26,.31,.57,.46,.93,.46,0-.62,1.24-1.08,3.71-1.39l.46,.46c.36,0,.67-.15,.93-.46,.83-.1,1.47-.16,1.94-.16,.72,0,1.08,.13,1.08,.39l1.39-.46,2.32,.46,.46-1.39-.46-6.27,.46-.46-.46-.46,.46-2.32v-4.64h.46c2.42,0,3.9,2.79,4.41,8.36l-.46,3.95c0,.31,.16,1.08,.46,2.32l-.93,3.25,.93,.93h-.46c.31,.26,.46,.57,.46,.93l-.93,2.32c.26,.31,.57,.46,.93,.46l-1.39,2.55,.46,.46c0,.31-.15,1.24-.46,2.79l.46,1.39c-.31,2.48-.77,3.71-1.39,3.71l.46,.46v.93l-1.39,1.39Z"/><path class="b" d="M73.55,53.14l-5.11-.7-7.28,.7-.62-.39h-.31c-1.7,.26-2.84,.39-3.41,.39v-1.78l-.46-1.93,1.32-1.08h2.17l.39,.62,.31-.62h1.39l.39,.62,3.1-.93,5.11,.93c.93,0,7.82-1.01,20.67-3.02v.31l8.28-1.7,1.16,4.88-1.16,1.24-6.97-1.24c-1.19,.31-1.78,.72-1.78,1.24l-1.62-.54-2.17,.54-.46-.54c0,.77-1.29,1.55-3.87,2.32l-1.7-1.08-.85,1.08-.46-.62-4.26,.93v-.31l-1.78,.7Zm-8.13-32.97h-2.09l-.46-.39v-.46l1.08-1.93,8.36-2.01,3.56-.7,5.11-1.24,.85,1.24,1.62,.39v.31l-2.01,1.32c-.83,0-1.62,.1-2.4,.31v-.31l-.46,.31-4.33,1.16-1.16-.23-.46,.39h-.7c-2.53,.67-3.95,1.01-4.26,1.01l-2.24,.85Zm6.5,22.06h-3.56l.23-2.25-.93-.77v-3.48l-.7-4.18,.08-1.55-.31-.23v-.46l1.47-1.47h.7l.46,.31,4.57-.77,5.57-.39,1.86-.46,1.47-7.97-.54-1.78c-.26-1.7-.77-2.55-1.55-2.55v-1.16h.93l3.41-.46c.05,1.86,.21,3.72,.46,5.57-.36,2.06-.65,4.13-.85,6.19-.46,1.81-.8,3.66-1.01,5.57-4.08,.21-8.15,.52-12.23,.93l-.93,3.02c.46,1.75,.85,3.54,1.16,5.34l1.78-.62c.72,.21,1.5,.36,2.32,.46,1.29-.05,2.61-.21,3.95-.46,2.27-.46,4.59-.85,6.97-1.16l-.85,3.71-3.02,.23-.31-.31-1.32,.7-1.62,.31-3.33-.31-4.33,.46Zm6.89,50.62v-.39l-.39,.39h-1.16c-.93-.52-1.39-1.39-1.39-2.63v-.16h.39c-1.08-7.74-1.94-12-2.55-12.77l-1.55-.15v-.7c.1-1.7,1.5-3.05,4.18-4.03l1.16,1.62,2.25-.39,.77,.93c.57-.52,2.71-1.06,6.42-1.62v.15c0,.36,.39,.59,1.16,.7l1.16-.39-.46-.31,1.16-6.73-.39-.39,.15-.46c-.15-1.08-.39-2.17-.7-3.25-1.96,.46-4.33,1.14-7.12,2.01-.26-.26-.57-.39-.93-.39-5.16,1.34-8.26,2.27-9.29,2.79l-2.79-2.17c0-.57,2.92-1.32,8.75-2.25,0-.46,.93-.93,2.79-1.39l1.16,.39v-.39l7.97-1.93c1.86,.05,3.07,2.06,3.64,6.04h-.39l.39,.46-.16,.77-.31,.23,.31,.46c0,4.8-1.32,7.87-3.95,9.21,0,.36-.8,.59-2.4,.7l-.39-.39-1.24,1.08-2.32-.62-1.16,.46v-.46l-.39,.46c-.31-.05-.85-.23-1.62-.54v.77l-1.62-.08-.31-.39-1.08,.39c.15,2.32,1.06,5.96,2.71,10.91l1.55,.08c2.84,0,5.81-.46,8.9-1.39l.31,.46c.26,0,.8-.1,1.63-.31v.46l.39-.46h.7l.31,1.93-.31-.31c.21,.77,.31,1.32,.31,1.63l-14.24,2.32Z"/><path class="b" d="M150.95,56l-.7-.7-.7,.7c-1.65-.77-2.48-1.6-2.48-2.48-.16,.26-.39,.39-.7,.39-.21-.21-.31-.44-.31-.7l-3.87-1.86-3.79-3.02h-.39l-7.2,7.66c0-.72-.46-1.42-1.39-2.09l2.79-3.41-.31-1.01c.83,0,2.4-1.55,4.72-4.64l1.39-1.39h.39l-.39-.39c0-.62,1.29-1.88,3.87-3.79,0-.62,.8-1.44,2.4-2.48-.21-.21-.31-.44-.31-.7l4.41-6.5-.39-.31c-.67,.21-2.55,.62-5.65,1.24-.93,0-4.18,.85-9.75,2.55-1.7,.88-3.61,1.32-5.73,1.32l.62-2.32,8.21-2.71c.26-.67,1.19-1.01,2.79-1.01l.39,.31c1.24-.72,2.35-1.08,3.33-1.08,.72,0,1.39,.21,2.01,.62,0-.52,.57-.85,1.7-1.01l.7,.7,.7-.7,.85-.08c1.81,0,2.99,.72,3.56,2.17l-3.25,5.11-.31-.39c0,2.94-2.55,6.32-7.66,10.14l-.39,1.39c2.48,1.81,4.93,3.66,7.35,5.57h.31c1.96,.52,3.59,1.55,4.88,3.1l-1.7,1.78Zm-6.5-33.13l-2.55-.23v-.46l-2.32,.46h-1.86c-.62,0-2.32-.15-5.11-.46l-.93-.93c.52-1.24,1.6-1.86,3.25-1.86l1.39,.93,.93-.93h.93l1.39,.93,.93-.93h3.25l1.39,.93-.7,2.55Zm3.02,63.62h-.46c0-.77-.54-1.5-1.63-2.17l2.4-4.1-.31-1.16c1.13-.15,2.22-1.88,3.25-5.19,2.22-2.17,4.41-4.39,6.58-6.66l2.09-1.47c0-.57,1.08-1.08,3.25-1.55,0-.46,.9-1.16,2.71-2.09l2.79-1.86c-.98,.05-1.96,.18-2.94,.39-.98-.21-1.94-.33-2.86-.39l-5.34,1.55c-1.08,0-4.46,.96-10.14,2.86l-1.86-1.16v-.31c0-1.19,1.93-2.17,5.8-2.94,.26-.77,1.08-1.16,2.48-1.16h1.62l.46,.39c1.44-.88,4.18-1.63,8.2-2.25,.26-.21,.54-.31,.85-.31l.77,.7c0-.46,.44-.7,1.32-.7,.83,0,2.32,.26,4.49,.77v2.55c-1.08,.93-1.62,1.78-1.62,2.55l-1.7,1.39-.46-.31c0,.67-2.22,2.3-6.66,4.88l-3.25,4.02v.39l.39-.39h.77c.57,.46,2.63,1.44,6.19,2.94l4.26,2.63c3.66,1.19,6.27,2.79,7.82,4.8l-.85,.77-.46-.46-1.16,1.16-.77-.7-.85,.7c-1.91-.77-2.86-1.78-2.86-3.02l-.46,.46h-.39l-.46-.46v-.31l-2.09,.31c-3.61-2.94-6.79-4.41-9.52-4.41-.16-.52-1.11-1.14-2.86-1.86l-6.5,11.15Zm19.27-26.7l-1.86-.93-.39,.46h-1.7v-.77l.23-.46-.7-5.11h.46l-.46-.39c0-.36,.16-.67,.46-.93l-.46-1.16,.46-1.39c-.31-1.6-.46-2.71-.46-3.33l.7-1.16-.7-.93v-7.2l.46-.46-.46-.46v-.39l.46-.46-.46-1.24,.46-5.96-.46-.46c0-.31,.16-1.26,.46-2.86l-.46-1.78,.46-1.24-.85-5.5,.39-.46h1.47c1.08,0,1.83,2.99,2.24,8.98l-.46,.31c0,.31,.15,1.32,.46,3.02h-.46l.46,.46c0,3.04,.08,5.19,.23,6.42l-.23,.31,.23,3.02c0,.31-.08,.59-.23,.85,.05,1.29,.13,2.55,.23,3.79h.46c0-2.37,1.65-3.77,4.95-4.18l7.35-2.17,.46,.46c.21,0,1.16-.31,2.86-.93,.93,1.24,1.39,2.66,1.39,4.26,0,.88-1.42,1.47-4.26,1.78l-.46-.46h-.39l-1.01,.46v-.46l-10.6,2.55-.31-.46-.46,.46c0,.31,.16,1.42,.46,3.33h-.46l.46,.46v.85l-.46,.31,.46,.46v3.87l-.46,2.09,.46,2.55v2.17Z"/><path class="b" d="M205.28,66.45l-5.57-.85-7.82,.85c-.31-.21-.65-.33-1.01-.39-1.81,.26-3.02,.39-3.64,.39v-1.86l-.46-2.25,1.39-1.01h2.32l.39,.54,.46-.54h1.39l.46,.54,3.25-.93,5.57,.93c.93,0,8.28-1.08,22.06-3.25v.46l8.82-1.86,1.24,5.11-1.24,1.39-7.43-1.39c-1.24,.41-1.86,.88-1.86,1.39l-1.78-.54-2.32,.54-.54-.54c0,.83-1.37,1.63-4.1,2.4l-1.86-1.01-.93,1.01-.46-.54-4.49,1.01v-.46l-1.86,.85Zm6.5-12.93h-.46c-4.85,0-8.8-1.7-11.84-5.11l-1.55-4.18-.16-1.86c0-3.15,1.21-4.93,3.64-5.34l.7,.7c-1.24,1.5-1.88,2.79-1.94,3.87l.7,3.56c1.08,2.58,3.1,4.36,6.04,5.34l3.95,.85,3.02-1.08c-.26-.1-.39-.28-.39-.54,.77-2.01,1.39-3.02,1.86-3.02v-3.64l.46-3.02-.46-.23,.46-.31v-.62c0-4.75-1.91-7.12-5.73-7.12-4.23,0-7.3,1.5-9.21,4.49l-1.39,.08-.23-.77c1.29-3.35,4.49-5.26,9.6-5.73h2.71c3.3,.62,4.95,1.52,4.95,2.71l-.31,.31c.62,0,1.5,.83,2.63,2.48l.39,.23-.39,.31v.23l1.16,1.55,.08,.93c0,.88-.13,1.68-.39,2.4,0,1.08-.13,2.14-.39,3.17-.52,.57-.93,1.21-1.24,1.94v1.55l-.39,.54c0,.26-.08,.85-.23,1.78l-.46,.7c-.83,1.29-2.55,2.25-5.19,2.86Z"/><path class="b" d="M254.9,54.38c-2.22-2.32-5.01-6.66-8.36-13l-1.39-1.86c-.26-.31-.57-.46-.93-.46l-4.64,14.86-.46,.46c-.31,0-.93-.16-1.86-.46l2.32-8.36c-.31-.26-.46-.57-.46-.93,1.24-.93,2.01-2.94,2.32-6.04-.31-1.24-.46-2.01-.46-2.32l1.39-1.86-.93-1.39,1.39-2.32c-.31-.26-.46-.57-.46-.93,.77-2.48,1.39-3.71,1.86-3.71h.46l.93,.93v1.86l-.93,5.11,.46,1.39h-.46l4.18,3.71c0,.67,2.17,3.3,6.5,7.9l4.64,6.04-5.11,1.39Zm17.42,27.94h-.31l-1.78-.7-1.63,.23c-1.86-1.08-4.8-5.81-8.82-14.17l-1.63-1.39c-.83,1.5-1.52,2.24-2.09,2.24l.46,.31v.39c-.36,2.17-.93,3.25-1.7,3.25l-.39,1.16,.39-.7-4.18,4.41c-1.14,1.34-2.22,2.73-3.25,4.18l-1.78-2.25,1.39-3.02,2.79-3.1,3.41-2.94-.85-2.17v-.39l.85-.7h1.62v-.31c-.77,0-1.16-.39-1.16-1.16,3.3-1.24,4.95-2.94,4.95-5.11l1.62-.39-.46-.31v-.39l.46-.31,.46,.31h.85l-.46-.31v-.39c3.1-3.77,4.64-5.96,4.64-6.58,2.01,0,3.1,.39,3.25,1.16-.41,1.7-1.65,3.25-3.72,4.64,0,.98-1.24,2.32-3.71,4.03l.31,.39v.77c-.52,0-1.06,.59-1.63,1.78,3.51,3.77,6.73,8.36,9.68,13.78h.31v.46c-.21,.21-.31,.44-.31,.7h.77c0,.57,.54,1.26,1.63,2.09v.46Zm4.33-24.23c-1.7,0-2.63-.46-2.79-1.39v-1.39l.31-.46-.31-.46c0-.36,.1-.67,.31-.93l-.31-2.32v-2.79l.31-.46-.31-.46v-4.18l.31-1.62-1.24-4.41-2.48,.46c-6.81-.88-10.22-1.65-10.22-2.32v-.93l.85-.93,.46,.46h.31c0-.62,1.08-1.08,3.25-1.39l.46,.46h.39l.46-.46c2.68,.46,4.03,.93,4.03,1.39l1.32-.46,2.09,.46,.31-1.39-.31-5.11,.31-.46-.31-.46,.31-2.32v-4.64h.46c2.79,0,4.41,2.79,4.88,8.36-.31,2.63-.46,4.1-.46,4.41l.46,.7-.77,3.25,.77,.93h-.46l.46,.46c0,.31-.26,1.62-.77,3.95l.31,.46h.46l-1.24,4.88,.46,.46-.46,2.79,.46,1.39c-.31,2.48-.75,3.72-1.32,3.72l.46,.46v.93l-1.24,1.39Zm-5.26-11.3l-5.88-1.39-.16,.62c-1.75,0-2.76-1.06-3.02-3.17l.7-1.01c1.96,.05,3.2,.36,3.71,.93l.16-.62,1.7-.08c2.68,0,4.08,.34,4.18,1.01l-.46,3.48-.93,.23Zm17.11,34.06h-2.48c-5.11-3.25-8.21-6.4-9.29-9.44h-1.39c0,2.42-.72,3.64-2.17,3.64l-.62-.39c-.36,0-.67,.13-.93,.39v.46h.46l-.46,.46v.77c1.03,0,1.55,.44,1.55,1.32l-.62,.31h-1.86c0-.83-.62-1.24-1.86-1.24v-.85c1.24,0,1.86-.41,1.86-1.24l-1.39-1.16,3.87-3.71h.31l-.31-.39v-.77c.82,0,1.24-.44,1.24-1.32,.62,0,.93-.64,.93-1.93l4.18-4.1,.46,.23c.88-2.63,1.65-3.95,2.32-3.95h.46l.93,.85-.31,.31c.21,.31,.31,.62,.31,.93l-4.95,8.98c2.32,5,5.73,8.28,10.22,9.83h.93v1.16c-.93,0-1.39,.28-1.39,.85Zm-15.33-4.57h-.62v-.77h.62v.77Zm17.65,2.55h-.62v-.77h.62v.77Z"/><path class="b" d="M296.77,66.07l-.93-.85,.93-1.16v-1.24h-.93l.93-2.48-.93-.77,.93-.85c-.57-.51-1.11-1.06-1.62-1.62,.62,0,1.01-.54,1.16-1.63h-1.62v-.7l.46-.46-.46-.46v-1.94l.46-.46-.46-.39v-1.24h.77c-1.08-1.19-1.63-2.27-1.63-3.25l1.32-.85,.31,.46h.39v-.93l-1.55-.7,.85-2.4-.46-.39,.46-.46h.31l-.31-1.94c0-.31,.1-1.13,.31-2.48-.77,0-1.16-.57-1.16-1.7h.39l-.39-.39c0-.21,.13-.75,.39-1.63l-.39-2.4,1.16-.85h.85l.46,.39,.31-.39h.85v.85h-.85v1.94l-.31,.46,.77,2.01-.46,9.75,2.09,10.99h-.46l.85,3.25v2.48l.46,.31v.39l11.22-3.95,.46,.31c.31,0,1.68-.41,4.1-1.24l1.16,.46,1.16-.46v1.24l2.86-.77c0,.52,.44,.77,1.32,.77v1.16l-2.09,1.78-2.94-.46c-.46,0-2.09,.16-4.88,.46-.15-.31-.23-.62-.23-.93l-10.22,2.4c0,.88-.8,1.57-2.4,2.09h-.85l-1.16-.46v.46l-.77,.85Zm1.16-3.25l.77-.85h-.77v.85Zm34.6,9.37h-.93l-.85-3.1-.46,.46h-2.17v-.93l.31-.46-.77-5.34h.46l-.46-.39c0-.36,.15-.67,.46-.93l-.46-1.39,.46-1.24c-.31-1.81-.46-3.02-.46-3.64l.77-1.24-.77-.93v-7.58l.46-.46-.46-.46c0-.36,.15-.67,.46-.93l-.46-1.24,.46-6.27-.46-.46c0-.26,.15-1.26,.46-3.02l-.46-1.86,.46-1.32-.93-5.8,.46-.46h1.7c1.34,0,2.25,3.15,2.71,9.44l-.46,.31c0,.31,.15,1.37,.46,3.17h-.46l.46,.46v4.88l.46,1.86-.46,.31c0,.31,.16,1.37,.46,3.17-.05,.36-.21,.67-.46,.93l.46,3.95h.46c0-2.42,2.04-3.89,6.12-4.41l8.98-2.25,.46,.46c.31,0,1.5-.31,3.56-.93,1.19,1.24,1.78,2.71,1.78,4.41,0,.93-1.78,1.55-5.34,1.86l-.46-.46c-.31,0-.9,.16-1.78,.46v-.46l-12.85,2.71-.46-.46-.46,.46c0,.31,.15,1.5,.46,3.56h-.46l.46,.46v.85l-.46,.46,.46,.46v3.95l-.46,2.32,.46,2.63v2.25l-.46,2.17Z"/><path class="b" d="M373.01,68.7c-2.01,0-3.92-.08-5.73-.23l-.39-.62c-.31,0-1.42,.13-3.33,.39l-4.57-.85c-1.19-1.6-1.78-2.97-1.78-4.1l.08-.62c1.24,.21,2.63,.31,4.18,.31l2.17,.85,5.11,.46,10.68-.23,.7-1.32-.23-1.47,1.16-3.95-.23-4.33c.57-1.29,1.34-1.94,2.32-1.94l.46,.08c.72,1.24,1.19,3.84,1.39,7.82-.77,2.63-1.19,4.1-1.24,4.41l2.17-.39,1.32,.7,.08-.46,.39,.62,.46,.08c1.03-.57,1.99-.85,2.86-.85l.62,.08,.31,.46,.46,.08,1.08-.7h.46l.31,.62,.46,.08c.16-.93,.93-1.57,2.32-1.94l.85,.08,.54,2.48-.08,.46c-.15,1.75-2.76,2.63-7.82,2.63-6.61,.88-12.46,1.32-17.57,1.32Zm7.51-17.57h-.46c-4.85,0-8.8-1.7-11.84-5.11l-1.55-4.18-.16-1.86c0-3.15,1.21-4.93,3.64-5.34l.7,.7c-1.24,1.5-1.88,2.79-1.94,3.87l.7,3.56c1.08,2.58,3.1,4.36,6.04,5.34l3.95,.85,3.02-1.08c-.26-.1-.39-.28-.39-.54,.77-2.01,1.39-3.02,1.86-3.02v-3.64l.46-3.02-.46-.23,.46-.31v-.62c0-4.75-1.91-7.12-5.73-7.12-4.23,0-7.3,1.5-9.21,4.49l-1.39,.08-.23-.77c1.29-3.35,4.49-5.26,9.6-5.73h2.71c3.3,.62,4.95,1.52,4.95,2.71l-.31,.31c.62,0,1.5,.83,2.63,2.48l.39,.23-.39,.31v.23l1.16,1.55,.08,.93c0,.88-.13,1.68-.39,2.4,0,1.08-.13,2.14-.39,3.17-.52,.57-.93,1.21-1.24,1.94v1.55l-.39,.54c0,.26-.08,.85-.23,1.78l-.46,.7c-.83,1.29-2.55,2.25-5.19,2.86Zm-9.44,16.25l-3.48-.46-.31-1.01,.23-7.58-.62-.23-.08-.77c0-1.75,.88-2.81,2.63-3.17l1.32,.93,.08,1.86c0,1.39-.18,2.32-.54,2.79l.7,.16c.41,2.53,.62,4.41,.62,5.65s-.18,1.81-.54,1.86Z"/><path class="b" d="M411.94,67.23c-.31-.1-1.55-.72-3.71-1.86l.46-.39v-.31l-.39-.46,.85-.7-1.08-1.16,.16-1.16,1.47-.23,.15-.46-.7-.85-1.16,.39-.62-2.01,.46-1.16-.7-.77,.39,.08-.39-.46v-.31l.85-.7-.46-2.32,.77-.7c-.77-.1-1.16-.39-1.16-.85,.1-.67,.54-1.01,1.32-1.01h.31l-.54-2.01c1.29-.21,1.93-.52,1.93-.93l-1.01-1.24,1.24-.7,.39,.46h.31c.16-1.39,.88-2.09,2.17-2.09h.31c.15-1.86,1.65-3.22,4.49-4.1,.15-1.08,.93-2.66,2.32-4.72v-.54c0-2.53-1.94-4.67-5.81-6.42l-1.47-.08c-3.97,0-7.2,1.73-9.67,5.19l-2.4,2.4-.39-.08-.7-.85c3.1-5.73,6.94-9.16,11.53-10.29l2.79-.62,.54,.85,.46,.08c.1-.67,.54-1.01,1.32-1.01h.31c4.64,1.75,6.97,3.74,6.97,5.96,0,.21-.1,.31-.31,.31,.21,.26,.31,.52,.31,.77l-.46,.39v.31l.93,2.01-.31,.31,.31,.46-.08,1.55c-1.39,3.15-4.8,7.02-10.22,11.61h-.39l-.31-.46c-.1,.83-.85,2.06-2.25,3.71l.39,.31c-.31,3.2-1.06,4.8-2.25,4.8h-.08v.31c1.39,.16,2.17,1.24,2.32,3.25-.31,.21-.46,.49-.46,.85,1.08,1.91,1.63,3.17,1.63,3.79l-1.32,1.08,.7,.77h-.77l.7,2.01Zm1.16,10.68c-2.12,0-3.66-2.32-4.64-6.97,.62-1.24,1.55-1.86,2.79-1.86l1.47,.08,2.48,2.94c0,.26-.13,.44-.39,.54,.93,.1,1.39,.46,1.39,1.08,0,.1-.1,.49-.31,1.16h.54c0,.52-.21,.77-.62,.77h-.31l.23,.39c0,.21-.1,.39-.31,.54l-.23-.31h-.62c-.15,1.08-.65,1.62-1.47,1.62Z"/><path class="b" d="M17.89,185.01c0-1.36-1.17-3.12-3.51-5.26l5.26-4.38-.58-2.05c1.56,0,4.67-3.41,9.35-10.23l2.63-2.63h.73l-.73-.73c0-1.17,2.43-3.55,7.3-7.16,0-1.17,.78-2.34,2.34-3.51-.39-.39-.58-.83-.58-1.32l8.76-14.02-.73-.73-1.9,.73-6.57,.58c-8.38,3.41-14.66,5.6-18.85,6.57-3.21,1.66-6.82,2.48-10.81,2.48l1.17-4.38,14.46-4.38c.39-1.36,2.14-2.05,5.26-2.05,1.75-.58,5.01-1.46,9.79-2.63,1.75-.97,3.75-1.61,5.99-1.9l1.32,1.31,1.31-1.31c2.92,.88,5.11,2.39,6.57,4.53l-7.3,11.83-.58-.58c0,5.55-4.09,11.54-12.27,17.97l-.73,2.63c4.87,3.51,8.67,6.48,11.39,8.91h.73c3.6,1.07,6.67,3.07,9.2,5.99l-3.36,3.21-1.31-1.31-1.32,1.31c-3.02-1.46-4.53-2.97-4.53-4.53-.39,.39-.83,.58-1.31,.58-.49-.29-.73-.73-.73-1.31l-4.82-1.9-7.16-5.7h-.73l-13.15,15.34Zm68.37,3.07c-2.14,0-3.46-.88-3.94-2.63v-2.63l.88-.88-.88-.88c0-.68,.29-1.26,.88-1.75l-.88-4.38v-5.26l.88-.88-.88-.88v-3.51l.88-3.07-2.63-6.14-5.26,.88c-12.56-.19-18.85-.92-18.85-2.19v-1.75l1.75-1.75c.49,.58,1.07,.88,1.75,.88,0-1.17,2.34-2.05,7.01-2.63l.88,.88c.68,0,1.26-.29,1.75-.88,1.56-.19,2.78-.29,3.65-.29,1.36,0,2.04,.24,2.04,.73l2.63-.88,4.38,.88,.88-2.63-.88-11.83,.88-.88-.88-.88,.88-4.38v-8.77h.88c4.58,0,7.35,5.26,8.33,15.78l-.88,7.45c0,.58,.29,2.04,.88,4.38l-1.75,6.14,1.75,1.75h-.88c.58,.49,.88,1.07,.88,1.75l-1.75,4.38c.49,.58,1.07,.88,1.75,.88l-2.63,4.82,.88,.88c0,.58-.29,2.34-.88,5.26l.88,2.63c-.58,4.67-1.46,7.01-2.63,7.01l.88,.88v1.75l-2.63,2.63Z"/><path class="b" d="M130.52,162.22l-9.64-1.61-13.59,1.61-1.17-.73h-.58c-3.21,.49-5.41,.73-6.57,.73-.1-2.43-.34-4.87-.73-7.3l2.48-1.46h3.94l.88,.88,.58-.88h2.63l.73,.88,5.7-1.75,9.64,1.75c1.56,0,14.46-1.9,38.71-5.7v.88l15.34-3.36,2.19,8.76-2.19,2.63-12.86-2.63c-2.24,.88-3.36,1.75-3.36,2.63l-3.21-1.02-3.95,1.02-.88-1.02c0,1.46-2.44,2.83-7.3,4.09l-3.21-1.46-1.61,1.46-.88-.88-7.89,1.75v-.88l-3.21,1.61Zm-3.36-22.79l-.88-.73v-.88l-.88,.88c-7.6-.88-11.4-3.36-11.4-7.45l-3.94-17.09-.58-16.22,3.21-1.31,3.07-.15,.88,2.34-1.31,11.39,.44,8.18c.97,4.97,2.43,8.52,4.38,10.67l5.26-.15v.88c.49-.58,1.07-.88,1.75-.88l.73,.88,8.91-4.24,2.48,1.75c0-1.56,.58-2.34,1.75-2.34h2.34l.73-.88c.68,0,1.26,.29,1.75,.88,2.63-.58,4.24-.88,4.82-.88v.88l.88-.88h1.46l1.75,1.46h-.88c.58,.49,.88,1.07,.88,1.75l-.88,.73,.88,.88v1.46c-1.75,2.83-3.65,4.24-5.7,4.24l-.88-.88c-.58,0-3.56,.78-8.91,2.34l-5.7-2.34c0,.68,.29,1.27,.88,1.75v.58l-.88,.88h-1.61l-2.34-1.46-.88,.58,.88,.88v1.75l-2.48,.73Zm13.59,78.89c-.58-.49-.88-1.07-.88-1.75l-.88,.88c-8.18-.88-12.27-3.51-12.27-7.89l-4.38-18.41,2.63-21.04h1.75l1.75,1.75c0,.58-.29,3.51-.88,8.76l.88,.88c0,.58-.58,4.67-1.75,12.27l1.75,1.75-.88,2.63,.88,.88c0,.58-.29,2.05-.88,4.38,1.46,0,2.63,2.05,3.51,6.14l7.89-2.63v.88l.88-.88c.68,0,1.26,.29,1.75,.88l9.64-4.38,2.63,1.75c0-1.75,.58-2.63,1.75-2.63h2.63l.88-.88c.68,0,1.26,.29,1.75,.88,2.92-.58,4.68-.88,5.26-.88v.88l.88-.88h1.75l1.75,1.75h-.88l.88,.88c0,.68-.29,1.26-.88,1.75l.88,.88v1.75c-1.75,2.92-3.8,4.38-6.14,4.38l-.88-.88c-.58,0-3.8,.88-9.64,2.63l-6.14-1.75,.88,.88c0,.68-.29,1.26-.88,1.75h-4.38v1.75l-2.63,.88Zm17.09-87.07h-3.07l-1.75-1.46c0-.68,.29-1.26,.88-1.75,0-.49-.29-1.51-.88-3.07l4.24-2.63h1.46c.58,3.8,.88,6.28,.88,7.45l-1.75,1.46Zm18.41,78.3h-3.51l-1.75-1.75c0-.68,.29-1.27,.88-1.75,0-.58-.29-1.75-.88-3.51l4.38-2.63h1.75c.58,4.09,.88,6.72,.88,7.89l-1.75,1.75Z"/><path class="b" d="M249.58,211.6h-1.02l-2.92-2.78v-.88l1.17-1.17v-.88c-3.8,0-6.67-9.79-8.62-29.36l.88-1.02h.88c-.58-6.91-1.51-11-2.78-12.27,.68-3.21,2-4.82,3.94-4.82l-4.82-5.7c0-1.17,.29-3.36,.88-6.57-.58-3.8-.88-6.38-.88-7.74h1.9l-5.7-6.57-1.02,.88h-.88l-2.92-2.78c2.53-3.12,4.43-4.68,5.7-4.68-2.44-8.86-3.65-13.59-3.65-14.17l8.47-6.87h1.75v3.94h-1.75l.88,3.8,4.82-.88v1.75l-1.02,1.02,1.02,2.92c10.23-8.67,18.8-13.15,25.71-13.44l.88,.88,.88-.88v.88l-3.8,5.7h2.92v3.94l-5.7,.88v-1.9h-2.04l-2.78,1.9c-.49-.49-1.07-.78-1.75-.88-7.6,6.62-11.4,10.71-11.4,12.27,0,3.21,.58,4.82,1.75,4.82l-1.75,3.8h1.75v1.9h-1.75c3.8,5.16,5.7,9.93,5.7,14.32l-3.94,.88v.88l2.78,2.78,1.17-.88v.88l23.67-6.57v.88l.88-.88h4.82c-3.7,5.75-7.79,8.62-12.27,8.62l-17.09,4.82v-1.17l-2.92,1.17c1.46,3.8,3.02,5.7,4.67,5.7v2.78c-1.66,0-2.63,1.56-2.92,4.67,1.17,0,2.48,3.21,3.94,9.64l-1.9,3.65c2.14,0,4.04,5.41,5.7,16.22l-3.8,.88-1.02-.88h-1.75v.88h1.75c0,1.36-1.56,2.05-4.67,2.05v3.65Z"/><path class="b" d="M292.82,136.65l-3.07-2.19h-4.09l-1.17,1.02h-.88l-1.02-1.02v-.88l-3.94,1.9c0-2.04-1.41-3.07-4.24-3.07,0-2.73-1.02-4.09-3.07-4.09v-5.11c1.75-3.31,4.82-4.97,9.2-4.97,3.21,0,7.3,3.7,12.27,11.1v2.05c2.04,0,3.07,.73,3.07,2.19l-3.07,3.07Zm-4.09,65.01l-1.17-1.02v-.88l1.17-1.17h1.02l-1.02-1.02v-3.07l1.02-.88-3.07-5.11,2.04-12.27-2.04-1.9c0-.78,1.02-4.24,3.07-10.37l-1.02-1.02v-.88l1.02-1.17-1.02-3.94c0-4.77,2.04-8.57,6.14-11.4h3.07c-.78,10.23-1.17,16.36-1.17,18.41l-.88,1.17,2.04,16.22h-1.17l1.17,1.02c-.78,8.09-1.17,13.15-1.17,15.19l-1.9,2.19-1.17-1.17c0,1.17-1.66,2.19-4.97,3.07Z"/><path class="b" d="M370.98,198.6h-2.63c0-3.51-1.46-5.26-4.38-5.26v-.88c.58-.49,.88-1.07,.88-1.75l-2.63-2.63,2.63-5.26-.88-4.38,1.75-1.75-.88-2.63,.88-.88c0-15.78-5.26-26-15.78-30.68l-3.51-1.75c-2.34,.39-4.67,1.85-7.01,4.38,.58,.49,.88,1.07,.88,1.75,0,.88-2.92,2.92-8.77,6.14,.58,.49,.88,1.07,.88,1.75-8.18,10.52-12.27,21.62-12.27,33.31l-5.26,1.75h-3.51c-1.27-.58-3.31-5.26-6.14-14.02l2.63-4.38-1.75-3.51h.88c-.68-4.67-1.56-7.01-2.63-7.01l2.63-4.38-.88-.88v-2.63l.88-.88-1.75-8.77c2.92-2.63,4.38-4.97,4.38-7.01h3.51l1.75,1.75c-.39,4.09-.97,6.14-1.75,6.14l.88,.88v9.64l-.88,3.51,.88,4.38h1.75c0-7.21,4.97-14.8,14.9-22.79,1.75,0,2.63-.88,2.63-2.63l14.9-3.51v.88l.88-.88c5.65,0,12.37,5.84,20.16,17.53,1.75,6.43,2.63,9.93,2.63,10.52h-1.75l2.63,3.51v6.14l1.75,5.26-2.63,14.9,.88,4.38c-1.17,0-1.75,.88-1.75,2.63Z"/><path class="b" d="M412.47,201.23c-.49,0-3.12-.68-7.89-2.04l-2.04,.73c-11.2-7.21-16.8-13.49-16.8-18.85-.88,0-1.31-.88-1.31-2.63h.58l-3.94-17.82c.39-.39,.83-.58,1.31-.58l-1.31-3.8c.39-.39,.83-.58,1.31-.58l-.58-.73v-1.9l3.21-3.36-.58-.58v-3.94h1.9l-.58-.73v-2.63l5.26-6.57c1.75,0,2.63-.63,2.63-1.9l.58,.58h1.31c0-.39-.2-1.26-.58-2.63h.58c2.82-1.26,6.28-1.9,10.37-1.9,16.46,2.63,24.69,7.01,24.69,13.15l.73,7.89c-1.07,6.82-3.07,10.23-5.99,10.23,.39,.39,.63,.83,.73,1.31l-4.38,2.63c-5.75-.39-8.62-1.02-8.62-1.9l-.58,.58c-3.12-.39-6.19-.83-9.2-1.31l-.73,.73c-.39-.39-.58-.83-.58-1.31l-4.67,.58h-4.97c-.88,0-1.31-.63-1.31-1.9h-.73v1.9c1.36,4.38,2.04,6.82,2.04,7.3l-1.31,1.9c1.75,0,2.63,2,2.63,5.99,1.17,.1,3.07,3.31,5.7,9.64,6.72,6.53,11.98,9.79,15.78,9.79,4.09,0,8.62-3.07,13.59-9.2l3.21-1.02,2.05,.44,.58-.44,3.94,.44c-6.82,9.64-15.49,14.46-26,14.46Zm-22.79-41.93l4.53-2.34h1.75l.73,.58,.58-.58h2.04l.58,.58,.73-.58h1.31l.58,.58,.73-.58,3.21,.58,13.15,.44,3.94-6.28v-.73l-.58,.73c-.58,0-1.02-.24-1.31-.73,.29-2.63,1.17-3.94,2.63-3.94-.88-7.01-4.19-10.52-9.93-10.52-4.38-.58-6.57-1.22-6.57-1.9-7.69,0-12.66,3.26-14.9,9.79-.88,5.26-2.19,7.89-3.94,7.89l.73,.73c-.1,.49-.34,.93-.73,1.31l1.32,1.31v.58h-1.32v1.75c.39,.39,.63,.83,.73,1.31Z"/><path class="b" d="M475.43,180.92h-.73c-9.16,0-16.65-3.8-22.5-11.39l-2.78-9.2c-.2-1.56-.29-3.02-.29-4.38,0-7.01,2.29-10.96,6.87-11.83l1.32,1.75c-2.34,3.21-3.6,5.99-3.8,8.33l1.32,8.18c2.04,5.65,5.84,9.59,11.39,11.83l7.45,1.75,5.7-2.19c-.39-.39-.58-.83-.58-1.31,1.46-4.38,2.63-6.57,3.51-6.57v-8.18l.88-6.72-.88-.73,.88-.58v-1.31c0-10.52-3.56-15.78-10.66-15.78-1.07,0-2.29,.15-3.65,.44-5.94,.29-10.62,3.41-14.02,9.35l-2.63,.44-.44-1.9c2.53-7.5,8.62-11.74,18.26-12.71h4.97c6.33,1.27,9.5,3.31,9.5,6.14l-.73,.58c1.17,0,2.87,1.75,5.11,5.26l.58,.73c-.39,.39-.58,.83-.58,1.32l2.19,3.51v1.17c0,2.44-.24,4.43-.73,5.99,0,2.44-.2,4.87-.58,7.3-1.07,1.27-1.9,2.63-2.48,4.09v3.51l-.58,1.31c0,.49-.15,1.75-.44,3.8l-.88,1.46c-1.66,3.12-4.97,5.31-9.93,6.57Zm41.93,17.82h-1.75l-1.75-5.7-.88,.88h-4.38v-1.61l.88-.88-1.75-9.64h.88l-.88-.88v-.58l.88-.88-.88-2.48,.88-2.34c-.58-3.21-.88-5.41-.88-6.57l1.75-2.48-1.75-1.46v-13.59l.88-.88-.88-.88v-.73l.88-.88-.88-2.34,.88-11.25-.88-.88c0-.58,.29-2.48,.88-5.7l-.88-3.21,.88-2.48-1.75-10.23,.88-.88h3.51c2.63,0,4.38,5.6,5.26,16.8l-.88,.88c0,.49,.29,2.39,.88,5.7h-.88l.88,.73v8.91l.88,3.07c-.58,.49-.88,1.07-.88,1.75l.88,5.55-.88,.88,.88,7.16,.88,1.61-.88,.88c0,.58,.29,2.68,.88,6.28h-.88l.88,.88v1.61l-.88,.88,.88,.88v7.16l-.88,3.94,.88,4.82v4.24l-.88,3.94Z"/><path class="b" d="M551.55,179.9h-.73c-9.16,0-16.65-3.8-22.5-11.39l-2.78-9.2c-.2-1.56-.29-3.02-.29-4.38,0-7.01,2.29-10.96,6.87-11.83l1.32,1.75c-2.34,3.21-3.6,5.99-3.8,8.33l1.32,8.18c2.04,5.65,5.84,9.59,11.39,11.83l7.45,1.75,5.7-2.19c-.39-.39-.58-.83-.58-1.31,1.46-4.38,2.63-6.57,3.51-6.57v-8.18l.88-6.72-.88-.73,.88-.58v-1.32c0-10.52-3.56-15.78-10.66-15.78-1.07,0-2.29,.15-3.65,.44-5.94,.29-10.62,3.41-14.02,9.35l-2.63,.44-.44-1.9c2.53-7.5,8.62-11.74,18.26-12.71h4.97c6.33,1.27,9.5,3.31,9.5,6.14l-.73,.58c1.17,0,2.87,1.75,5.11,5.26l.58,.73c-.39,.39-.58,.83-.58,1.31l2.19,3.51v1.17c0,2.44-.24,4.43-.73,5.99,0,2.44-.2,4.87-.58,7.3-1.07,1.27-1.9,2.63-2.48,4.09v3.51l-.58,1.31c0,.49-.15,1.75-.44,3.8l-.88,1.46c-1.66,3.12-4.97,5.31-9.93,6.57Zm38.57,6.87c-2.63,0-4.14-.88-4.53-2.63v-2.63l.88-.88-.88-.88c0-.68,.29-1.26,.88-1.75l-.88-4.38v-5.26l.88-.88-.88-.88v-7.89l.88-3.07-2.63-6.14-5.26,.88c-7.3-.19-10.96-.92-10.96-2.19v-1.75l1.75-1.75c.49,.58,1.07,.88,1.75,.88,0-1.17,.88-2.04,2.63-2.63l.88,.88c.68,0,1.26-.29,1.75-.88,.58-.19,1.07-.29,1.46-.29,.49,0,.73,.24,.73,.73l2.63-.88,4.38,.88,.88-2.63-.88-11.83,.88-.88-.88-.88,.88-4.38v-8.76h.88c4.97,0,7.94,5.26,8.91,15.78l-.88,7.45c0,.58,.29,2.05,.88,4.38l-1.75,6.14,1.75,1.75h-.88c.58,.49,.88,1.07,.88,1.75l-1.75,4.38c.49,.58,1.07,.88,1.75,.88l-2.63,9.2,.88,.88c0,.58-.29,2.34-.88,5.26l.88,2.63c-.58,4.67-1.46,7.01-2.63,7.01l.88,.88v1.75l-2.63,2.63Zm19.14,12.71c-4.97-.49-7.55-1.22-7.74-2.19v-1.75c1.36-9.54,3.55-18.55,6.57-27.03l-.88-4.09c1.75-18.89,2.63-32.38,2.63-40.47v-7.3l2.19-2.63h3.8c3.41,0,5.31,.73,5.7,2.19v2.63c0,1.56-1.12,2.34-3.36,2.34l.29,2.63-2.48,6.87,1.75-.29-.88,.88c0,.68,.29,1.27,.88,1.75v.73l-1.46,3.65,.88,.44v1.75l-.88,1.17,2.19,9.79c-1.07,.2-1.61,2.14-1.61,5.84v1.02h-.88l.88,.88,.29,4.09-1.61,2.63,.88,3.36-3.94,8.33,.29,5.84c-.88,6.72-1.85,10.08-2.92,10.08l.88,.88v3.51l-1.46,2.48Z"/><path class="b" d="M657.6,192.46c-3.8,0-7.4-.15-10.81-.44l-.73-1.17c-.58,0-2.68,.24-6.28,.73l-8.62-1.61c-2.24-3.02-3.36-5.6-3.36-7.74l.15-1.17c2.34,.39,4.97,.58,7.89,.58l4.09,1.61,9.64,.88,20.16-.44,1.32-2.48-.44-2.78,2.19-7.45-.44-8.18c1.07-2.43,2.53-3.65,4.38-3.65l.88,.15c1.36,2.34,2.24,7.26,2.63,14.75-1.46,4.97-2.24,7.74-2.34,8.33l4.09-.73,2.48,1.32,.15-.88,.73,1.17,.88,.15c1.95-1.07,3.75-1.61,5.41-1.61l1.17,.15,.58,.88,.88,.15,2.05-1.32h.88l.58,1.17,.88,.15c.29-1.75,1.75-2.97,4.38-3.65l1.61,.15,1.02,4.67-.15,.88c-.29,3.31-5.21,4.97-14.75,4.97-12.47,1.66-23.52,2.48-33.16,2.48Zm14.17-33.16h-.88c-9.16,0-16.61-3.21-22.35-9.64l-2.92-7.89-.29-3.51c0-5.94,2.29-9.3,6.87-10.08l1.31,1.32c-2.34,2.83-3.56,5.26-3.65,7.3l1.32,6.72c2.04,4.87,5.84,8.23,11.39,10.08l7.45,1.61,5.7-2.05c-.49-.19-.73-.53-.73-1.02,1.46-3.8,2.63-5.7,3.51-5.7v-6.87l.88-5.7-.88-.44,.88-.58v-1.17c0-8.96-3.6-13.44-10.81-13.44-7.99,0-13.78,2.83-17.38,8.47l-2.63,.15-.44-1.46c2.43-6.33,8.47-9.93,18.12-10.81h5.11c6.23,1.17,9.35,2.87,9.35,5.11l-.58,.58c1.17,0,2.82,1.56,4.97,4.67l.73,.44-.73,.58v.44l2.19,2.92,.15,1.75c0,1.66-.24,3.17-.73,4.53,0,2.04-.24,4.04-.73,5.99-.97,1.07-1.75,2.29-2.34,3.65v2.92l-.73,1.02c0,.49-.15,1.61-.44,3.36l-.88,1.31c-1.56,2.44-4.82,4.24-9.79,5.41Zm-17.82,30.68l-6.57-.88-.58-1.9,.44-14.32-1.17-.44-.15-1.46c0-3.31,1.66-5.31,4.97-5.99l2.48,1.75,.15,3.51c0,2.63-.34,4.38-1.02,5.26l1.31,.29c.78,4.77,1.17,8.33,1.17,10.66s-.34,3.41-1.02,3.51Z"/><path class="b" d="M719.84,180.33c-3.8,0-6.14-1.46-7.01-4.38l.88-.88c0-.58-.58-3.51-1.75-8.77,.58-.49,.88-1.07,.88-1.75-1.75,0-2.92-3.51-3.51-10.52h.88l-.88-2.63,.88-9.64-.88-12.27,.88-7.01-1.75-9.64,1.75-1.75c3.99,1.56,6.33,3.31,7.01,5.26,0,.68-.29,1.27-.88,1.75l.88,.88c0,2.34-.29,5.26-.88,8.77l.88,3.51h-.88c1.17,8.77,2.34,13.73,3.51,14.9-.49,.58-1.07,.88-1.75,.88l1.75,3.51-1.75,5.26,3.51,10.52-.88,.88c.49,.58,1.07,.88,1.75,.88-.58,.49-.88,1.07-.88,1.75l1.75,2.63c0,.68-.29,1.27-.88,1.75l.88,.88v1.75c-.58,0-1.75-.29-3.51-.88v4.38Zm2.63,31.56h-.88c-1.27,0-2.14-2.05-2.63-6.14h.88c-.58-2.34-1.75-3.51-3.51-3.51v-.88c4.09-5.84,7.01-8.77,8.77-8.77,3.51,0,5.26,4.09,5.26,12.27-2.04,4.67-4.67,7.01-7.89,7.01Z"/></svg>