<?xml version="1.0" encoding="UTF-8"?><svg id="a" xmlns="http://www.w3.org/2000/svg" viewBox="0 0 730.67 227.11"><defs><style>.b{fill:#00e640;stroke:#00e640;stroke-miterlimit:10;}</style></defs><path class="b" d="M32.05,48.9h-.7c-5.57,0-10.19-1.86-13.85-5.57l-1.86-4.41c-.1-.72-.15-1.42-.15-2.09,0-3.51,1.42-5.47,4.26-5.88l.93,.93c-1.39,1.55-2.17,2.89-2.32,4.02l.77,3.95c1.24,2.79,3.61,4.72,7.12,5.81l4.88,.85,3.48-1.08-.46-.31v-.23c.93-2.27,1.7-3.41,2.32-3.41v-3.95l.46-3.25-.46-.31,.46-.39v-.54c0-5.16-2.25-7.74-6.73-7.74-.67,0-1.42,.05-2.24,.15-3.77,.15-6.71,1.7-8.82,4.64l-1.62,.15-.23-.93c1.5-3.56,5.29-5.62,11.38-6.19h3.25c3.97,.62,5.96,1.6,5.96,2.94l-.46,.31c.77,0,1.81,.9,3.1,2.71l.46,.31-.46,.39v.23l1.39,1.63v.85c0,1.08-.15,2.04-.46,2.86,0,1.14-.1,2.24-.31,3.33l-.93,.85-.62,1.39v1.63l-.46,.54c0,.26-.1,.88-.31,1.86-1.08,1.96-3.33,3.28-6.73,3.95Zm12.62,29.95l-.7-.46v-.31l-.7,.31c-5.93-.36-8.9-1.55-8.9-3.56l-3.25-8.59,1.94-9.75h1.32l1.24,.77c0,.31-.23,1.68-.7,4.1l.7,.46c0,.21-.41,2.09-1.24,5.65l1.24,.85-.7,1.16,.7,.46v.31l-.7,1.62c1.08,0,1.93,.98,2.55,2.94l5.81-1.32v.46l.7-.46h.7l.62,.46,7.04-2.09,2.01,.85c0-.77,.41-1.16,1.24-1.16h2.01l.54-.46h.7l.62,.46c2.17-.31,3.43-.46,3.79-.46v.46l.7-.46h1.32l1.24,.77h-.54l.54,.46v.39l-.54,.46,.54,.31v.85c-1.24,1.39-2.74,2.09-4.49,2.09l-.62-.46c-.46,0-2.81,.41-7.04,1.24l-4.57-1.24v.46l.62,.31v.46l-.62,.39h-1.24l-2.01-.85-.54,.46,.54,.39v.77l-1.86,.46Zm11.3-21.21h-.85l-.77-2.94-.46,.39h-2.09v-.85l.46-.46-.93-4.95h.46l-.46-.46v-.39l.46-.46-.46-1.24,.46-1.32c-.31-1.6-.46-2.71-.46-3.33l.93-1.16-.93-.93v-7.12l.46-.46-.46-.31c0-.36,.15-.67,.46-.93l-.46-1.32,.46-5.81-.46-.46c0-.31,.15-1.26,.46-2.86l-.46-1.78,.46-1.24-.85-5.5,.39-.31h1.7c1.24,0,2.09,2.94,2.55,8.82l-.46,.31c0,.31,.15,1.32,.46,3.02h-.46l.46,.39v4.64l.39,1.7-.39,.39c0,.31,.13,1.32,.39,3.02-.05,.31-.18,.57-.39,.77l.39,3.72h.46c0-2.22,1.96-3.61,5.88-4.18l8.36-2.09,.46,.46c.26,0,1.39-.26,3.41-.77,1.08,1.14,1.62,2.53,1.62,4.18,0,.83-1.68,1.37-5.03,1.63l-.46-.39c-.31,0-.88,.13-1.7,.39v-.39l-12.23,2.48-.31-.39-.46,.39c0,.31,.15,1.42,.46,3.33h-.46l.46,.46v.85l-.46,.46,.46,.31v3.87l-.46,2.09,.46,2.55v2.09l-.46,2.09Z"/><path class="b" d="M103.34,43.79l-7.43-1.86-13,1.86v-.46l-.46,.46c-2.17-.31-3.25-.77-3.25-1.39v-.93c3.2-16.41,5.21-24.61,6.04-24.61l1.39,.93c-.62,5.88-1.24,8.82-1.86,8.82l.46,1.39-1.39,2.32c.26,.31,.57,.46,.93,.46l-1.86,4.18,.93,.93-.46,.46c.31,.26,.46,.57,.46,.93l-.93,1.86,.93,1.39,14.4-2.32c.26,.31,.57,.46,.93,.46,.26-.26,.57-.41,.93-.46,3.72,.41,5.57,1.5,5.57,3.25l-.46,.46,.46,.46-2.32,1.39Zm26.86,6.66l-2.24-1.39-.46,.46-.93-.93h-.46v.93h-.46l-1.24-1.32c1.75-2.99,2.63-4.95,2.63-5.88l-.46,.46h-.93v-1.39l.93-.85-.46-2.32c.93-3.3,1.83-5.24,2.71-5.81l.46,.39,.46-.39v-.46l-1.78-1.39v-.93l.46-.46-.46-.46v-.31l1.32-2.32h-.85l-5.42,3.1c-2.43-1.13-8.46-2.48-18.11-4.02-.26-.26-.39-.54-.39-.85l2.71-.93v-.46c11.97,.72,17.96,1.78,17.96,3.17h.46c3.1,0,4.93-2.09,5.5-6.27,0-2.48,1.03-4.15,3.1-5.03h.93c.62,0,.93,.46,.93,1.39-.98,4.75-2.06,8.36-3.25,10.84l.46,.46v2.17l-.77,.93,.31,.46v2.71l-2.63,.46v.93l1.86,.93-1.39,4.49,.93,2.24-1.86,.46v.93h.93c0,1.14-.16,3.23-.46,6.27Zm-7.58,30.19c-4.8,0-9.62-1.91-14.47-5.73v-4.41c1.7-6.4,3.72-9.6,6.04-9.6v1.39c-1.55,2.94-2.68,4.41-3.41,4.41l.39,.31c0,.26-.39,1.5-1.16,3.72,0,2.17,3.2,4.69,9.6,7.59l1.55,.23,1.47-1.32c-.21-.15-.31-.39-.31-.7,.77-2.32,1.39-3.48,1.86-3.48v-3.95l.46-3.48-.46-.31h1.16v-.23h-.7v-.85c0-6.04-2.84-9.06-8.51-9.06-3.71,0-6.66,1.47-8.82,4.41h-.77c-.26-.15-.39-.39-.39-.7,2.32-3.15,6.17-4.72,11.53-4.72h2.63c3.35,.67,5.03,1.7,5.03,3.1l-.39,.23c.62,0,1.52,.93,2.71,2.79l.46,.39-.46,.23v.31l1.16,1.78-1.55,2.09c.46,0,.85,.54,1.16,1.63l-.77,1.39,.46,.31v.23l-.46,.46v.39h.46c-.41,.98-.8,1.99-1.16,3.02v.31h.7v.7l-.7,.62c-.26-.16-.54-.23-.85-.23v.54l.39,.46v.23l-1.16,.7,.46,.39v1.24c-.88,1.65-1.93,2.71-3.17,3.17Zm.39-40.09h-1.39l-8.98-2.79c-.26,.31-.57,.46-.93,.46-2.37-.46-3.56-1.65-3.56-3.56l1.24-.93c3.04,.62,4.88,1.24,5.5,1.86l.46-.46c6.04,.77,9.06,1.5,9.06,2.17l-1.39,3.25Zm-8.36,20.36l-.85-.62h.85v.62Zm9.99,16.33v-.7h-.46v.7h.46Zm4.64-40.71v-.93l-1.32,.46v.46h1.32Zm.46-7.35v-.77h-.46v.77h.46Z"/><path class="b" d="M152.48,38.68c-1.65-.21-2.48-.46-2.48-.77l-.31,.31h-.46l-.39-.31h-.46l-.31,.31v.46l-2.09-.77-.39,.31h-5.65l-.85-2.17,.39-.39c5.73,0,9.91-.26,12.54-.77v.31c7.48-1.29,11.74-2.22,12.77-2.79l.31-.46,.46,.46v.85l-.77,.77,.31,.39v.46c0,.62-1.55,1.47-4.64,2.55l-1.63-.23-3.56,1.01h-1.16l-1.32-.77-.31,1.24Zm-4.1-8.9h-3.56l-2.94-.46v-.93l.46-.46v-.39l3.17,.39c6.35,0,10.99-.62,13.93-1.86l1.16,.46c0,1.08-1.08,1.88-3.25,2.4l-.46-.46c0,.88-2.84,1.32-8.51,1.32Zm2.94,32.12c-3.51,0-5.68-1.5-6.5-4.49l.46-.39-.46-.31c.36-4.49,1.16-6.73,2.4-6.73l-.31-.46c0-.26,.1-.49,.31-.7l-.31-.39,2.09-1.7c.67-1.39,1.68-2.24,3.02-2.55l.46-.39v-.46l-.46-.31,3.25-.85,1.24,.15,2.79,.93c-.21,.21-.31,.44-.31,.7l1.47,2.17c0,2.58,.05,4.75,.15,6.5-.57,1.19-1.11,2.04-1.62,2.55-.41,1.5-1.11,2.24-2.09,2.24l.46,.77c-.77,2.48-2.79,3.72-6.04,3.72Zm-1.62-1.86c2.94-.82,4.41-1.7,4.41-2.63-.26-.21-.39-.44-.39-.7,2.63-3.82,3.95-6.68,3.95-8.59v-2.32l-.77-1.55-.39,.39c-.31,0-1.01-.13-2.09-.39-1.24,1.5-2.81,3.12-4.72,4.88-1.65,2.43-2.48,4.44-2.48,6.04v1.55c0,1.6,.83,2.71,2.48,3.33Zm26.24,7.9l-.93-.08-.62-3.17-.46,.46-2.17-.23,.08-.77,.46-.46-.31-5.26h.31c-.21-.26-.31-.57-.31-.93l.46-.31-.23-1.32,.46-1.24-.23-2.71,.08-.93,1.08-1.16-.85-.93,.62-7.43,.46-.31-.39-.46c0-.36,.16-.64,.46-.85l-.23-1.39,.93-6.04-.31-.46c0-.31,.23-1.32,.7-3.02l-.39-1.7,.62-1.32-.39-5.65,.46-.39,1.78,.15c1.13,.05,1.7,2.68,1.7,7.9v1.39l-.46,.46,.23,3.02h-.46l.39,.46-.39,4.72,.23,1.78-.46,.46,.16,3.48-.46,.31,.08,3.95,.46,.15c.15-2.42,2.3-3.72,6.42-3.87l3.33-1.16,.46,.46c.26,0,1.42-.18,3.48-.54,.93,1.14,1.39,2.43,1.39,3.87v.62c-.05,.88-1.83,1.32-5.34,1.32l-.46-.46c-.57,0-1.14,.08-1.7,.23v-.39l-7.35,1.16-.31-.46-.46,.39,.08,3.56-.46-.08,.46,.46-.08,.93-.46,.31,.31,.46-.31,3.95-.62,2.09,.23,2.71-.23,2.17-.54,2.09Z"/><path class="b" d="M214.17,58.88c-2.22-2.32-5.01-6.66-8.36-13l-1.39-1.86c-.26-.31-.57-.46-.93-.46l-4.64,14.86-.46,.46c-.31,0-.93-.15-1.86-.46l2.32-8.36c-.31-.26-.46-.57-.46-.93,1.24-.93,2.01-2.94,2.32-6.04-.31-1.24-.46-2.01-.46-2.32l1.39-1.86-.93-1.39,1.39-2.32c-.31-.26-.46-.57-.46-.93,.77-2.48,1.39-3.72,1.86-3.72h.46l.93,.93v1.86l-.93,5.11,.46,1.39h-.46l4.18,3.72c0,.67,2.17,3.3,6.5,7.89l4.64,6.04-5.11,1.39Zm16.18,2.55c-1.39,0-2.22-.46-2.48-1.39v-1.39l.46-.46-.46-.46c0-.36,.16-.67,.46-.93l-.46-2.32v-2.79l.46-.46-.46-.46v-4.18l.46-1.63-1.39-3.25-2.79,.46c-3.87-.1-5.81-.49-5.81-1.16v-.93l.93-.93c.26,.31,.57,.46,.93,.46,0-.62,.46-1.08,1.39-1.39l.46,.46c.36,0,.67-.15,.93-.46,.31-.1,.57-.15,.77-.15,.26,0,.39,.13,.39,.39l1.39-.46,2.32,.46,.46-1.39-.46-6.27,.46-.46-.46-.46,.46-2.32v-4.64h.46c2.63,0,4.23,2.79,4.8,8.36l-.46,3.95c0,.31,.15,1.08,.46,2.32l-.93,3.25,.93,.93h-.46c.31,.26,.46,.57,.46,.93l-.93,2.32c.26,.31,.57,.46,.93,.46l-1.39,4.88,.46,.46c0,.31-.15,1.24-.46,2.79l.46,1.39c-.31,2.48-.77,3.72-1.39,3.72l.46,.46v.93l-1.39,1.39Zm10.06,6.73c-2.63-.26-3.97-.65-4.02-1.16v-.93c.67-5.06,1.83-9.83,3.48-14.32l-.46-2.17c.93-10.01,1.39-17.16,1.39-21.44v-3.87l1.16-1.39h1.93c1.81,0,2.81,.39,3.02,1.16v1.39c0,.83-.57,1.24-1.7,1.24l.08,1.39-1.24,3.64,.93-.15-.46,.46c0,.36,.16,.67,.46,.93v.39l-.85,1.94,.46,.23v.93l-.46,.62,1.16,5.19c-.52,.1-.77,1.01-.77,2.71v.93h-.46l.46,.46,.08,2.17-.77,1.39,.46,1.78-2.09,4.41,.08,3.1c-.46,3.56-.96,5.34-1.47,5.34l.46,.46v1.86l-.85,1.32Z"/><path class="b" d="M266.03,64.46c-2.01,0-3.92-.08-5.73-.23l-.39-.62c-.31,0-1.42,.13-3.33,.39l-4.57-.85c-1.19-1.6-1.78-2.97-1.78-4.1l.08-.62c1.24,.21,2.63,.31,4.18,.31l2.17,.85,5.11,.46,10.68-.23,.7-1.32-.23-1.47,1.16-3.95-.23-4.33c.57-1.29,1.34-1.94,2.32-1.94l.46,.08c.72,1.24,1.19,3.84,1.39,7.82-.77,2.63-1.19,4.1-1.24,4.41l2.17-.39,1.32,.7,.08-.46,.39,.62,.46,.08c1.03-.57,1.99-.85,2.86-.85l.62,.08,.31,.46,.46,.08,1.08-.7h.46l.31,.62,.46,.08c.16-.93,.93-1.57,2.32-1.94l.85,.08,.54,2.48-.08,.46c-.15,1.75-2.76,2.63-7.82,2.63-6.61,.88-12.46,1.32-17.57,1.32Zm7.51-17.57h-.46c-4.85,0-8.8-1.7-11.84-5.11l-1.55-4.18-.16-1.86c0-3.15,1.21-4.93,3.64-5.34l.7,.7c-1.24,1.5-1.88,2.79-1.94,3.87l.7,3.56c1.08,2.58,3.1,4.36,6.04,5.34l3.95,.85,3.02-1.08c-.26-.1-.39-.28-.39-.54,.77-2.01,1.39-3.02,1.86-3.02v-3.64l.46-3.02-.46-.23,.46-.31v-.62c0-4.75-1.91-7.12-5.73-7.12-4.23,0-7.3,1.5-9.21,4.49l-1.39,.08-.23-.77c1.29-3.35,4.49-5.26,9.6-5.73h2.71c3.3,.62,4.95,1.52,4.95,2.71l-.31,.31c.62,0,1.5,.83,2.63,2.48l.39,.23-.39,.31v.23l1.16,1.55,.08,.93c0,.88-.13,1.68-.39,2.4,0,1.08-.13,2.14-.39,3.17-.52,.57-.93,1.21-1.24,1.94v1.55l-.39,.54c0,.26-.08,.85-.23,1.78l-.46,.7c-.83,1.29-2.55,2.24-5.19,2.86Zm-9.44,16.25l-3.48-.46-.31-1.01,.23-7.59-.62-.23-.08-.77c0-1.75,.88-2.81,2.63-3.17l1.32,.93,.08,1.86c0,1.39-.18,2.32-.54,2.79l.7,.15c.41,2.53,.62,4.41,.62,5.65s-.18,1.81-.54,1.86Z"/><path class="b" d="M299,58.03c-2.01,0-3.25-.77-3.71-2.32l.46-.46c0-.31-.31-1.86-.93-4.64,.31-.26,.46-.57,.46-.93-.93,0-1.55-1.86-1.86-5.57h.46l-.46-1.39,.46-5.11-.46-6.5,.46-3.72-.93-5.11,.93-.93c2.12,.83,3.35,1.75,3.72,2.79,0,.36-.16,.67-.46,.93l.46,.46c0,1.24-.16,2.79-.46,4.64l.46,1.86h-.46c.62,4.64,1.24,7.28,1.86,7.9-.26,.31-.57,.46-.93,.46l.93,1.86-.93,2.79,1.86,5.57-.46,.46c.26,.31,.57,.46,.93,.46-.31,.26-.46,.57-.46,.93l.93,1.39c0,.36-.15,.67-.46,.93l.46,.46v.93c-.31,0-.93-.15-1.86-.46v2.32Zm1.39,16.72h-.46c-.67,0-1.14-1.08-1.39-3.25h.46c-.31-1.24-.93-1.86-1.86-1.86v-.46c2.17-3.1,3.71-4.64,4.64-4.64,1.86,0,2.79,2.17,2.79,6.5-1.08,2.48-2.48,3.72-4.18,3.72Z"/><path class="b" d="M23.97,180.77c0-1.36-1.17-3.12-3.51-5.26l5.26-4.38-.58-2.05c1.56,0,4.67-3.41,9.35-10.23l2.63-2.63h.73l-.73-.73c0-1.17,2.43-3.55,7.3-7.16,0-1.17,.78-2.34,2.34-3.51-.39-.39-.58-.83-.58-1.31l8.76-14.02-.73-.73-1.9,.73-6.57,.58c-8.38,3.41-14.66,5.6-18.85,6.57-3.21,1.66-6.82,2.48-10.81,2.48l1.17-4.38,14.46-4.38c.39-1.36,2.14-2.05,5.26-2.05,1.75-.58,5.01-1.46,9.79-2.63,1.75-.97,3.75-1.61,5.99-1.9l1.32,1.31,1.31-1.31c2.92,.88,5.11,2.39,6.57,4.53l-7.3,11.83-.58-.58c0,5.55-4.09,11.54-12.27,17.97l-.73,2.63c4.87,3.51,8.67,6.48,11.39,8.91h.73c3.6,1.07,6.67,3.07,9.2,5.99l-3.36,3.21-1.31-1.31-1.32,1.31c-3.02-1.46-4.53-2.97-4.53-4.53-.39,.39-.83,.58-1.31,.58-.49-.29-.73-.73-.73-1.31l-4.82-1.9-7.16-5.7h-.73l-13.15,15.34Zm68.37,3.07c-2.14,0-3.46-.88-3.94-2.63v-2.63l.88-.88-.88-.88c0-.68,.29-1.26,.88-1.75l-.88-4.38v-5.26l.88-.88-.88-.88v-3.51l.88-3.07-2.63-6.14-5.26,.88c-12.56-.19-18.85-.92-18.85-2.19v-1.75l1.75-1.75c.49,.58,1.07,.88,1.75,.88,0-1.17,2.34-2.05,7.01-2.63l.88,.88c.68,0,1.26-.29,1.75-.88,1.56-.19,2.78-.29,3.65-.29,1.36,0,2.04,.24,2.04,.73l2.63-.88,4.38,.88,.88-2.63-.88-11.83,.88-.88-.88-.88,.88-4.38v-8.77h.88c4.58,0,7.35,5.26,8.33,15.78l-.88,7.45c0,.58,.29,2.04,.88,4.38l-1.75,6.14,1.75,1.75h-.88c.58,.49,.88,1.07,.88,1.75l-1.75,4.38c.49,.58,1.07,.88,1.75,.88l-2.63,4.82,.88,.88c0,.58-.29,2.34-.88,5.26l.88,2.63c-.58,4.67-1.46,7.01-2.63,7.01l.88,.88v1.75l-2.63,2.63Z"/><path class="b" d="M136.61,157.98l-9.64-1.61-13.59,1.61-1.17-.73h-.58c-3.21,.49-5.41,.73-6.57,.73-.1-2.43-.34-4.87-.73-7.3l2.48-1.46h3.94l.88,.88,.58-.88h2.63l.73,.88,5.7-1.75,9.64,1.75c1.56,0,14.46-1.9,38.71-5.7v.88l15.34-3.36,2.19,8.77-2.19,2.63-12.86-2.63c-2.24,.88-3.36,1.75-3.36,2.63l-3.21-1.02-3.95,1.02-.88-1.02c0,1.46-2.44,2.83-7.3,4.09l-3.21-1.46-1.61,1.46-.88-.88-7.89,1.75v-.88l-3.21,1.61Zm-3.36-22.79l-.88-.73v-.88l-.88,.88c-7.6-.88-11.4-3.36-11.4-7.45l-3.94-17.09-.58-16.22,3.21-1.31,3.07-.15,.88,2.34-1.31,11.4,.44,8.18c.97,4.97,2.43,8.52,4.38,10.66l5.26-.15v.88c.49-.58,1.07-.88,1.75-.88l.73,.88,8.91-4.24,2.48,1.75c0-1.56,.58-2.34,1.75-2.34h2.34l.73-.88c.68,0,1.26,.29,1.75,.88,2.63-.58,4.24-.88,4.82-.88v.88l.88-.88h1.46l1.75,1.46h-.88c.58,.49,.88,1.07,.88,1.75l-.88,.73,.88,.88v1.46c-1.75,2.83-3.65,4.24-5.7,4.24l-.88-.88c-.58,0-3.56,.78-8.91,2.34l-5.7-2.34c0,.68,.29,1.27,.88,1.75v.58l-.88,.88h-1.61l-2.34-1.46-.88,.58,.88,.88v1.75l-2.48,.73Zm13.59,78.89c-.58-.49-.88-1.07-.88-1.75l-.88,.88c-8.18-.88-12.27-3.51-12.27-7.89l-4.38-18.41,2.63-21.04h1.75l1.75,1.75c0,.58-.29,3.51-.88,8.77l.88,.88c0,.58-.58,4.67-1.75,12.27l1.75,1.75-.88,2.63,.88,.88c0,.58-.29,2.05-.88,4.38,1.46,0,2.63,2.05,3.51,6.14l7.89-2.63v.88l.88-.88c.68,0,1.26,.29,1.75,.88l9.64-4.38,2.63,1.75c0-1.75,.58-2.63,1.75-2.63h2.63l.88-.88c.68,0,1.26,.29,1.75,.88,2.92-.58,4.68-.88,5.26-.88v.88l.88-.88h1.75l1.75,1.75h-.88l.88,.88c0,.68-.29,1.26-.88,1.75l.88,.88v1.75c-1.75,2.92-3.8,4.38-6.14,4.38l-.88-.88c-.58,0-3.8,.88-9.64,2.63l-6.14-1.75,.88,.88c0,.68-.29,1.26-.88,1.75h-4.38v1.75l-2.63,.88Zm17.09-87.07h-3.07l-1.75-1.46c0-.68,.29-1.26,.88-1.75,0-.49-.29-1.51-.88-3.07l4.24-2.63h1.46c.58,3.8,.88,6.28,.88,7.45l-1.75,1.46Zm18.41,78.3h-3.51l-1.75-1.75c0-.68,.29-1.27,.88-1.75,0-.58-.29-1.75-.88-3.51l4.38-2.63h1.75c.58,4.09,.88,6.72,.88,7.89l-1.75,1.75Z"/><path class="b" d="M240.18,192.6l-1.61-2.19-.88,1.17h-1.46c-1.17,0-2-3.46-2.48-10.37,2.24-14.9,3.36-26.78,3.36-35.65,0-3.12-.29-8.47-.88-16.07,1.17,0,1.95-5.02,2.34-15.05l.88-1.17c0-2.34,.53-3.51,1.61-3.51,4.19,1.95,6.28,3.51,6.28,4.67l-2.34,2.34,1.75,19.58h-.88l.88,1.02v1.31c-1.37,34.18-3.56,52.15-6.57,53.91Zm50.55-2.34c-9.16-12.27-14.75-18.41-16.8-18.41-6.72-6.43-15-11.49-24.83-15.19v-4.53c.88-4.58,2.72-6.87,5.55-6.87l8.91-4.53h.73l.88,1.02h.88c0-2.14,4.24-5.21,12.71-9.2,1.85-4.48,4.53-6.72,8.04-6.72l2.48,1.02c0-2.63,3.21-7.21,9.64-13.73l.58,1.02h.88c.58-2.43,3.02-6.23,7.3-11.39,4.97,1.46,7.65,3.36,8.04,5.7v2.48l-11.98,14.9c-1.66,0-2.48,1.17-2.48,3.51-11.49,10.23-23.81,17.82-36.96,22.79,.1,1.46,7.01,6.87,20.74,16.22,3.8,1.75,7.3,5.99,10.52,12.71v2.19c0,2.05-1.61,4.38-4.82,7.01Z"/><path class="b" d="M340.69,132.41l-3.07-2.19h-4.09l-1.17,1.02h-.88l-1.02-1.02v-.88l-3.94,1.9c0-2.05-1.41-3.07-4.24-3.07,0-2.73-1.02-4.09-3.07-4.09v-5.11c1.75-3.31,4.82-4.97,9.2-4.97,3.21,0,7.3,3.7,12.27,11.1v2.05c2.04,0,3.07,.73,3.07,2.19l-3.07,3.07Zm-4.09,65.01l-1.17-1.02v-.88l1.17-1.17h1.02l-1.02-1.02v-3.07l1.02-.88-3.07-5.11,2.04-12.27-2.04-1.9c0-.78,1.02-4.24,3.07-10.37l-1.02-1.02v-.88l1.02-1.17-1.02-3.94c0-4.77,2.04-8.57,6.14-11.4h3.07c-.78,10.23-1.17,16.36-1.17,18.41l-.88,1.17,2.04,16.22h-1.17l1.17,1.02c-.78,8.09-1.17,13.15-1.17,15.19l-1.9,2.19-1.17-1.17c0,1.17-1.66,2.19-4.97,3.07Z"/><path class="b" d="M358.66,192.6l-1.61-2.19-.88,1.17h-1.46c-1.17,0-2-3.46-2.48-10.37,2.24-14.9,3.36-26.78,3.36-35.65,0-3.12-.29-8.47-.88-16.07,1.17,0,1.95-5.02,2.34-15.05l.88-1.17c0-2.34,.53-3.51,1.61-3.51,4.19,1.95,6.28,3.51,6.28,4.67l-2.34,2.34,1.75,19.58h-.88l.88,1.02v1.31c-1.37,34.18-3.56,52.15-6.57,53.91Zm50.55-2.34c-9.16-12.27-14.75-18.41-16.8-18.41-6.72-6.43-15-11.49-24.83-15.19v-4.53c.88-4.58,2.72-6.87,5.55-6.87l8.91-4.53h.73l.88,1.02h.88c0-2.14,4.24-5.21,12.71-9.2,1.85-4.48,4.53-6.72,8.04-6.72l2.48,1.02c0-2.63,3.21-7.21,9.64-13.73l.58,1.02h.88c.58-2.43,3.02-6.23,7.3-11.39,4.97,1.46,7.65,3.36,8.04,5.7v2.48l-11.98,14.9c-1.66,0-2.48,1.17-2.48,3.51-11.49,10.23-23.81,17.82-36.96,22.79,.1,1.46,7.01,6.87,20.74,16.22,3.8,1.75,7.3,5.99,10.52,12.71v2.19c0,2.05-1.61,4.38-4.82,7.01Z"/><path class="b" d="M459.17,132.41l-3.07-2.19h-4.09l-1.17,1.02h-.88l-1.02-1.02v-.88l-3.94,1.9c0-2.05-1.41-3.07-4.24-3.07,0-2.73-1.02-4.09-3.07-4.09v-5.11c1.75-3.31,4.82-4.97,9.2-4.97,3.21,0,7.3,3.7,12.27,11.1v2.05c2.04,0,3.07,.73,3.07,2.19l-3.07,3.07Zm-4.09,65.01l-1.17-1.02v-.88l1.17-1.17h1.02l-1.02-1.02v-3.07l1.02-.88-3.07-5.11,2.04-12.27-2.04-1.9c0-.78,1.02-4.24,3.07-10.37l-1.02-1.02v-.88l1.02-1.17-1.02-3.94c0-4.77,2.04-8.57,6.14-11.4h3.07c-.78,10.23-1.17,16.36-1.17,18.41l-.88,1.17,2.04,16.22h-1.17l1.17,1.02c-.78,8.09-1.17,13.15-1.17,15.19l-1.9,2.19-1.17-1.17c0,1.17-1.66,2.19-4.97,3.07Z"/><path class="b" d="M545.07,175.66h-.73c-9.16,0-16.65-3.8-22.5-11.4l-2.78-9.2c-.2-1.56-.29-3.02-.29-4.38,0-7.01,2.29-10.96,6.87-11.83l1.32,1.75c-2.34,3.21-3.6,5.99-3.8,8.33l1.32,8.18c2.04,5.65,5.84,9.59,11.39,11.83l7.45,1.75,5.7-2.19c-.39-.39-.58-.83-.58-1.31,1.46-4.38,2.63-6.57,3.51-6.57v-8.18l.88-6.72-.88-.73,.88-.58v-1.31c0-10.52-3.56-15.78-10.66-15.78-1.07,0-2.29,.15-3.65,.44-5.94,.29-10.62,3.41-14.02,9.35l-2.63,.44-.44-1.9c2.53-7.5,8.62-11.74,18.26-12.71h4.97c6.33,1.27,9.5,3.31,9.5,6.14l-.73,.58c1.17,0,2.87,1.75,5.11,5.26l.58,.73c-.39,.39-.58,.83-.58,1.31l2.19,3.51v1.17c0,2.44-.24,4.43-.73,5.99,0,2.44-.2,4.87-.58,7.3-1.07,1.27-1.9,2.63-2.48,4.09v3.51l-.58,1.31c0,.49-.15,1.75-.44,3.8l-.88,1.46c-1.66,3.12-4.97,5.31-9.93,6.57Zm38.57,6.87c-2.63,0-4.14-.88-4.53-2.63v-2.63l.88-.88-.88-.88c0-.68,.29-1.26,.88-1.75l-.88-4.38v-5.26l.88-.88-.88-.88v-7.89l.88-3.07-2.63-6.14-5.26,.88c-7.3-.19-10.96-.92-10.96-2.19v-1.75l1.75-1.75c.49,.58,1.07,.88,1.75,.88,0-1.17,.88-2.05,2.63-2.63l.88,.88c.68,0,1.26-.29,1.75-.88,.58-.19,1.07-.29,1.46-.29,.49,0,.73,.24,.73,.73l2.63-.88,4.38,.88,.88-2.63-.88-11.83,.88-.88-.88-.88,.88-4.38v-8.77h.88c4.97,0,7.94,5.26,8.91,15.78l-.88,7.45c0,.58,.29,2.05,.88,4.38l-1.75,6.14,1.75,1.75h-.88c.58,.49,.88,1.07,.88,1.75l-1.75,4.38c.49,.58,1.07,.88,1.75,.88l-2.63,9.2,.88,.88c0,.58-.29,2.34-.88,5.26l.88,2.63c-.58,4.67-1.46,7.01-2.63,7.01l.88,.88v1.75l-2.63,2.63Zm19.14,12.71c-4.97-.49-7.55-1.22-7.74-2.19v-1.75c1.36-9.54,3.55-18.55,6.57-27.03l-.88-4.09c1.75-18.89,2.63-32.38,2.63-40.47v-7.3l2.19-2.63h3.8c3.41,0,5.31,.73,5.7,2.19v2.63c0,1.56-1.12,2.34-3.36,2.34l.29,2.63-2.48,6.87,1.75-.29-.88,.88c0,.68,.29,1.27,.88,1.75v.73l-1.46,3.65,.88,.44v1.75l-.88,1.17,2.19,9.79c-1.07,.2-1.61,2.14-1.61,5.84v1.02h-.88l.88,.88,.29,4.09-1.61,2.63,.88,3.36-3.94,8.33,.29,5.84c-.88,6.72-1.85,10.08-2.92,10.08l.88,.88v3.51l-1.46,2.48Z"/><path class="b" d="M651.13,188.22c-3.8,0-7.4-.15-10.81-.44l-.73-1.17c-.58,0-2.68,.24-6.28,.73l-8.62-1.61c-2.24-3.02-3.36-5.6-3.36-7.74l.15-1.17c2.34,.39,4.97,.58,7.89,.58l4.09,1.61,9.64,.88,20.16-.44,1.32-2.48-.44-2.78,2.19-7.45-.44-8.18c1.07-2.43,2.53-3.65,4.38-3.65l.88,.15c1.36,2.34,2.24,7.26,2.63,14.75-1.46,4.97-2.24,7.74-2.34,8.33l4.09-.73,2.48,1.31,.15-.88,.73,1.17,.88,.15c1.95-1.07,3.75-1.61,5.41-1.61l1.17,.15,.58,.88,.88,.15,2.05-1.31h.88l.58,1.17,.88,.15c.29-1.75,1.75-2.97,4.38-3.65l1.61,.15,1.02,4.67-.15,.88c-.29,3.31-5.21,4.97-14.75,4.97-12.47,1.66-23.52,2.48-33.16,2.48Zm14.17-33.16h-.88c-9.16,0-16.61-3.21-22.35-9.64l-2.92-7.89-.29-3.51c0-5.94,2.29-9.3,6.87-10.08l1.31,1.31c-2.34,2.83-3.56,5.26-3.65,7.3l1.32,6.72c2.04,4.87,5.84,8.23,11.39,10.08l7.45,1.61,5.7-2.05c-.49-.19-.73-.53-.73-1.02,1.46-3.8,2.63-5.7,3.51-5.7v-6.87l.88-5.7-.88-.44,.88-.58v-1.17c0-8.96-3.6-13.44-10.81-13.44-7.99,0-13.78,2.83-17.38,8.47l-2.63,.15-.44-1.46c2.43-6.33,8.47-9.93,18.12-10.81h5.11c6.23,1.17,9.35,2.87,9.35,5.11l-.58,.58c1.17,0,2.82,1.56,4.97,4.67l.73,.44-.73,.58v.44l2.19,2.92,.15,1.75c0,1.66-.24,3.17-.73,4.53,0,2.05-.24,4.04-.73,5.99-.97,1.07-1.75,2.29-2.34,3.65v2.92l-.73,1.02c0,.49-.15,1.61-.44,3.36l-.88,1.31c-1.56,2.44-4.82,4.24-9.79,5.41Zm-17.82,30.68l-6.57-.88-.58-1.9,.44-14.32-1.17-.44-.15-1.46c0-3.31,1.66-5.31,4.97-5.99l2.48,1.75,.15,3.51c0,2.63-.34,4.38-1.02,5.26l1.31,.29c.78,4.77,1.17,8.33,1.17,10.66s-.34,3.41-1.02,3.51Z"/><path class="b" d="M713.36,176.09c-3.8,0-6.14-1.46-7.01-4.38l.88-.88c0-.58-.58-3.51-1.75-8.77,.58-.49,.88-1.07,.88-1.75-1.75,0-2.92-3.51-3.51-10.52h.88l-.88-2.63,.88-9.64-.88-12.27,.88-7.01-1.75-9.64,1.75-1.75c3.99,1.56,6.33,3.31,7.01,5.26,0,.68-.29,1.27-.88,1.75l.88,.88c0,2.34-.29,5.26-.88,8.77l.88,3.51h-.88c1.17,8.77,2.34,13.73,3.51,14.9-.49,.58-1.07,.88-1.75,.88l1.75,3.51-1.75,5.26,3.51,10.52-.88,.88c.49,.58,1.07,.88,1.75,.88-.58,.49-.88,1.07-.88,1.75l1.75,2.63c0,.68-.29,1.27-.88,1.75l.88,.88v1.75c-.58,0-1.75-.29-3.51-.88v4.38Zm2.63,31.56h-.88c-1.27,0-2.14-2.05-2.63-6.14h.88c-.58-2.34-1.75-3.51-3.51-3.51v-.88c4.09-5.84,7.01-8.77,8.77-8.77,3.51,0,5.26,4.09,5.26,12.27-2.04,4.67-4.67,7.01-7.89,7.01Z"/></svg>