<?xml version="1.0" encoding="UTF-8"?><svg id="a" xmlns="http://www.w3.org/2000/svg" viewBox="0 0 833.42 208.48"><defs><style>.b{fill:#7f00ac;}.c{fill:#8f21c9;}.d{fill:#63008c;}.e{fill:#77219b;}</style></defs><g><path class="d" d="M-256.12,58.74s47.24,24.97,95.54,2.1,123.07-1.61,123.17,44.88c.1,46.49,113.31-32.47,219.96,16.62,0,0,95.83,48.53,150.34,32.29,122.73-36.58,18-19.06,209.92-14.71,191.92,4.34,131.42-68.9,256.65-60.81,0,0,39.3,1.44,39.07,24.51-.23,23.07-1.51,67.72-1.51,67.72l-1096.65,18.87,3.5-131.46Z"/><g><path class="e" d="M200.12,184.53c-1.65,.06-2.34,.18-2.42,.29,1.53-.1,2.79-.19,2.42-.29Z"/><path class="e" d="M237.18,185.17c-.8-.01-1.46-.03-2.18-.04,.83,.09,1.67,.14,2.18,.04Z"/><path class="e" d="M304.99,185.26h-.3c-1.78,.13-.77,.09,.3,0Z"/><path class="e" d="M828.61,82.37c1.61,1.15,1.65,1.42,1.02,1.22-.64-.17-1.96-.78-3.2-1.2-.61-.23-1.21-.4-1.67-.53-.46-.12-.79-.18-.89-.12-.1,.05,.04,.21,.5,.53,.23,.16,.54,.35,.95,.59,.4,.25,.9,.56,1.49,.93-.38-.41,2.07,.39,3.6,.95,.77,.25,1.33,.38,1.21,.06-.06-.16-.3-.42-.77-.83-.24-.2-.53-.45-.9-.72-.37-.26-.81-.55-1.33-.88Z"/><path class="e" d="M826.8,83.79h0c.33,.2,.65,.42,.97,.63-.4-.27-.62-.43-.97-.63Z"/><path class="e" d="M461.17,181.98c-.32-.17-.95-.29-1.6-.4,.06,.1,.42,.22,1.6,.4Z"/><path class="e" d="M344.79,182.59l2.88,.08c-1.14-.07-2.07-.08-2.88-.08Z"/><path class="e" d="M521.56,179.56c1.57,.05,2.1,.17,4.24,0-.2-.05-.4-.08-.65-.11-.77,.15-1.8,.23-3.58,.1Z"/><path class="e" d="M584.44,178.47c-.33-.07-.78-.12-1.16-.18-.62,.03-1.35,.06-1.99,.09l3.16,.09Z"/><path class="e" d="M523.98,171.78l9.99-.03c-2.79-.05-6.43-.03-9.99,.03Z"/><path class="e" d="M417.3,136.28c-.75-.03-1.48-.04-2.22-.07,.85,.09,1.63,.12,2.22,.07Z"/><path class="e" d="M563.62,171.09c1.79,.32,3.68,.48,5.64,.58,.41-.08,.88-.15,1.16-.27l-6.79-.31Z"/><path class="e" d="M-60.25,74.1c.87,.65,1.54,1.22,2.12,1.63,.55,.44,.99,.75,1.34,.97,.7,.45,1.02,.53,1.23,.43,.4-.18,.23-1.04,1.18-.66,1.98,1.78,3.06,3.02,3.65,3.84,.59,.82,.72,1.22,.68,1.47-.08,.5-.77,.41,.03,1.98,2,2.45,3.71,4.68,5.09,6.93,1.37,2.24,2.4,4.5,2.9,6.85-.12,.4,0,1.31-.5,.31,.6,1.59,1.07,3.66,1.26,6,.03,.59,.06,1.19,.09,1.8,.01,.38,.03,.76,.04,1.14,.02,.39,.05,.79,.08,1.19,.14,1.6,.43,3.29,1,5,.27,.85,.65,1.7,1.08,2.53,.44,.83,.96,1.62,1.56,2.36,1.2,1.47,2.68,2.68,4.2,3.5,1.52,.84,3.05,1.37,4.48,1.69,1.43,.32,2.77,.45,3.98,.47,.69,.2,1.03,.36,1.2,.47-1.47-.82-1.57-1.53-1.2-1.94,2.22,.32,4.28,.2,5.96,.11,1.68-.09,3.01-.13,3.85,.24-2.67,.1-2.89,.4-4.16,.67,1.55-.1,3.08-.27,4.59-.48,2.09,.46,.55,.7-1.55,.85-2.09,.16-4.76,.1-4.79,.53,4.66,0,9.46-.77,13.92-1.58,4.46-.82,8.61-1.69,11.94-2.11,.8,.46-3.05,1.25-6.01,1.79-1.47,.27-2.72,.49-3.03,.63-.31,.13,.32,.21,2.6,.13-3.48,.38-6.99,.7-10.53,.85,2.07,.29,2.7,.43,2.6,.55-.1,.12-.92,.19-1.78,.26-.85,.07-1.73,.13-1.91,.27-.18,.13,.33,.36,2.26,.69,3.54-.25,6.24-.63,8.54-1.01,2.3-.38,4.19-.77,6.08-1.17,3.77-.8,7.5-1.65,14.21-2.77,2.88-1.23-1.18-.76,1.7-1.99,9.36-2.42,13.21-2.39,16.43-2.27,3.22,.12,5.78,.29,12.59-1.63,1.73-.68,2.89-1.44,4.88-2.13,1.98-.67,4.8-1.29,9.82-1.53l-3.21,1.77c6.47-.8,8.26-1.45,10.15-2.05,1.88-.57,3.87-1.13,10.72-1.2-1.19,.35-3.73,.67-5.73,.92-2,.25-3.45,.42-2.46,.4,4.45,.09,5.98-.2,7.26-.63,1.28-.42,2.29-.96,5.69-1.16l1.47,1.11c6.89-.45,14.14-.84,21.59-.85,7.44-.02,15.09,.34,22.68,1.31-.89,.23-3.52,.24-.04,1.09,9.55,1.05,19.61,3.27,29.21,6.52,4.8,1.62,9.5,3.48,13.98,5.51,1.13,.5,2.23,1.03,3.33,1.55,.54,.27,1.09,.54,1.63,.8l.8,.4c.06,.03,.02,.01,.07,.04l.21,.12,.42,.23c2.22,1.19,4.39,2.31,6.52,3.4,2.35,.72,4.71,1.41,7.07,2.08,1.54,.69,2.69,1.69,.93,1.13,6.67,3.32,.61-.44,4.05,.61,3.91,1.59,4.91,2.71,2.32,1.96,6.21,2.15,15.04,5.19,23.99,8.14,8.94,2.97,17.99,5.85,24.5,8.24l-2.68-.45c5.13,1.7,8.22,1.96,11.18,2.24,2.97,.28,5.8,.58,10.59,2.09l-1.91-.23c11.38,2.74,23.67,4.49,35.42,4.86,5.87,.2,11.6,.02,17.01-.47,2.7-.25,5.32-.59,7.84-.99,.63-.09,1.25-.22,1.87-.33,.62-.11,1.23-.2,1.83-.34,1.18-.24,2.34-.48,3.46-.72,1.4-1.2,6.94-2.67,12.23-4.21,2.64-.77,5.23-1.53,7.2-2.26,1.97-.74,3.33-1.43,3.53-2.04,6.47-1.5,8.82-1.92,11.81-2.56,2.98-.65,6.61-1.55,15.55-4.18,4.74-1.47,6.61-3.6,12.31-5.57l.45,.99c2.47-1.1,4.9-2.14,7.37-2.89,.7,.14,1.39,.26,2.07,.41,.68,.18,1.35,.35,2.01,.54,1.72-.11,3.5-.14,5.35-.09-.28-.03-.55-.07-.83-.11-.27-.03-.54-.07-.8-.11-.52-.08-1.01-.17-1.43-.27-.82-.17-1.33-.34-1.17-.5,1.03-.08,2.18-.03,3.33,0,1.18,.08,2.37,.17,3.59,.33,2.42,.29,4.86,.69,7.02,1.08,4.33,.8,7.58,1.59,7.66,1.88,7.13,.45,14.27,.78,21.4,1.05-.51,.4-4.09,.24-6.94,.28,11.48-.15,1.98,1.33,12.5,1.12-1.38-.35,.8-.58,1.05-.78,2.58,.53,6.83,.95,11.53,1.31,4.7,.31,9.86,.56,14.25,.63l-1.72,.66c15.83,1.01,33.39,1.09,51.14,1.55-6.36-.51-4.86-1.76,.35-1.75l2.05,1.19c3.38-.62-5.43-.57,1.49-1.25,3.31,.16,4.42,.49,4.23,.84-.2,.35-1.71,.71-3.61,.84,2.69-.05,5.4-.15,8.09-.24,.47,.35-1.43,.49-1.93,.92,1.67-.33,5.16,.04,8.84,.26,1.84,.12,3.73,.23,5.46,.21,1.73-.02,3.3-.15,4.5-.47l.46,.33c8.94-.11,15.44-.42,21.52-.84,6.08-.4,11.75-.92,19.02-1.64,.09-.5,1.57-.84,3.55-1.21,1.98-.38,4.46-.84,6.57-1.49,5.33-.55,10.98-1.13,16.88-2.03,5.9-.91,12.05-2.15,18.33-3.99,2.17-.77,3.4-1.27,4.08-1.59,.68-.33,.81-.49,.8-.6-.03-.22-.66-.26,1.2-1.18,.23,.16,1.18,.03,2.36-.25,1.18-.29,2.61-.69,3.82-1.05,2.4-.74,3.93-1.18,.87,.34,7.34-2.9,11.88-5.14,16.74-7.84,4.84-2.72,10.02-5.97,17.89-11.84-1.95,.91-4.04,2.1-3.18,1.16,2.87-2.1,6.85-4.28,6.68-3.63l-.71,.61c4.29-3.41,9.02-6.83,14.06-9.86,5.03-3.05,10.41-5.62,15.82-7.59,5.42-1.95,10.85-3.34,15.97-4.39,5.11-1.06,9.9-1.85,14.04-2.77l-.93,.19c5.75-.97,11.61-1.6,17.52-2,8.15,.13-4.87,.69,1.15,1.22,1.19-.1,2.35-.18,3.48-.25,1.13-.05,2.24-.09,3.32-.12,2.16-.08,4.23-.02,6.22,0,1.99,.05,3.94,.17,5.81,.28,.97,.06,1.79,.1,2.66,.19,.87,.08,1.73,.19,2.59,.3,3.42,.47,6.72,1.13,10.01,1.96,1.65,.42,3.3,.88,4.96,1.41,.84,.25,1.66,.55,2.5,.84,.82,.32,1.68,.61,2.51,.97,1.13,.9,2.41,1.94,3.74,3.09,1.32,1.16,2.66,2.48,3.72,4,1.07,1.52,1.85,3.21,2.23,5.15,.04,.25,.08,.49,.12,.74,.04,.25,.1,.49,.09,.76,.01,.26,.03,.52,.04,.78l.03,.39c0,.06,0,.15,0,.24v.26c0,1.41,0,2.83,0,4.27,0,11.48,0,23.54-1.03,31.85l.64-.95c.5,4.32-.48,5.21-.7,8.38,.49-.44,.67-4.66,.95-1.98-.02,4.57-.08,9.17-.18,13.8-.05,2.2-.11,4.4-.16,6.61l-.04,1.02v.25l-.02,.13s-.02,.02-.04,.02h-1.77c-1.17,0-2.35,.01-3.53,.02-2.35,.01-4.71,.02-7.07,.03-4.72,0-9.46,0-14.21-.01-18.98-.06-38.08-.29-56.82-.25-13.71,.07-7.72,3.35-25.02,2.16l4.88-1.24c-27.63,1.86-56.55,.93-83.6,2.56,1.61-.29,1.65-.64,4.29-.68-5.73-.74-21.15,.32-21.23,1.01-4.22,0-.99-.6-3.59-.9-5.74-.4-14.38,1.32-17.44,.54-.52-.13,1.61-.3,2.66-.38-3.73,.47-17.42,.2-13.82,1.1-10.17-.29-19.43,.76-27.55,.33-5.27,1.17-17.4-.22-19.06,1.34,.7-1.59-17.84-.97-24.25-.11,2.14-.51-5.59-.4-3.09-1.1-7.33,.15-14.05,.56-12.75,1.35-13.54-1.66-27.13,1.99-34.77-.3-21.77,1.22-41.91,2.14-61.5,2.85,.68-1.59,21.65-.53,20.79-2.17-18.58,.97-29.27,2.5-47.71,2.44-4.78-.13,2.7-.73,4.3-1.03-18.56,.97-35.91,.47-52.41,1.62,.04-.15,1.82-.34,3.51-.49-3.26,.11-7.58-.1-7.2,.61l3.17-.25c5.22,.95-12.89,2.39-13.47,2.95,5.49-2.15-16.33-.23-7.59-2.98-2.14,.17-4.82,.56-4.32,1.03-3.18-.08-4.2-.35-.98-.95-11.66,.59-7.5,1.28-18.07,1.45,.03-.35,2.16-.52,3.25-.94-5.34,.77-10.7,1.54-19.64,1.4,.53-.22-.51-.47,2.16-.51-15.34,.37-26.11,2.25-42.95,1.89,4.94-1.59-5.73-.4-6.65-1.68l-9.04,.54,3.64,.57c-7.93,.11-14.91,1.18-21.73,.87l5.88-.64-14.85,.5,8.41,.35c-8.01,.81,.89,1.63-9.67,1.45,2.14-.17-7.93,.12-12.07-.58h.03c-3.91,.48-7.94,.98-13.81,.76-1.53-.39,1.2-1.46,.2-1.72-3.85,1.15-18.56,.62-23.43,1.87,1.63-.3,1.7-.99,1.16-1.12l-3.23,.94c-3.68-.22-4.22-.35-3.63-.9-11.05,.03,3.54,1.59-9.58,1.11,1.03-.09,.53-.21,2.67-.38-13.17-.14-25.42,1-37.53,.77-3.59-1.25,10.56-.5,6.46-1.54-17.44,.54-36.09,2.19-52.97,2.17l3.15,.09c-2.31,1.89-12.58-.7-21.1,.32,2.09-.17,2.72-1.07,2.16-.86-11.56-.1-23.62,.86-41.13,1.74l2.16-.51c-6.82-.31-17.94,.06-25.3-.03-2.18,.51-6.38,.51-3.82,1.15-22.73-2.32-43.25,2.2-63.42,.29,2.41-.05,5.73-.51,3.81-.48l-17.14,.73c1.37,.78,2.26,.45,5.87,1.01-2.16,.52-6.99,.97-11.24,1.04,7.7-.67-.09-1.29-3.43-1.69,.56,.24-.57,.53-.29,.78-8.98-1.28-1.47,1.65-13.72,.89l.64-.43c-4.57,.3-8.78,.93-13.72,.89-2.06-.9,4.86-.52,5.17-1.29-6.93,.17-13.65,2-19.94,1.18,2.94-.31,7.17-.39,10.11-.7-6.85-.98-7.64-.69-12.72-.77l.5,.02-11.74-.29,2.99,.25c-8.63,2.58-17.66,.75-29.31,2.54,11.33-1.7,1.86-.9,2.71-1.98-2.99-.24-7.53-.49-6.24-.81-5.51,.95-9.23-.51-17,.87-.35-.33-5.91,.07-4.68-.81-7.18,.39,1.71,.56,1.11,1-4.25,.52-9.07,.5-14.31,.38-2.62-.06-5.34-.13-8.14-.19-1.16-.02-2.33-.04-3.53-.06-.74-.01-1.46-.02-2.23,0,.01-.89,0-1.77-.06-2.74v-.18l-.02-.09v-.16l-.02-.68c-.02-.46-.04-.91-.05-1.37-.04-.92-.1-1.84-.16-2.76-.29-13.74-1.37-16.31-1.6-29.06,.66-4.28,1.15,3.55,1.15,3.55,.69-6.92,.73-12.14,.52-18.69,.26,1.33,.55-.03,.98-2.01,.05-5.25-1.15-3.54-.46-10.44,.35,1.2,.91,2.74,1.23,5.27-.15-6.19-.62-12.31-.76-18.72,.64-1.68,.8,3.89,1.12,6.15-.08-7.2-.04-18.65-.92-20.89l-.46,4.6c.02-2.62,.84-1.33,.96,.61,.57,6.18-.56,8.88-.91,9.22l-.1-4.56c-2.12,4.63-.17,18.31-.53,27.48l-1.35-3.86,.95,9.44c-.43,1.99-1.28,3.34-1.37-1.2-.89,6.56,.36,5.83-.59,11.46-.14,.62-.2,.34-.25-.24l.26,6.44c-.27-1.27-1.05,1.04-.74-2.9-1.14,11.51,.59,18.63-.62,22.94l-.06-.97c.03,8.01,.29,8.4,.65,8.3,.18-.05,.39-.23,.61,.36,.11,.29,.22,.78,.34,1.57,.03,.2,.06,.41,.09,.65,.03,.22,.06,.47,.09,.73,.05,.47,.11,1.02,.18,1.66-.42,1.17-.84,2.58-1.28,4.24,1.09,.47,2.57,.93,4.43,1.39,.76-.37,1.47-.74,2-1.1,1.65,0,4.92,.03,4.32,.47,6.13-.83-1.06-.45,2.5-1.19,7.96,.83,21.9-.83,23.72,.83,2.84-.86-7.61-.49,.86-1.2,2.45,1.78,9.8-.48,17.08,.23-2.21,.98-9.1,.6-1.82,1.32,4.35-1.67,14.14,.11,20.26-.3,.27-1.27,13.31-.76,23.57-1.36-.64,.44,19.35,.36,28.91,.66l-.28,.22c1.83-1.31,11.69-1.24,18.87-1.63-.27,.77-1.56,1.1-5.44,1.51l6.75-.12c1.59-.44,3.69-.69,8.06-.91l-1.68,.99c8.98-.21,18.07-1.44,29.64-1,.63-.9-9.24-2.33,2.98-3.14,.46,.48,.93,1.29-2.27,1.55,1.05-.08,3.73-.47,5.84-.3l-4.87,.9c5.27,.27,2.74-.73,6.95-.72-.07,.69,3.12,.44,2.53,.99-1.07,.09-3.68-.22-5.28,.08,4.75,.04,10.49,.35,12.4,.84-.42-.38-.02-.93,3.46-1.08,8.98-.2,3.09,.78,8.33,1.04,2.17-.52,7.91-.12,8.04-1.15,2.63-.04,3.12,.43,4.14,.69,4.64-.53,21.71-.5,16.45-1.51l-1.19-.05c.22-.03,.49-.03,.76-.06h0c15.22-1.29,31.67,.04,46.78-.66l-.02,.35c9.02-.55,20.08-.58,26.52-1.43,2.67-.04,6.31,.52,5.18,.95,6.89-.38,7.66-.78,17.64-.38-6.93,.72,2.4,.49-7.1,.56,8.97,.14,11.01,.66,20.62-.45-3.26,.94,6.77,1,11.03,.66l-6.29-.52c4.79-.21,8.98-.2,13.24-.2l-2.28,1.2c18.37,1.1,33.04-2.97,47.05-.85,4.84-.9-9.97-.4-5.65-1.42,8.44,.01,17.26,1.53,19.9,1.48,11.57,.44,10.76-1.88,22.86-1.65-1.55-.39-3.03-1.47,6-2.01,8.45,0,10.41,1.56,5.08,1.98-2.02,.07-3-.05-2.92-.19-2.73,.2-6.3,.44-2.95,.83l1.09-.43c4.2,.35,15.81,.11,13.1,.83,6.37-.5,2.72-.73-2.01-.86,10.84,.41,16.92-.27,28.08-.06-1.78-.2-3.42-.66-1.65-.68,16.36,.23,7.19-.91,18.26-1.28,6.31,.52-2.23,1.55,8.91,.82,6.82,.31,1.46,1.07-1.24,1.46,10.15-.97,19,.2,24.8,.24l-5.35,.43c3.2-.25,5.82-.29,8.49-.34l-3.07-.78c3.14,.09,5.81,.05,5.75,.39,3.23-.6-2.5-1.33,3.91-2.19,4.2,.35,12.75-.67,14.22,.4-13.18-.15,1.47,1.08-9.68,1.45,2.15-.17,4.77-.21,7.93-.12,.47,.11-.44,.24-1.3,.31,12.63,.77,5.77-1.34,18.84-1.54-1.65,.65,3.05,1.12,5.18,.95-5.27,.08-2.54-.99,2.29-1.55,8.39,.34,9.1-.52,13.49-.53l-5.01-.14c1.69-.65,5.88-.64,11.72-.94,.51,.47-5.3,.42-3.21,.6,6.47-1.2,14.67,.87,23.7-.01,4.2,.35,.43,1.16,4.11,1.38,10.12-.98,10.99,.66,21.63-.19-3.08-.78-3.62-.57,3.87-1.51l-17.5,.89,11.22-1.4c-5.29,.08-11.14,.71-14.31,.63,5.34-.77,4.8-.55,2.25-1.2,7.25,1.12,14.33-.97,22.7-.27l-.22,2.06c12.58,.7,22.31-1.44,38.64-1.2l-5.25-.27c2.17-.86,10.07-.29,15.35-.71-.48,.7,2.83,.89,5.09,1.28-.28-.51,11.95-.16,13.41-1.56l7.3,.78c13.18,.14,15.01-2.22,27.68-2.2-3.8,.81,1.96,1.2-6.51,1.88,4.23-.07,8.03,0,8.09-.48,2.48,.39,11.71-1.13,15.61-.54,1.78-.33,2.35-1.06,7.1-1.09,.52,.13-.01,.34-.01,.34,.01-.34,7.43-.59,3.26-1.28,13.06,1.92,36.41-.78,47.79,.87,9.23-.39,20.34-.8,28.72-1-.53,.22-.02,.34-1.61,.3,11.57,.44,7.07-2.1,20.24-1.61,6.74,1-6.97,.72-2.78,1.07,1.86,2.24,15.87-.58,24.74,.59l-2.14,.17c6.78,.65,16.49-1.14,27.55-1.17,0,0-.53,.21-.06,.34,7.54-1.29,21.85-1.91,32.47-2.42-3.29,.94-4.82,.55-2.79,1.42,4.76-.21-1.42-1.42,8.09-1.84,3.1,.43,9.97,.74,10.9,1.68l-8.97,.21c4.62,1.17,11.62-.24,16.35-.11l-.6,.55c13.75-.41,13.92-1.79,28.71-1.94l-1.54-.39c8.05-1.5,6.79,.65,14.83-.5l2.46,1.34c5.33-.42,18.65-1.65,28.21-2.08-5.4,1.11-16.58,1.83-23.49,2.55,5.29-.08,17.96-.41,20.7-1.14-2.13,.17-4.8,.55-6.91,.38,6.46-1.19,14.98-1.87,25.52-2.03-.46,.68,1.03,1.03,3.64,1.2,1.3,.09,2.89,.13,4.65,.15,.44,0,.89,0,1.35,.01,.66,0,1.33,0,2.01,0,1.42-.01,2.88-.02,4.37-.04h1.13l.57-.02c.07,.02,.04-.05,.05-.09v-.14l.02-.28c.03-.75,.05-1.51,.08-2.27,.06-1.53,.11-3.06,.17-4.58,.05-1.1,.1-2.18,.15-3.25,.06-1,.11-1.98,.17-2.93,.25-3.79,.6-7.05,1.16-8.94-.26-9.33,.07-18.57,.48-28.2,.2-4.81,.42-9.73,.59-14.8,.04-1.27,.07-2.55,.11-3.84l.02-.97c-.01-.39-.02-.78-.03-1.17-.02-.39-.03-.79-.05-1.18,0-.39-.1-.79-.15-1.19-.42-3.18-1.66-6.41-3.58-9.11,.22,.56,.4,1.02,.52,1.4,.1,.39,.17,.7,.2,.92,.07,.45,.03,.58-.09,.5-.12-.08-.32-.38-.57-.8-.06-.11-.13-.22-.2-.34-.08-.11-.16-.24-.25-.36-.18-.25-.36-.53-.56-.81-.38-.59-.88-1.14-1.35-1.68-.46-.55-.99-.98-1.44-1.34-.23-.18-.44-.33-.63-.44-.2-.11-.38-.17-.53-.2-.3-.06-.5,.04-.54,.36-1.04-.89-1.99-1.52-2.77-2.07-.81-.5-1.45-.93-1.99-1.24-1.07-.61-1.59-.96-1.78-1.12-4.59-2.83-9.61-4.78-14.72-6.29-1.79-.67-.54-.56,1.12-.3,.41,.07,.85,.14,1.28,.21,.42,.08,.83,.15,1.18,.21,.7,.11,1.17,.16,1.08,0-2.83-.8-4.54-1.19-5.63-1.52-1.09-.3-1.55-.51-1.89-.71-.68-.37-.85-.8-4.68-1.56,.75,.48-.29,.6-2.36,.56-1.02-.03-2.41-.06-3.73-.13-1.37-.07-2.89-.19-4.46-.35l4.43,.74,2.28,.37c.78,.14,1.55,.28,2.32,.44-1.02-.03-1.96-.05-2.86-.06-.89,0-1.63-.02-2.37-.05-1.46-.05-2.7-.14-3.81-.25-2.24-.18-3.93-.47-5.63-.76-3.39-.49-6.84-1.11-14.8-.3,1.67-.26,3.35-.55,5.03-.79-4.09,.25-11.66,.46-19.2,1.51-3.77,.53-7.52,1.25-10.78,2.11-.82,.21-1.6,.46-2.35,.68-.75,.23-1.46,.45-2.12,.7-1.33,.5-2.49,.95-3.4,1.46-1.47,.17-3.52,.15-.03-1.02-4.83,1.27-9.82,3.13-14.63,5.48-2.4,1.18-4.76,2.47-7.05,3.84-2.28,1.38-4.51,2.81-6.64,4.28-4.28,2.93-8.24,5.93-11.97,8.6-3.72,2.67-7.22,5.02-10.42,6.79l.9-1.22c-2.83,2.05-4.58,4.16-8.61,5.91,.09-.3,.94-1.16-.46-.37-.75,.53-2.64,1.88-4.9,3.26-1.14,.69-2.37,1.38-3.58,2.01-1.23,.61-2.42,1.19-3.51,1.58,1.12-.7,2.21-1.47,3.3-2.19-4.14,1.83-7.81,3.38-11.22,4.79-.43,.18-.85,.36-1.26,.54-.42,.17-.84,.34-1.25,.5-.82,.34-1.63,.67-2.43,1-.8,.32-1.59,.64-2.38,.95-.39,.16-.78,.32-1.17,.48-.39,.15-.78,.3-1.17,.45-6.19,2.4-12.18,4.54-19.74,6.22-.06-.38-1-.51-2.5-.52-1.49,0-3.52,.17-5.77,.33-2.25,.2-4.72,.42-7.09,.64-.59,.06-1.17,.11-1.74,.17-.57,.05-1.13,.09-1.67,.14-1.08,.09-2.1,.18-2.99,.25l.22-.25c-2.66,.28-5.22,.55-7.7,.81-2.49,.25-4.9,.49-7.25,.72-2.36,.23-4.66,.45-6.93,.67-2.27,.21-4.51,.42-6.74,.62-8.91,.8-17.68,1.44-27.69,1.69-3.1-.41-7.28-.76-12.12-1-4.85-.28-10.36-.49-16.11-.68-5.74-.23-11.73-.43-17.52-.71-2.89-.15-5.74-.31-8.49-.49-1.37-.09-2.72-.19-4.04-.28-1.32-.12-2.6-.23-3.85-.34,3.04,.43-.55,1.17-4.12,1.15-4.68-.51-13.03,.36-12.2-1l1.67,.12c-1.73-.79-5-1.22-8.78-1.56-1.89-.17-3.9-.3-5.92-.42-2.01-.14-4.02-.29-5.89-.42l-1.38,1.75c-4.86-1.04-10.49-1.8-16.38-2.44-5.89-.64-12.01-1.2-17.94-1.7-2.98-.23-5.9-.48-8.82-.53-2.91-.07-5.81,.09-8.43,.47-1.29,.23-2.54,.41-3.67,.67-.57,.12-1.13,.23-1.67,.34-.53,.12-1.04,.23-1.54,.34-.5,.1-.98,.19-1.44,.29-.45,.09-.89,.18-1.32,.25-.84,.15-1.63,.25-2.33,.32-4.48,1.91-10.05,3.81-14.39,5.73l-.07-1.02c-6.29,1.95-11.01,3.42-16.1,5-5.08,1.59-10.52,3.33-18.27,5.84l2.97-1.65c-4.39,1.33-6.96,2.84-9.45,4.35-1.24,.75-2.46,1.51-3.88,2.23-.35,.18-.72,.36-1.1,.53-.37,.16-.76,.32-1.16,.48-.41,.16-.83,.31-1.28,.46-.45,.13-.93,.26-1.43,.38l-1.36-.44-1.35-.49c-7.51,1.49-15.37,1.54-23.16,1.09-7.81-.46-15.58-1.41-23.38-2.1,.29-.18,.82-.49,3.34-.15-1.83-.29-4.49-.84-7.42-1.46-2.93-.65-6.12-1.39-9-2.06-5.77-1.34-10.34-2.35-9.29-1.01,.08-.66-3.86-1.74-8.85-3.02-4.99-1.27-11.03-2.78-15.2-3.91l1.58-.49c-3.63-.59-5.54-.85-7.74-1.34-2.2-.5-4.71-1.23-9.52-2.9-2.2-1-1.69-1.49,1.21-.1-3.65-1.69-5.19-2.06-6.92-2.51-1.73-.46-3.67-.99-8.06-3.13l3.59,.84c-3.8-1.63-5.56-2.33-6.95-2.75-1.38-.42-2.38-.57-4.61-1.17-2.45-.89-6-2.58-8.99-4.26-.75-.42-1.46-.84-2.11-1.24l-.47-.3c-.18-.11-.36-.21-.54-.31-.31-.19-.6-.36-.87-.53-1.07-.68-1.82-1.23-2.02-1.55-1.26,.03-5.76-1.12-10.33-3.04-.52-.54,1.26-.13,2.14,.11-6.49-2.79-11.63-4.03-16.21-5.03-4.59-.98-8.64-1.72-13.3-3.12-.14-.35-.73-.63-1.5-.88,11.03,2.06,19.66,4.87,18.83,4.67,.13-.43-1.98-1.32-3.22-1.98-1.24-.65-1.61-1.13,2.07-.75-3.64-.68-8.59-1.41-13.71-2.05-5.12-.66-10.41-1.25-14.76-2.03-.41-.14-.82-.28-1.12-.45h.92c-2.02-.33-3.85-.46-5.58-.48-2.79-.43-4.57-.69-7.28-.89-.5-.4-3.09-.69-6.13-.82-3.04-.14-6.52-.13-8.78-.15,.36,.97-5.53,.82,0,1.63-.71-.07,.85-.13,3.84-.11,.68-.01,1.47,0,1.92-.06-.09,.03-.19,.05-.31,.08,2.96,.05,6.81,.19,11.19,.51-3.59,.23-7.3,.43-12.25-.23-2.32,.57-4.85,1.21-6.27,1.52-3.06-.68-7.56-1.11-11.51-1.39-3.95-.28-7.35-.43-8.21-.78-6.84,.77-14.87,1.73-22.19,3.01-7.32,1.27-13.94,2.81-17.99,4.46-3.77,.91-4.47,.27-5.95,.24,2.17-.59,4.79-1.03,5.94-1.5-7.57,1.78-22.5,4.43-24.06,6.04-9.65,1.26,5.13-2.17-7.93,.52l1.7-.72c-6.53,.7-12.35,1.67-17.86,2.53-2.75,.43-5.43,.82-8.07,1.11-2.64,.27-5.25,.44-7.81,.3-2.55-.15-5.08-.62-7.2-1.82-.54-.29-1.02-.66-1.49-1.04-.46-.4-.88-.85-1.26-1.34-.75-1-1.33-2.18-1.7-3.49-.38-1.31-.57-2.74-.59-4.22,0-.79-.02-1.59-.03-2.4,0-.42-.02-.84-.04-1.26-.02-.42-.04-.85-.06-1.27-.22-3.42-.8-6.99-1.8-10.72,.57,2.06,.75,3.11,.67,3.58-1.01-4.23-2.75-8.33-5.08-12.07-1.15-1.88-2.46-3.66-3.87-5.36-.69-.86-1.45-1.66-2.19-2.48-.77-.78-1.53-1.59-2.35-2.32-1.6-1.52-3.3-2.92-5.06-4.24-1.75-1.33-3.58-2.54-5.45-3.7-1.86-1.16-3.8-2.19-5.74-3.2-1.96-.97-3.94-1.89-5.96-2.72-4.02-1.68-8.16-3.05-12.32-4.22-4.17-1.14-8.39-2.06-12.61-2.78-4.23-.71-8.47-1.22-12.7-1.57-4.23-.34-8.45-.5-12.65-.51-4.77,.07-7.4,.55-9.52,1.07-.53,.13-1.03,.27-1.53,.41-.49,.16-.98,.31-1.49,.48-1.02,.32-2.12,.71-3.51,1.13l-2.23-.6c-3.16,1.11-6.25,2.37-9.25,3.78-3.25,1.3-6.3,2.44-9.29,3.61-1.52,.6-2.94,1.09-4.42,1.61-1.45,.54-2.97,.92-4.48,1.37-1.51,.47-3.08,.81-4.67,1.24-.4,.11-.8,.21-1.2,.32-.4,.1-.82,.19-1.23,.29-.83,.19-1.67,.4-2.52,.61-.85,.24-1.73,.4-2.62,.62l-2.74,.68c-1.88,.4-3.83,.95-5.92,1.42,.76,.13,1.53,.27,2.3,.39-3.06,.4-7.91,1.14-11.91,1.29-1,.08-1.94,.06-2.79,.08-.84,0-1.59,0-2.19-.02-1.21-.08-1.85-.21-1.59-.41-.63,.11-2.05,.74-4.45,.22l-.16-.56c-5.05,.04-10.13-.26-15.2-.88-2.89-.66-4.18-1.13-4.76-1.5-.58-.37-.46-.61-.51-.88-.05-.28-.26-.57-1.49-1.06-1.22-.52-3.47-1.17-7.51-2.47-3.04-.83-7.4-1.98-10.7-2.94-1.65-.47-3.04-.89-3.88-1.09-.43-.1-.7-.15-.82-.13-.13,.01-.08,.11,.14,.28,2.23,1.18,5.85,2.99,5.83,3.57-1.86-.65-3.71-1.33-5.52-2.1-.83,.52-2.5,.56-2.36,1.49,.02,.22,.21,.54,.53,.9,.32,.36,.8,.79,1.49,1.29,1.37,1,3.57,2.32,7,3.89,3.39,.9,6.81,1.66,10.23,2.27,1,.56,2.02,1.1,3.04,1.63-2.85-.69-5.67-1.51-8.46-2.39,4.53,2.25,7.82,2.4,11.35,2.77,.36,.3,.88,.6,1.57,.91,.69,.29,1.53,.58,2.54,.86,3.47,.13,6.93,.18,10.37,.02,.58,.39-.59,.57-1.07,.79-.47,.22-.25,.52,3.18,1.05,2.44-.16,1.31-.61,.59-1-.73-.39-1.05-.7,2.9-.62,2.45,.49,3.33,.89,4.32,1.07,.49,.09,1.02,.14,1.79,.13,.77-.01,1.78-.06,3.24-.26,.42,.2,.32,.37-.18,.53-.5,.15-1.4,.29-2.57,.35,2.63-.21,6.1-.37,9.24-.68,1.57-.15,3.05-.4,4.31-.61,.63-.1,1.19-.25,1.68-.4,.49-.15,.9-.29,1.22-.45,.66,.02,1.43,0,2.27-.06,.84-.09,1.74-.22,2.68-.37,1.88-.26,3.85-.78,5.66-1.18,3.6-.9,6.49-1.69,6.47-.9,.37-.22,1.08-.58,2.01-1.03l1.54-.73c.55-.28,1.14-.58,1.75-.89,.61-.3,1.24-.61,1.88-.93,.32-.15,.64-.31,.96-.46,.32-.17,.63-.33,.94-.5,1.26-.66,2.48-1.27,3.57-1.78-1.81,1.31-1.7,1.52-.5,1.13,.29-.1,.68-.24,1.07-.39,.38-.15,.81-.33,1.28-.53,.92-.41,2.02-.84,3.16-1.3,2.28-.9,4.79-1.72,6.64-2.16,1.86-.41,3.02-.47,2.64,.15,2.64-1.61,7.92-3.09,13.92-3.95,3-.44,6.16-.74,9.25-.94,3.09-.21,6.1-.32,8.81-.47-.61,.11-1.8,.36-2.75,.25,3.03,.11,4.98,.38,6.64,.67,1.66,.3,3.05,.62,4.95,.99,.46-.65,3.04-.77,6.17-.61,3.13,.15,6.77,.65,9.37,.89,3.46,1.62,2.23,1.7,.43,1.62-1.81-.08-4.21-.23-3.23,.65-.03-.29,.75-.31,1.9-.21,1.15,.12,2.67,.38,4.11,.69,2.89,.59,5.49,1.29,4.45,.44,2.55,1.32,3.63,1.88,4.39,2.34,.76,.45,1.18,.83,2.27,1.92,.4-.3,.9-.32,1.51-.17,.6,.15,1.31,.45,2.1,.86,1.59,.78,3.48,1.93,5.75,2.67,3.24,2.5,3.35,3.19,3.73,3.71,.18,.27,.41,.51,1.04,1.01,.63,.49,1.67,1.2,3.39,2.52,1.38,1.55,.51,1.16-.68,.41-1.18-.76-2.79-1.79-2.79-1.79Zm191.95,36.16v.02c-1.88-.24-3.48-.42-4.5-.53,.94,.11,2.24,.23,4.5,.51Zm18.1,3.45c-2.17-.56-4.9-1.19-7.8-1.76-.57-.46,.19-.67,2.01-.27-1.03,.01,3.19,1.09,5.79,2.03Zm-38.3-12.12c3.02,0,4.01,.26,4.41,.49-1.42-.07-3.08-.13-5.26-.15-.09,.03-.27,.07-.36,.11,.29-.18,.63-.34,1.21-.44Z"/><path class="e" d="M106.06,102.7c-.43,.01-.67,.05-1.24,.05,.61,.09,1.19,.18,1.78,.25,.37-.1,.74-.2,1.07-.28-.54,0-1.11-.02-1.61-.02Z"/><polygon class="e" points="398.38 138.47 398.29 138.24 396.83 138.92 398.38 138.47"/><path class="e" d="M342.32,176.07c.46-.01,.91-.03,1.32-.07,3.09-.24,.99-.13-1.32,.07Z"/><path class="e" d="M180.63,181.14c1.71-.21,3.4-.41,5.19-.55-2.88-.03-5.12,0-5.19,.55Z"/><path class="e" d="M522.89,171.78s0,0-.02,.02c.39,0,.73-.01,1.11-.02h-1.1Z"/><path class="e" d="M193.34,180.48c-2.88-.15-5.29-.06-7.52,.11,2.36,.02,5.14,.08,7.52-.11Z"/><path class="e" d="M61.13,186.91l-.61,.9c4.77-.21,.04-.35,.61-.9Z"/><polygon class="e" points="110.4 181.45 105.75 180.98 103.55 181.83 110.4 181.45"/><polygon class="e" points="139.67 187.31 137.58 187.47 145.54 187.01 139.67 187.31"/><path class="e" d="M573.27,179.53l-1.46-1.07c-3.22,.25-3.88,1.5,1.46,1.07Z"/><path class="e" d="M760.45,175.19c2.05,.51,7.32,.78,10.56,.18-4.21,0-8.41-.36-10.56-.18Z"/><path class="e" d="M446.74,130.91l3.76-.06c-2.35-.09-4.71-.19-7.06-.31l3.29,.37Z"/></g></g><g><path class="b" d="M-4.82,201.9s24.22-86.67,87.76-49.72c63.54,36.95,146.04-89.57,262.52-18.08,116.49,71.49,47.93-36.67,222.86-39.61,174.93-2.95,146.98-79.51,233.43-78.6,0,0,43.11-1.27,45.93,35.7,3.58,46.94,0,237.55,0,237.55H-4.38l-.44-87.24Z"/><g><path class="c" d="M40.28,149.85c.02-.08-.06-.1-.06-.16-.28,.2-.35,.3,.06,.16Z"/><path class="c" d="M196.93,133.59c-1.2,.19-1.99,.21-2.64,.15,1.04,.32-6.17,3.63,2.64-.15Z"/><path class="c" d="M555.76,98.91l-1.95,.21c.76-.01,1.45-.07,1.95-.21Z"/><path class="c" d="M194.27,133.74s.02,0,.02,0c0,0,0,0-.02,0Z"/><path class="c" d="M142.39,158.15c4.01-1.39,4.81-2.05,4.82-2.49,0-.44-.8-.68-.1-1.34,1.15-.49,2.08-.86,2.84-1.15,.76-.3,1.34-.5,1.8-.64,.91-.27,1.32-.27,1.54-.16,.44,.21,.18,.86,1.87,.52,5.64-2.68,9.49-5.67,13.72-7.48,.4,.06,1.25-.24,.4,.43,5.55-3.57,17.55-7.92,23.97-12.01,.56-.11,.86-.12,1.03-.09-1.37-.12-1.8-.65-1.75-1.18,1.69-.73,3.19-1.58,4.46-2.21,1.28-.63,2.33-1.05,3.13-.92-2.1,.82-2.14,1.22-3.02,1.86,1.14-.6,2.28-1.21,3.43-1.8,1.83-.08,.65,.5-.94,1.21-1.59,.72-3.59,1.58-3.42,2,3.38-1.62,7.01-3.47,10.51-5.08,1.75-.81,3.46-1.55,5.08-2.2,1.63-.63,3.15-1.18,4.54-1.56,.75,.36-2.37,1.56-4.73,2.49-2.36,.97-3.96,1.63-.2,.8-2.82,.87-5.63,1.79-8.44,2.74,3.5-.37,2.23,.1,.91,.59-1.32,.51-2.69,1.06,.56,.84,5.47-1.96,8.46-3.18,11.45-4.4,1.5-.61,3.01-1.18,4.83-1.83,1.83-.6,3.96-1.31,6.75-2.01,2.31-1.36-1.1-.69,1.22-2.06,1.94-.67,3.61-1.21,5.07-1.57,1.46-.36,2.7-.6,3.77-.76,2.17-.26,3.68-.24,5.06-.16,1.38,.09,2.61,.19,4.22,.05,.81-.05,1.7-.17,2.76-.38,.53-.1,1.1-.24,1.71-.38,.62-.14,1.29-.3,2.01-.5,.74-.3,1.36-.62,2.01-.95,.65-.31,1.33-.61,2.19-.88,1.71-.55,4.15-.96,8.44-.74l-1.42,.72-1.41,.76c1.38-.09,2.51-.13,3.46-.2,.95-.07,1.71-.16,2.36-.26,1.29-.17,2.1-.37,2.92-.57,.83-.18,1.67-.38,3.04-.37,1.37,0,3.26,.06,6.14,.54-.53,.09-1.33,.12-2.22,.12-.89,0-1.86,.03-2.72,.02-1.71,0-2.95-.03-2.12,.08,1.87,.34,3.13,.47,4.07,.49,.94,.02,1.55-.04,2.12-.16,.56-.12,1.08-.27,1.82-.37,.37-.05,.79-.09,1.3-.09,.51,.01,1.11,.05,1.83,.13l1.05,1.32c5.84,.61,11.96,1.51,18.17,2.92,6.21,1.4,12.5,3.32,18.61,5.8-.82,.05-3.03-.46-.34,1.04,.95,.4,1.91,.79,2.88,1.2,.48,.2,.97,.41,1.45,.62,.49,.2,.97,.42,1.45,.65,.96,.46,1.92,.93,2.89,1.39,.48,.24,.97,.47,1.45,.71,.48,.24,.95,.51,1.43,.76,.95,.52,1.91,1.04,2.87,1.57,.48,.27,.96,.52,1.43,.8l1.41,.85c1.88,1.14,3.73,2.27,5.66,3.5,7.63,4.85,15.27,9.63,22.62,13.66,2.07,.63,4.13,1.26,6.22,1.82,1.35,.63,2.33,1.57,.78,1.08,5.89,2.95,.57-.45,3.62,.41,1.72,.71,2.84,1.24,3.2,1.61,.37,.35,.01,.47-1.16,.19,.7,.21,1.44,.44,2.2,.67,.77,.24,1.59,.44,2.43,.68,.84,.23,1.7,.48,2.61,.68,.91,.21,1.82,.46,2.79,.65,3.82,.83,8.08,1.48,12.47,1.49h1.65l1.65-.11,.82-.05,.82-.1c.55-.07,1.09-.14,1.64-.21l1.61-.31c.27-.05,.54-.1,.8-.16,.26-.07,.52-.14,.79-.21,.52-.14,1.04-.26,1.55-.42,.5-.17,1.01-.33,1.5-.5,.5-.15,.98-.36,1.45-.55,.47-.2,.95-.37,1.4-.58,.9-.43,1.8-.81,2.62-1.26,.42-.22,.83-.43,1.23-.64,.39-.22,.78-.44,1.16-.66,.77-.42,1.47-.86,2.16-1.26-.61,.56-1.22,1.13-1.88,1.66,.27-.16,.53-.32,.79-.47,.24-.17,.48-.33,.71-.49,.45-.32,.89-.63,1.28-.94,.76-.63,1.45-1.21,2.01-1.8,1.16-1.15,1.99-2.21,2.81-3.24,1.62-2.07,3.14-4.04,6.55-6.66l-1.06,1.27c3.7-3.4,7.37-6.9,11.16-10.21,3.78-3.32,7.71-6.42,11.7-9.17,7.98-5.51,16.27-9.52,23.43-11.61,.26-.31,.73-.64,1.37-1,.64-.36,1.45-.7,2.36-1.07,1.81-.76,4.09-1.45,6.3-2.17,1.11-.34,2.22-.65,3.25-.98,.52-.16,1.01-.32,1.49-.48,.48-.15,.93-.3,1.35-.44,1.68-.59,2.84-1.17,3.01-1.76,2.8-.45,4.7-.71,6.23-.87,1.53-.14,2.68-.24,3.98-.36,1.28-.15,2.73-.24,4.81-.5,1.04-.13,2.25-.29,3.69-.43,1.44-.16,3.11-.35,5.07-.57,2.1-.24,3.61-.78,5.25-1.37,1.65-.57,3.42-1.16,6.02-1.57l.24,1.05c2.32-.62,4.65-1.19,6.99-1.78,1.3,.32,2.59,.68,3.88,1.01,1.63-.19,3.26-.43,4.9-.59-1.96,.03-4.19-.21-3.92-.55,.96-.13,1.97-.23,3.01-.31,1.04-.06,2.11-.1,3.17-.12,2.13-.04,4.25-.04,6.13,.09,3.78,.22,6.59,.59,6.7,.86,6.18-.44,12.36-.91,18.52-1.55-.39,.45-3.49,.78-5.94,1.13,1.23-.18,2.19-.3,2.93-.38,.74-.09,1.27-.12,1.66-.12,.78,0,.98,.13,1.16,.27,.36,.27,.62,.58,5.14-.18-1.23-.16,.62-.68,.81-.92,2.28,.16,6,.1,10.09-.22,1.02-.08,2.07-.15,3.13-.25,1.05-.11,2.11-.23,3.17-.35,1.05-.13,2.09-.25,3.11-.38,1.01-.14,2-.29,2.95-.44l-1.37,.91c13.78-1.37,28.92-4.43,44.02-8.53-5.52,1.1-4.57-.48-.21-1.76l2.06,.59c2.64-1.49-4.7,.9,.88-1.59,.7-.18,1.29-.32,1.78-.42,.49-.1,.88-.17,1.18-.19,.6-.05,.84,.05,.82,.25-.06,.38-1.19,1.17-2.76,1.8,1.12-.38,2.23-.81,3.34-1.22,1.11-.42,2.22-.82,3.32-1.27,.5,.19-1.02,.9-1.31,1.43,.65-.38,1.71-.77,3.02-1.15,.65-.19,1.36-.38,2.11-.58,.74-.21,1.51-.43,2.3-.66,1.57-.44,3.16-.96,4.57-1.53,1.42-.55,2.65-1.21,3.51-1.9l.5,.16c.91-.37,1.79-.76,2.63-1.14,.84-.38,1.66-.75,2.45-1.11,1.56-.76,3.04-1.44,4.41-2.17,1.38-.71,2.68-1.39,3.92-2.09,.62-.34,1.23-.68,1.83-1.02,.59-.35,1.18-.69,1.76-1.03,1.16-.67,2.29-1.37,3.41-2.07,1.13-.69,2.24-1.42,3.39-2.16,1.15-.74,2.3-1.52,3.51-2.33,1.19-.83,2.45-1.67,3.75-2.6-.35-.94,3.85-3.64,6.36-6.57,3.79-2.68,7.77-5.54,11.86-8.56,4.09-3.02,8.27-6.2,12.59-9.43,1.45-1.22,2.27-1.93,2.72-2.37,.44-.44,.5-.61,.45-.71-.09-.19-.64-.13,.61-1.31,.24,.11,.97-.19,1.88-.63,.91-.42,1.98-1.01,2.9-1.45,.92-.45,1.67-.81,1.92-.83,.25-.02-.03,.24-1.12,1.08,2.71-1.64,4.99-2.87,7.1-3.89,.52-.27,1.05-.5,1.56-.73,.51-.23,1.02-.46,1.52-.69,.51-.21,1.01-.43,1.51-.64,.5-.22,1.01-.43,1.53-.62,4.14-1.59,8.75-3.25,16.72-4.77-1.79-.12-3.78,.07-2.82-.4,.73-.15,1.51-.29,2.27-.36,.77-.06,1.51-.09,2.14-.09,1.27-.01,2.13,.18,1.94,.41l-.77,.17c1.13-.19,2.28-.37,3.46-.51,1.18-.12,2.38-.23,3.6-.3,1.22-.05,2.46-.1,3.71-.11,1.28,.02,2.57,.04,3.86,.07,1.15,.03,2.41,.13,3.63,.27,1.23,.15,2.47,.33,3.69,.56,2.45,.45,4.87,1.07,7.18,1.81,2.31,.75,4.53,1.64,6.59,2.62,2.06,.99,4,2.05,5.73,3.21,.22,.14,.44,.27,.66,.42,.21,.15,.42,.3,.62,.45,.41,.3,.84,.57,1.22,.87,.77,.61,1.56,1.18,2.24,1.8,1.45,1.18,2.68,2.42,3.88,3.56l-.53-.51,.58,.62c.2,.21,.35,.44,.54,.66,.35,.45,.71,.88,1.05,1.34,.62,.96,1.3,1.88,1.82,2.92l.42,.76,.21,.38,.18,.4,.71,1.6,.18,.4,.14,.42,.29,.84,.29,.84c.1,.28,.21,.56,.27,.85,.54,3.25,.19,2.3-.25,1.17-.44-1.13-.95-2.41-.78-.03,.13,.45,.26,.9,.39,1.34,.13,.44,.19,.9,.28,1.34,.08,.45,.17,.89,.25,1.32,.04,.22,.08,.43,.11,.66,.03,.24,.05,.47,.08,.7,.2,1.86,.36,3.65,.49,5.36,.12,1.72,.25,3.37,.29,4.99,.04,1.62,.07,3.2,.09,4.76,.03,3.12,.09,6.13,.15,9.24,.06,3.11,.2,6.3,.52,9.74-.31,1.34-.51,2.93-.67,4.73-.16,1.8-.25,3.79-.3,5.93-.1,4.28,.03,9.13,.13,14.1,.1,4.97,.24,10.06,.24,14.81,0,4.75-.16,9.16-.58,12.76l.62-.83c.61,3.73-.36,4.51-.5,7.26,.48-.39,.56-4.04,.9-1.73,.7,31.6-1.31,65.22-2.3,97.6-.33,11.85,3.12,6.77,1.42,21.69l-1.09-4.26c.25,5.98,.33,12.03,.31,18.1-.02,2.38-.04,4.76-.06,7.14v.65s-.03,0-.04,0h-1.76c-12.17-.05-24.27-.12-35.98,.47,1.4-.27,1.44-.61,3.72-.61-4.95-.84-18.29-.04-18.38,.64-3.65-.08-.85-.62-3.09-.97-4.96-.49-12.46,1.07-15.09,.24-.45-.14,1.39-.27,2.3-.34-3.23,.41-15.07-.1-11.97,.86-8.79-.46-16.82,.43-23.83-.14-4.57,1.08-15.05-.52-16.5,1.01,.63-1.58-15.41-1.27-20.97-.53,1.86-.48-4.83-.49-2.65-1.15-6.34,.02-12.16,.32-11.05,1.13-11.69-1.89-23.49,1.52-30.07-.9-18.84,.85-36.28,1.42-53.23,1.79,.61-1.57,18.73-.16,18.01-1.81-16.08,.65-25.35,2-41.3,1.62-4.13-.22,2.34-.68,3.74-.95-16.06,.65-31.06-.14-45.35,.71,.04-.15,1.58-.31,3.04-.43-2.82,.05-6.55-.23-6.23,.48l2.75-.19c4.5,1.04-11.19,2.17-11.69,2.72,4.78-2.05-14.12-.52-6.52-3.11-1.85,.13-4.18,.47-3.75,.95-2.75-.14-3.62-.42-.83-.96-10.09,.39-6.51,1.15-15.65,1.13,.03-.35,1.88-.48,2.82-.89-4.63,.67-9.28,1.35-17,1.06,.46-.21-.43-.48,1.87-.48-13.27,.1-22.61,1.8-37.17,1.15,4.29-1.51-4.95-.5-5.72-1.8l-7.83,.39,3.14,.63c-6.86-.02-12.91,.93-18.81,.5l5.09-.54-12.85,.25,7.27,.49c-6.94,.67,.74,1.65-8.38,1.29,1.85-.13-6.86-.02-10.43-.78h.02c-3.39,.41-6.88,.85-11.95,.52-1.32-.42,1.06-1.44,.2-1.72-3.35,1.09-16.06,.3-20.29,1.46,1.41-.27,1.49-.96,1.02-1.1l-2.81,.89c-3.18-.28-3.64-.42-3.12-.97-9.55-.16,3.03,1.65-8.3,.94,.89-.07,.46-.2,2.32-.34-11.39-.37-22,.56-32.47,.13-3.09-1.31,9.14-.32,5.61-1.43-15.09,.24-31.24,1.57-45.84,1.26l2.72,.14c-2.02,1.85-10.87-.91-18.26-.04,1.81-.14,2.37-1.03,1.88-.82-10-.3-20.44,.45-35.59,1.04l1.88-.48c-5.89-.42-15.52-.24-21.88-.46-1.89,.47-5.53,.4-3.32,1.09-19.62-2.71-37.43,1.45-54.85-.8,2.08,0,4.96-.42,3.31-.42l-14.83,.44c1.17,.81,1.94,.49,5.06,1.12-1.88,.48-6.06,.85-9.74,.85,6.67-.53-.06-1.29-2.94-1.74,.48,.25-.5,.52-.26,.77-7.75-1.43-1.3,1.62-11.88,.66l.56-.42c-3.96,.22-7.61,.78-11.88,.65-1.77-.93,4.21-.44,4.49-1.2-6,.05-11.83,1.77-17.26,.84,2.55-.26,6.21-.26,8.76-.52-5.91-1.1-6.6-.82-10.99-.99l.43,.02-10.15-.5,2.59,.3c-7.5,2.43-15.28,.44-25.39,2.04,9.82-1.51,1.62-.87,2.38-1.93-2.58-.29-6.51-.62-5.39-.92-4.78,.85-7.98-.67-14.72,.57-.3-.34-5.11-.03-4.03-.89-6.21,.27,1.47,.59,.95,1.02-9.57,1.16-22.51-1.41-36.28,.18-4.15,.23-7.12,.52-9.71,.82-.64,.08-1.26,.16-1.86,.23-.51,.08-1.01,.15-1.51,.23-1.05,.15-2.21,.3-3.55,.45-.13-.86-.25-1.88-.37-3.12-.11-1.23-.22-2.72-.32-4.37,.26-1.86,.58-1.1,.82,.12,.12,.61,.23,1.34,.31,1.92,.07,.5,.12,.87,.12,.87,.01-.15,.03-.3,.04-.45,.01-.18,.03-.35,.04-.53,.02-.36,.05-.72,.07-1.08,.04-.71,.07-1.4,.1-2.08,.05-1.36,.07-2.66,.05-3.95-.02-2.59-.16-5.13-.37-7.95,.3,1.14,.55-.04,.92-1.76-.11-4.54-1.25-3.03-.78-9.02,.39,1.02,1,2.34,1.39,4.53-.34-5.35-1-10.62-1.34-16.16,.59-1.47,.92,3.34,1.31,5.29-.3-6.22-.62-16.12-1.57-18.03l-.31,3.99c-.06-2.27,.8-1.17,.98,.5,.76,5.33-.29,7.69-.63,8l-.24-3.94c-1.98,4.06,.4,15.83,.33,23.77l-1.47-3.3,1.25,8.13c-.37,1.73-1.17,2.92-1.41-1-.69,5.69,.54,5.03-.23,9.93-.12,.54-.19,.3-.25-.2l.46,5.64c-.16-.58-.41-.32-.6-.36-.1-.02-.18-.16-.22-.52-.04-.31-.05-.82,0-1.68-.02,.34-.05,.68-.07,1.01,0,.17-.02,.33-.03,.49,0,.19-.02,.38-.02,.56-.03,.82-.05,1.63-.06,2.42-.02,1.58,0,3.06,.04,4.4,1.91-.04,3.66-.13,5.21-.21,.75-.04,1.47-.09,2.15-.13,.56-.04,1.1-.07,1.62-.11,2.06-.12,3.74-.12,5.1,.28l-.83,.09c13.84-.49,1.34-1.07,11.72-2.32l6.99,2.63,1.36-1.06c1.43,.04,4.25,.12,3.73,.54,5.32-.73-.91-.46,2.18-1.15,6.87,.97,18.96-.45,20.51,1.24,2.47-.81-6.57-.62,.76-1.19,2.09,1.83,8.48-.31,14.76,.52-1.93,.94-7.88,.44-1.59,1.28,3.79-1.59,12.23,.35,17.53,.04,.25-1.27,11.52-.53,20.41-.95-.56,.43,16.73,.7,25,1.16l-.24,.21c1.6-1.28,10.13-1.04,16.34-1.3-.24,.77-1.36,1.07-4.73,1.41h5.84c1.38-.42,3.2-.63,6.99-.78l-1.47,.96c7.77-.05,15.65-1.13,25.65-.49,.56-.89-7.95-2.49,2.62-3.08,.39,.48,.78,1.31-1.98,1.51,.91-.06,3.23-.4,5.06-.2l-4.22,.81c4.55,.36,2.38-.68,6.02-.6-.07,.69,2.69,.49,2.17,1.04-.93,.07-3.18-.28-4.57-.01,4.11,.12,9.07,.53,10.71,1.05-.36-.39,0-.93,3.01-1.02,7.77-.05,2.66,.83,7.19,1.18,1.88-.48,6.84,.02,6.97-1.01,2.27,0,2.69,.49,3.57,.76,4.02-.45,18.79-.13,14.25-1.23l-1.03-.07c.19-.02,.42-.02,.66-.05h0c13.18-1.02,27.38,.58,40.46,.14l-.02,.34c7.81-.39,17.38-.23,22.95-.97,2.31,0,5.45,.63,4.46,1.04,5.97-.26,6.64-.65,15.26-.08-6,.6,2.07,.53-6.15,.44,7.76,.3,9.51,.85,17.84-.09-2.83,.88,5.84,1.11,9.53,.85l-5.43-.63c4.14-.13,7.77-.05,11.45,.02l-1.99,1.16c15.87,1.41,28.62-2.4,40.7-.04,4.2-.81-8.62-.57-4.86-1.52,7.3,.16,14.91,1.82,17.19,1.83,10,.64,9.33-1.7,19.79-1.26-1.34-.41-2.6-1.52,5.22-1.91,7.31,.15,8.98,1.74,4.37,2.07-1.75,.03-2.6-.1-2.52-.24-2.36,.15-5.46,.33-2.56,.78l.95-.41c3.62,.42,13.67,.38,11.31,1.06,5.52-.39,2.36-.68-1.73-.89,9.37,.6,14.64,.02,24.28,.42-1.53-.23-2.95-.71-1.42-.71,14.15,.51,6.23-.79,15.81-.97,5.45,.63-1.95,1.51,7.7,.98,5.89,.43,1.25,1.1-1.09,1.44,8.79-.8,16.43,.52,21.45,.67l-4.63,.33c2.77-.2,5.04-.19,7.35-.19l-2.64-.83c2.72,.14,5.02,.15,4.97,.49,2.8-.54-2.14-1.38,3.42-2.12,3.62,.42,11.04-.45,12.29,.65-11.4-.37,1.26,1.1-8.39,1.28,1.86-.13,4.13-.13,6.86,.02,.41,.12-.39,.23-1.13,.29,10.91,.98,5.01-1.24,16.32-1.22-1.44,.62,2.62,1.17,4.47,1.04-4.56-.01-2.18-1.03,2-1.51,7.25,.48,7.88-.36,11.67-.3l-4.33-.23c1.47-.62,5.09-.54,10.15-.73,.43,.48-4.59,.33-2.79,.54,5.61-1.09,12.68,1.13,20.5,.39,3.62,.42,.35,1.16,3.53,1.45,8.77-.8,9.5,.85,18.71,.18-2.66-.83-3.12-.63,3.37-1.44l-15.15,.59,9.72-1.21c-4.57-.01-9.65,.52-12.39,.38,4.63-.68,4.16-.47,1.97-1.16,6.26,1.25,12.4-.73,19.64,.12l-.22,2.06c10.87,.92,19.32-1.06,33.44-.54l-4.54-.36c1.89-.82,8.72-.11,13.29-.45-.43,.69,2.43,.94,4.38,1.37-.24-.51,10.33,.05,11.62-1.33l6.3,.91c11.4,.37,13.01-1.96,23.97-1.73-3.3,.75,1.68,1.24-5.66,1.77,3.66,0,6.95,.13,7.01-.34,2.14,.43,10.15-.93,13.51-.27,1.54-.3,2.05-1.02,6.15-.97,.45,.14-.02,.34-.02,.34,.02-.34,6.43-.46,2.84-1.23,11.27,2.15,31.5-.16,41.31,1.69,7.99-.23,17.61-.45,24.85-.5-.46,.21-.02,.34-1.39,.27,10,.64,6.15-1.98,17.53-1.26,5.81,1.11-6.04,.6-2.42,1.02,1.58,2.27,13.73-.31,21.39,1.01l-1.85,.13c5.85,.77,14.28-.86,23.84-.7,0,0-.46,.2-.06,.34,1.63-.29,3.63-.53,5.86-.73,.56-.05,1.13-.1,1.71-.15l.88-.07,.45-.03c.19-.01,.38-.02,.58-.03,1.56-.08,3.17-.15,4.81-.23,.4-.02,.79-.03,1.19-.05l.59-.02s.03-.03,.03-.05v-.56c-.03-.84-.04-1.68-.06-2.52-.03-1.57-.05-3.14-.08-4.7-.05-2.56-.1-5.06-.14-7.36,.84,2.88,.4,4.19,1.33,2.46-.06-4.13-1.47,1.18-1.58-7.05,.53-2.67,1.04-8.6,2.02-9.37l-.07,7.77c1.3-3.96,.12-10.05,.39-14.14l.54,.53c0-11.9-1.37-12.09-1.11-24.88l-.43,1.32c-1.26-7.01,.84-5.85-.09-12.84l1.4-2.09c-.27-4.62-1.16-16.17-1.34-24.44,.97,4.7,1.42,14.38,1.95,20.38,.07-4.57,.05-15.54-.6-17.93,.12,1.84,.43,4.17,.2,5.99-1.03-5.62-1.48-13-1.4-22.11,1.33,.82,1.54-5.12,1.68-12.08,.12-6.97,.18-14.96,1.23-18.26-.97-16.13,.48-31.99,.1-50.8-2.01,6.69-.12-5.49-2.24-4.31-.17-4.37-.2-6.04-.06-6.44,.33-4.43,.7-8.86,1-13.3,.26-1.59,.41-.55,.56,.84,.14,1.38,.24,3.11,.48,2.9,0-2.4,.03-3.86,.1-4.79,.07-.93,.18-1.34,.31-1.64,.26-.61,.58-.82,.75-4.02-.36,.67-.66-.16-.86-1.84-.1-.84-.17-1.89-.21-3.08-.04-1.19-.1-2.53-.1-3.91-.1,1.31-.17,2.62-.28,3.91l-.36,3.88c-.2-1.67-.32-3.11-.4-4.37-.1-1.27-.15-2.36-.15-3.33-.01-1.95,.13-3.42,.27-4.91,.07-.74,.14-1.49,.19-2.29,0-.86-.02-1.8-.09-2.87-.18-2.13-.69-4.83-2.14-8.34,.41,.71,.69,1.46,1.02,2.2l.48,1.12,.24,.56,.2,.57c-.1-.47-.27-.99-.44-1.56-.17-.56-.36-1.17-.55-1.81-.05-.16-.1-.32-.15-.49-.06-.16-.12-.33-.19-.5-.13-.33-.26-.68-.39-1.03-.13-.35-.27-.71-.41-1.07-.07-.18-.14-.36-.21-.55-.09-.18-.17-.36-.26-.55-1.28-2.97-3.25-6.14-5.63-8.91-2.38-2.78-5.21-5.1-7.88-6.74-.34-.2-.67-.4-.99-.59-.32-.2-.65-.37-.97-.53-.65-.32-1.27-.62-1.86-.88-.6-.24-1.17-.45-1.7-.63-.27-.09-.52-.17-.77-.25-.25-.06-.49-.12-.72-.17-1.08-.78-2.46-2.07,.63-.79-2.02-1.03-4.19-1.88-6.41-2.63-2.23-.71-4.53-1.28-6.85-1.72-2.33-.44-4.68-.73-7.03-.91-1.18-.08-2.35-.15-3.53-.17-1.18-.03-2.33-.03-3.58,.03h-.28l.02,.02s0,0-.03,0h-.05l-.42,.02-.84,.04c-.56,.02-1.11,.05-1.66,.07-1.1,.03-2.2,.13-3.28,.19-.54,.03-1.08,.07-1.61,.1-.53,.05-1.06,.09-1.59,.14-1.05,.1-2.09,.15-3.11,.28-4.07,.38-7.84,.89-11.17,1.28l1.19-.77c-1.57,.39-2.9,.88-4.32,1.41-1.43,.48-2.95,.98-4.97,1.29,.14-.27,1.11-.87-.34-.47-.4,.17-1.09,.47-1.98,.85-.88,.37-1.93,.88-3.07,1.36-2.25,1.05-4.77,2.21-6.75,3.02,1.01-.72,2.05-1.38,3.1-2.05-3.98,1.52-7.31,3.29-10.22,5.12-2.91,1.84-5.41,3.74-7.72,5.68-4.64,3.88-8.61,7.86-13.76,12.26-.47-.61-3.25,1-6.53,3.18-3.28,2.19-7.1,4.89-9.67,6.62l.04-.3c-7.45,5.36-13.82,9.71-20.33,13.65-3.25,1.97-6.53,3.84-9.99,5.61-1.72,.91-3.51,1.74-5.34,2.61-1.85,.82-3.74,1.68-5.73,2.46-.66,.13-1.37,.29-2.12,.47-.76,.17-1.56,.36-2.41,.57-1.68,.45-3.56,.9-5.55,1.44-4,1.02-8.53,2.24-13.31,3.3-9.54,2.21-20.05,3.97-28.59,4.63,1.31-.04,1.25,.27,.48,.66-.39,.2-.95,.41-1.6,.62-.66,.19-1.4,.37-2.16,.5-4.03,.21-10.99,2.25-10.49,.8l1.43-.12c-1.58-.51-4.42-.55-7.67-.35-1.62,.1-3.36,.2-5.09,.33-1.73,.13-3.45,.27-5.07,.33l-.97,1.9c-2.14-.23-4.43-.32-6.83-.41-2.4-.08-4.9-.04-7.46-.03-1.28,.01-2.57,.04-3.86,.07-.65,.02-1.3,.04-1.95,.06l-1.98,.08c-1.32,.06-2.64,.12-3.96,.18-1.31,.06-2.62,.13-3.91,.24-10.32,.69-19.58,1.87-24.42,1.27-1.03,.24-2.12,.44-3.24,.65-1.12,.22-2.27,.44-3.42,.66-1.15,.22-2.3,.42-3.41,.68-1.11,.25-2.18,.52-3.19,.8l.06-1.01c-2.89,.38-5.39,.86-7.77,1.26-1.19,.2-2.34,.46-3.48,.69-1.14,.24-2.28,.46-3.43,.73-2.3,.57-4.69,1.11-7.35,1.9-1.33,.38-2.74,.77-4.23,1.28-1.49,.5-3.1,.98-4.8,1.62l1.29-.82,1.31-.78c-3.93,1.23-6.14,2.79-8.21,4.38-.52,.39-1.03,.77-1.56,1.17-.52,.4-1.07,.8-1.65,1.2-.58,.39-1.21,.78-1.91,1.16-.69,.39-1.44,.8-2.29,1.19-.89-.13-1.79-.28-2.68-.39-6.44,3.1-12.89,6.42-18.88,10.46-2.99,2.02-5.89,4.17-8.59,6.51-2.7,2.34-5.24,4.83-7.56,7.45,.03-.31,.02-.92,1.69-2.51-1.25,1.11-3.08,2.73-5.06,4.53-1.97,1.8-4.09,3.76-5.94,5.52-1.86,1.76-3.47,3.3-4.45,4.39-.98,1.08-1.31,1.76-.55,1.79-.24-.23-1.02,.2-2.14,.98-.56,.41-1.22,.84-1.94,1.38-.36,.26-.74,.51-1.14,.79-.2,.14-.4,.28-.6,.42-.21,.13-.42,.26-.63,.4-1.69,1.1-3.6,2.2-5.56,2.97-1.96,.79-3.95,1.32-5.63,1.62,.32-.36,.63-.73,.93-1.09-1.33,.5-2.41,.75-3.35,1.01-.48,.09-.93,.17-1.37,.26-.44,.08-.88,.15-1.34,.17-.92,.06-1.92,.12-3.22,0-.65-.04-1.37-.09-2.2-.23-.82-.13-1.75-.24-2.8-.48-1.94-.62-1.52-1.19,1.01-.29-3.2-1.04-4.5-1.25-6.01-1.46-.75-.14-1.54-.29-2.63-.61-.55-.15-1.15-.38-1.87-.66-.71-.29-1.53-.63-2.47-1.08,1.04,.2,2.08,.36,3.1,.54-1.63-.64-2.83-1.1-3.76-1.47-.93-.36-1.61-.58-2.21-.74-1.19-.34-2.05-.46-3.99-.94-2.11-.78-5.12-2.31-7.64-3.88-1.27-.76-2.39-1.56-3.25-2.22-.85-.66-1.42-1.2-1.55-1.52-.55,.02-1.76-.32-3.28-.93-.76-.31-1.6-.68-2.47-1.13-.86-.46-1.75-.98-2.63-1.57-.32-.57,1.11,.02,1.82,.33-1.25-.83-2.43-1.57-3.56-2.25-1.12-.69-2.19-1.33-3.21-1.91-1.03-.58-1.99-1.12-2.96-1.63-.97-.5-1.9-.98-2.8-1.44-.91-.46-1.77-.92-2.65-1.35-.88-.42-1.73-.85-2.58-1.3-.85-.45-1.69-.92-2.54-1.43-.86-.48-1.73-1-2.62-1.57-.01-.37-.43-.75-1.02-1.15,8.74,4.28,15.3,8.56,14.66,8.2,.48-.76-6.25-4.91-.2-2.78-.73-.33-1.52-.69-2.37-1.07-.85-.37-1.73-.79-2.69-1.17-.95-.39-1.93-.79-2.93-1.21-1.01-.41-2.02-.86-3.07-1.26-4.16-1.67-8.45-3.38-11.94-5.01-.31-.22-.62-.44-.83-.67l.78,.21c-1.62-.74-3.11-1.31-4.59-1.65-2.27-.96-3.69-1.66-5.95-2.36-.16-.25-.78-.57-1.67-.93-.45-.18-.96-.37-1.53-.57-.57-.18-1.19-.36-1.83-.54-1.29-.35-2.66-.75-3.97-1.05-1.31-.29-2.54-.57-3.51-.8,.1,1-4.9-.22-.36,1.59-.59-.21,.75,.05,3.3,.61,.59,.1,1.26,.27,1.65,.32-.08,0-.18,.01-.28,.01,1.25,.33,2.68,.72,4.27,1.14,1.57,.47,3.28,1.02,5.11,1.59-1.56-.24-3.13-.5-4.82-.93-1.7-.38-3.51-.91-5.53-1.74-2.12,.16-4.39,.27-5.66,.31-1.23-.59-2.78-1.2-4.45-1.8-1.67-.53-3.45-1.07-5.12-1.54-1.68-.43-3.25-.82-4.48-1.17-1.24-.33-2.15-.59-2.49-.83-6.05-.22-13.18-.19-19.67,.5-6.5,.67-12.34,1.93-15.86,3.47-3.28,.83-3.91,.2-5.22,.14,1.89-.54,4.18-.97,5.19-1.39-.83,.18-1.75,.43-2.75,.65-.99,.24-2.05,.45-3.14,.72-1.08,.26-2.19,.54-3.3,.81-1.11,.27-2.2,.59-3.25,.88-4.21,1.18-7.71,2.47-8.29,3.32-2.08,.45-2.85,.54-3.01,.46-.17-.09,.27-.36,.62-.57,.71-.41,1.05-.65-4.49,1.22l1.38-.85c-5.64,1.26-10.59,2.99-15.17,4.93-4.59,1.93-8.82,4.1-13.09,6.31-8.55,4.42-17.25,9.16-29.3,13,1.66-.55,2.49-.83,2.9-.78-6.69,2.62-13.39,5.41-20.2,7.99-6.81,2.57-13.73,4.92-20.8,6.49-7.06,1.52-14.31,2.29-21.31,1.35-3.5-.45-6.91-1.28-10.15-2.5-.8-.34-1.59-.67-2.38-1.01-.4-.16-.78-.36-1.16-.56l-1.14-.59c-.38-.2-.76-.38-1.13-.6l-1.09-.67c-.74-.46-1.41-.87-2.21-1.38-.88-.54-1.67-1.02-2.4-1.43-.74-.39-1.4-.72-2-1-.3-.14-.59-.27-.86-.4-.28-.11-.55-.22-.81-.31-.52-.19-.99-.35-1.45-.5-.91-.3-1.76-.46-2.68-.67-.46-.1-.93-.22-1.45-.32-.52-.1-1.08-.21-1.7-.35l-.68-.8c-.23-.26-.47-.51-.71-.77-2.9-.52-5.85-.76-8.76-.8-3.06-.23-5.9-.45-8.72-.52-2.82-.06-5.63,.02-8.54,.43-2.9,.41-5.9,1.18-8.94,2.52-.19,.08-.38,.17-.57,.25-.19,.09-.38,.19-.56,.28-.38,.19-.76,.39-1.14,.59-.76,.41-1.51,.88-2.27,1.36-1.49,1.01-3,2.15-4.42,3.52,.68-.22,1.35-.44,2.05-.62-1.17,.77-2.59,1.88-4.03,3.11-1.43,1.26-2.88,2.63-4.12,3.92-2.51,2.55-4.28,4.68-4.31,4.05-.27,.52-.6,1.85-2.21,3.34l-.54-.2c-2.52,3.81-4.7,7.78-6.65,11.83-1.37,2.22-2.08,3.21-2.55,3.61-.47,.41-.68,.24-.95,.21-.27-.03-.61,.07-1.31,1.05-.7,.98-1.78,2.83-3.36,6.37-1.06,2.68-2.19,6.63-2.79,9.7-.31,1.53-.5,2.84-.55,3.64-.05,.81,.03,1.13,.27,.61,.67-2.23,2.17-5.46,2.76-5.43-.5,1.65-.96,3.3-1.38,4.97,.63,.69,1.1,2.06,1.96,1.81,.43-.11,.94-.59,1.68-1.77,.74-1.17,1.69-3.01,3.05-5.75,.71-2.76,1.53-5.51,2.43-8.24,.62-.72,1.26-1.43,1.9-2.14-1.04,2.15-2.02,4.33-2.93,6.53,2.28-3.43,2.79-6,3.72-8.78,.69-.41,1.49-1.33,2.44-2.72,.89-2.66,1.89-5.3,3-7.91,.54-.24,.29,.71,.33,1.16,.04,.46,.34,.39,2.04-1.78,.81-1.78,0-1.24-.63-.92-.31,.16-.56,.26-.54-.03,.02-.29,.34-.97,1.2-2.35,1.52-1.4,2.23-1.74,2.86-2.26,.31-.26,.61-.55,.99-1.04,.37-.49,.84-1.15,1.51-2.13,.75-.21,.27,.7-.79,2.22,1.15-1.74,2.98-3.79,4.73-5.56,1.74-1.77,3.37-3.27,3.97-4.25,.96-.45,2.13-1.17,3.39-1.93,.32-.19,.64-.39,.96-.58,.32-.19,.66-.37,.99-.56,.33-.18,.65-.38,.98-.55,.33-.17,.66-.34,.97-.5,.63-.34,1.26-.59,1.83-.83,.56-.25,1.09-.4,1.53-.51,.88-.23,1.44-.19,1.48,.2,.26-.18,.77-.5,1.46-.87,.7-.33,1.56-.77,2.54-1.11,.97-.39,2.04-.68,3.1-.96,.53-.11,1.06-.22,1.57-.31,.51-.11,1.01-.13,1.47-.18-.83,.28-1.23,.49-1.3,.64-.07,.15,.18,.19,.65,.23,.48,.04,1.17,0,2,0,.83,.02,1.8-.02,2.81,.06,1.01,.03,2.05,.15,3.04,.27,.98,.14,1.9,.34,2.66,.52,1.52,.45,2.38,.89,1.84,1.28,.64-.08,1.4-.04,2.26,.03,.43,.03,.88,.11,1.35,.2,.47,.09,.96,.19,1.47,.3,.51,.12,1.03,.28,1.57,.44,.54,.17,1.1,.31,1.65,.53,1.12,.41,2.29,.83,3.46,1.37,2.37,.99,4.76,2.28,7.11,3.52,.67,.34,1.33,.67,1.98,1,.66,.32,1.3,.66,1.97,.91,1.33,.52,2.59,1.06,3.85,1.38-.29-.04-.73-.1-1.2-.2-.46-.12-.95-.3-1.35-.52,1.3,.67,2.43,1.1,3.37,1.55,.48,.21,.91,.44,1.33,.61,.42,.18,.81,.34,1.19,.5,.76,.32,1.45,.67,2.19,.93,.74,.27,1.52,.55,2.44,.85,.13-.15,.38-.23,.74-.32,.36-.08,.81-.13,1.34-.16,.53-.03,1.14-.03,1.8-.02,.66-.01,1.37-.02,2.11-.04,1.48,.02,3.08-.1,4.6-.18,.76-.06,1.5-.16,2.19-.25,.7-.1,1.35-.17,1.94-.32,3.47,.48,2.48,.93,.83,1.42-.41,.12-.87,.24-1.29,.36-.43,.1-.84,.21-1.16,.32-.65,.23-.95,.48-.38,.8-.09-.28,.65-.48,1.75-.67,.55-.11,1.19-.22,1.87-.33,.68-.11,1.39-.19,2.08-.34,2.77-.49,5.21-1.12,3.98-1.4,2.68,.06,3.82-.11,4.65-.11,.42,0,.76,.01,1.18,.07,.41,.04,.91,.13,1.64,.26,.27-.95,1.46-1.24,3.06-1.66,.8-.2,1.72-.39,2.67-.7,.95-.31,1.94-.71,2.9-1.26,3.72-.71,4.31-.49,4.93-.46,.31,.02,.63-.02,1.35-.25,.36-.12,.82-.28,1.44-.52,.61-.25,1.36-.57,2.31-.98,1.94-.42,1.24,.13,.04,.79-.6,.33-1.32,.69-1.89,.96-.57,.27-1,.45-1,.45Zm180.64-32.8v.02c-1.52-.59-2.82-1.1-3.64-1.42,.76,.29,1.81,.7,3.64,1.4Zm14.27,7.02c-1.69-.95-3.79-2.15-6.09-3.25-.35-.55,.35-.59,1.78,.14-.45-.09,.17,.3,1.11,.94,.94,.64,2.23,1.48,3.2,2.17Zm-29.05-19.5c1.29,.27,2.13,.56,2.68,.79,.55,.23,.82,.42,.96,.57-.6-.18-1.24-.37-1.97-.58-.73-.21-1.55-.39-2.48-.62-.08,.01-.25,.01-.33,.03,.29-.11,.62-.21,1.14-.2Z"/><path class="c" d="M303.35,112.88c-.37-.07-.59-.07-1.07-.18,.5,.21,.98,.39,1.46,.57,.34-.03,.67-.04,.97-.06-.46-.13-.93-.24-1.37-.33Z"/><polygon class="c" points="538.08 100.73 538.03 100.48 536.67 100.86 538.08 100.73"/><polygon class="c" points="580.33 89.8 583.54 89.31 577.47 89.85 580.33 89.8"/></g></g></svg>