<?xml version="1.0" encoding="UTF-8"?><svg id="a" xmlns="http://www.w3.org/2000/svg" viewBox="0 0 1000 147.16"><defs><style>.b{fill:#2521bc;}</style></defs><polygon class="b" points="921.81 133.11 946.55 19.76 933.52 18.42 903.8 96.72 896.82 16.37 874.08 18.42 859.22 112.75 827.52 33.4 808.27 19.76 813.45 112.75 759.57 61.76 773.08 130.66 771.89 129.71 738.19 81.74 747.82 120.08 718.92 62.29 685.22 67.11 685.22 115.26 661.14 67.11 658.96 104.09 643.35 88.91 614.09 89.76 618.22 135.59 596.7 99.21 588.84 102.63 601 139.34 557.96 110.98 574.49 139.61 540.22 119.01 516.6 119.43 519.93 142.29 502.55 124.15 496.21 125.85 506.03 144.16 471.28 130.02 488.99 148.97 579.9 148.97 590.06 148.97 656.32 148.97 705.1 148.97 776.67 148.97 776.71 149.16 1003.02 148.97 1003.02 0 921.81 133.11"/><polyline class="b" points="0 148.95 0 105.48 29.96 138.25 25.15 114.17 49.76 149.16 54.04 123.8 63.67 123.8 79.09 149.16 79.09 149.16 82.93 128.62 91.22 149.16 169.61 123.8 167.06 149.16 179.24 133.43 180.21 149.16 241.84 128.62 275.55 128.62 286.39 149.16 285.18 133.43 304.59 149.16 304.44 138.25 315.72 149.16 367.04 128.62 367.29 149.16 395.93 128.62 390.55 149.16 424.82 133.43 443.13 149.16 439.27 138.25 466.39 149.16 508.87 149.16"/></svg>