<?xml version="1.0" encoding="UTF-8"?><svg id="a" xmlns="http://www.w3.org/2000/svg" viewBox="0 0 780.73 251.29"><defs><style>.b{fill:#ff7dff;stroke:#ff7dff;stroke-miterlimit:10;}</style></defs><path class="b" d="M36.09,52.99h-.8c-6.38,0-11.67-2.13-15.87-6.38l-2.13-5.05c-.12-.83-.18-1.62-.18-2.39,0-4.02,1.62-6.26,4.88-6.74l1.06,1.06c-1.6,1.77-2.48,3.31-2.66,4.61l.89,4.52c1.42,3.19,4.14,5.41,8.16,6.65l5.58,.97,3.99-1.24-.53-.35v-.27c1.06-2.6,1.95-3.9,2.66-3.9v-4.52l.53-3.72-.53-.36,.53-.44v-.62c0-5.91-2.57-8.86-7.71-8.86-.77,0-1.63,.06-2.57,.18-4.31,.18-7.68,1.95-10.11,5.32l-1.86,.18-.27-1.06c1.71-4.08,6.06-6.44,13.03-7.09h3.72c4.55,.71,6.83,1.83,6.83,3.37l-.53,.35c.89,0,2.07,1.04,3.55,3.1l.53,.35-.53,.44v.27l1.6,1.86v.98c0,1.24-.18,2.33-.53,3.28,0,1.3-.12,2.57-.35,3.81l-1.06,.97-.71,1.6v1.86l-.53,.62c0,.3-.12,1.01-.35,2.13-1.24,2.25-3.81,3.75-7.71,4.52Zm14.45,34.31l-.8-.53v-.35l-.8,.35c-6.8-.41-10.19-1.77-10.19-4.08l-3.72-9.84,2.22-11.17h1.51l1.42,.89c0,.35-.27,1.92-.8,4.7l.8,.53c0,.24-.47,2.39-1.42,6.47l1.42,.98-.8,1.33,.8,.53v.35l-.8,1.86c1.24,0,2.22,1.12,2.92,3.37l6.65-1.51v.53l.8-.53h.8l.71,.53,8.07-2.39,2.3,.98c0-.89,.47-1.33,1.42-1.33h2.3l.62-.53h.8l.71,.53c2.48-.35,3.93-.53,4.34-.53v.53l.8-.53h1.51l1.42,.89h-.62l.62,.53v.44l-.62,.53,.62,.35v.97c-1.42,1.6-3.13,2.39-5.14,2.39l-.71-.53c-.53,0-3.22,.47-8.07,1.42l-5.23-1.42v.53l.71,.35v.53l-.71,.44h-1.42l-2.3-.98-.62,.53,.62,.44v.89l-2.13,.53Zm12.94-24.29h-.98l-.89-3.37-.53,.44h-2.39v-.97l.53-.53-1.06-5.67h.53l-.53-.53v-.44l.53-.53-.53-1.42,.53-1.51c-.35-1.83-.53-3.1-.53-3.81l1.06-1.33-1.06-1.06v-8.16l.53-.53-.53-.35c0-.41,.18-.77,.53-1.06l-.53-1.51,.53-6.65-.53-.53c0-.35,.18-1.45,.53-3.28l-.53-2.04,.53-1.42-.98-6.29,.44-.35h1.95c1.42,0,2.39,3.37,2.93,10.11l-.53,.35c0,.35,.18,1.51,.53,3.46h-.53l.53,.44v5.32l.44,1.95-.44,.44c0,.35,.15,1.51,.44,3.46-.06,.35-.21,.65-.44,.89l.44,4.25h.53c0-2.54,2.25-4.14,6.74-4.79l9.57-2.39,.53,.53c.29,0,1.6-.29,3.9-.89,1.24,1.3,1.86,2.9,1.86,4.79,0,.95-1.92,1.57-5.76,1.86l-.53-.44c-.35,0-1.01,.15-1.95,.44v-.44l-14.01,2.84-.35-.44-.53,.44c0,.35,.18,1.63,.53,3.81h-.53l.53,.53v.98l-.53,.53,.53,.36v4.43l-.53,2.39,.53,2.93v2.39l-.53,2.39Z"/><path class="b" d="M117.74,47.14l-8.51-2.13-14.89,2.13v-.53l-.53,.53c-2.48-.35-3.72-.89-3.72-1.6v-1.06c3.66-18.79,5.97-28.19,6.91-28.19l1.6,1.06c-.71,6.74-1.42,10.11-2.13,10.11l.53,1.6-1.6,2.66c.3,.35,.65,.53,1.06,.53l-2.13,4.79,1.06,1.06-.53,.53c.35,.3,.53,.65,.53,1.06l-1.06,2.13,1.06,1.6,16.49-2.66c.3,.35,.65,.53,1.06,.53,.29-.29,.65-.47,1.06-.53,4.26,.47,6.38,1.71,6.38,3.72l-.53,.53,.53,.53-2.66,1.6Zm30.76,7.62l-2.57-1.6-.53,.53-1.06-1.06h-.53v1.06h-.53l-1.42-1.51c2.01-3.43,3.01-5.67,3.01-6.74l-.53,.53h-1.06v-1.6l1.06-.98-.53-2.66c1.06-3.78,2.1-6,3.1-6.65l.53,.44,.53-.44v-.53l-2.04-1.6v-1.06l.53-.53-.53-.53v-.35l1.51-2.66h-.98l-6.21,3.55c-2.78-1.3-9.69-2.84-20.74-4.61-.3-.29-.44-.62-.44-.97l3.1-1.06v-.53c13.71,.83,20.57,2.04,20.57,3.63h.53c3.55,0,5.64-2.39,6.29-7.18,0-2.84,1.18-4.76,3.55-5.76h1.06c.71,0,1.06,.53,1.06,1.6-1.12,5.44-2.36,9.57-3.72,12.41l.53,.53v2.48l-.89,1.06,.35,.53v3.1l-3.01,.53v1.06l2.13,1.06-1.6,5.14,1.06,2.57-2.13,.53v1.06h1.06c0,1.3-.18,3.69-.53,7.18Zm-8.69,34.57c-5.5,0-11.02-2.19-16.58-6.56v-5.05c1.95-7.33,4.25-10.99,6.91-10.99v1.6c-1.77,3.37-3.07,5.05-3.9,5.05l.44,.35c0,.29-.44,1.71-1.33,4.25,0,2.48,3.66,5.38,10.99,8.69l1.77,.27,1.68-1.51c-.24-.18-.35-.44-.35-.8,.89-2.66,1.6-3.99,2.13-3.99v-4.52l.53-3.99-.53-.35h1.33v-.27h-.8v-.97c0-6.92-3.25-10.37-9.75-10.37-4.26,0-7.62,1.68-10.11,5.05h-.89c-.3-.18-.44-.44-.44-.8,2.66-3.6,7.06-5.41,13.21-5.41h3.01c3.84,.77,5.76,1.95,5.76,3.55l-.44,.27c.71,0,1.74,1.06,3.1,3.19l.53,.44-.53,.27v.35l1.33,2.04-1.77,2.39c.53,0,.98,.62,1.33,1.86l-.89,1.59,.53,.36v.27l-.53,.53v.44h.53c-.47,1.12-.92,2.27-1.33,3.46v.35h.8v.8l-.8,.71c-.3-.18-.62-.27-.97-.27v.62l.44,.53v.27l-1.33,.8,.53,.44v1.42c-1.01,1.89-2.22,3.1-3.63,3.63Zm.44-45.92h-1.6l-10.28-3.19c-.3,.36-.65,.53-1.06,.53-2.72-.53-4.08-1.89-4.08-4.08l1.42-1.06c3.49,.71,5.58,1.42,6.29,2.13l.53-.53c6.91,.89,10.37,1.71,10.37,2.48l-1.6,3.72Zm-9.57,23.31l-.98-.71h.98v.71Zm11.44,18.71v-.8h-.53v.8h.53Zm5.32-46.63v-1.06l-1.51,.53v.53h1.51Zm.53-8.42v-.89h-.53v.89h.53Z"/><path class="b" d="M174.03,41.29c-1.89-.24-2.84-.53-2.84-.89l-.35,.35h-.53l-.44-.35h-.53l-.35,.35v.53l-2.39-.89-.44,.35h-6.47l-.97-2.48,.44-.44c6.56,0,11.35-.3,14.36-.89v.35c8.57-1.48,13.44-2.54,14.63-3.19l.35-.53,.53,.53v.97l-.89,.89,.35,.44v.53c0,.71-1.77,1.68-5.32,2.92l-1.86-.27-4.08,1.15h-1.33l-1.51-.89-.35,1.42Zm-4.7-10.19h-4.08l-3.37-.53v-1.06l.53-.53v-.44l3.63,.44c7.27,0,12.59-.71,15.96-2.13l1.33,.53c0,1.24-1.24,2.16-3.72,2.75l-.53-.53c0,1.01-3.25,1.51-9.75,1.51Zm3.37,36.79c-4.02,0-6.5-1.71-7.45-5.14l.53-.44-.53-.36c.41-5.14,1.33-7.71,2.75-7.71l-.35-.53c0-.29,.12-.56,.35-.8l-.35-.44,2.39-1.95c.77-1.6,1.92-2.57,3.46-2.92l.53-.44v-.53l-.53-.35,3.72-.97,1.42,.18,3.19,1.06c-.24,.24-.35,.5-.35,.8l1.68,2.48c0,2.96,.06,5.44,.18,7.45-.65,1.36-1.27,2.34-1.86,2.93-.47,1.71-1.27,2.57-2.39,2.57l.53,.89c-.89,2.84-3.19,4.25-6.92,4.25Zm-1.86-2.13c3.37-.94,5.05-1.95,5.05-3.01-.3-.24-.44-.5-.44-.8,3.01-4.37,4.52-7.65,4.52-9.84v-2.66l-.89-1.77-.44,.44c-.35,0-1.15-.15-2.39-.44-1.42,1.71-3.22,3.58-5.41,5.58-1.89,2.78-2.84,5.08-2.84,6.92v1.77c0,1.83,.94,3.1,2.84,3.81Zm30.05,9.04l-1.06-.09-.71-3.63-.53,.53-2.48-.27,.09-.89,.53-.53-.35-6.03h.35c-.24-.3-.35-.65-.35-1.06l.53-.35-.27-1.51,.53-1.42-.27-3.1,.09-1.06,1.24-1.33-.98-1.06,.71-8.51,.53-.35-.44-.53c0-.41,.18-.74,.53-.98l-.27-1.6,1.06-6.91-.35-.53c0-.35,.27-1.51,.8-3.46l-.44-1.95,.71-1.51-.44-6.47,.53-.44,2.04,.18c1.3,.06,1.95,3.07,1.95,9.04v1.6l-.53,.53,.27,3.46h-.53l.44,.53-.44,5.41,.27,2.04-.53,.53,.18,3.99-.53,.35,.09,4.52,.53,.18c.18-2.78,2.63-4.25,7.36-4.43l3.81-1.33,.53,.53c.29,0,1.62-.21,3.99-.62,1.06,1.3,1.6,2.78,1.6,4.43v.71c-.06,1.01-2.1,1.51-6.12,1.51l-.53-.53c-.65,0-1.3,.09-1.95,.27v-.44l-8.42,1.33-.35-.53-.53,.44,.09,4.08-.53-.09,.53,.53-.09,1.06-.53,.35,.35,.53-.35,4.52-.71,2.39,.27,3.1-.27,2.48-.62,2.39Z"/><path class="b" d="M244.68,64.43c-2.54-2.66-5.73-7.62-9.57-14.89l-1.6-2.13c-.3-.35-.65-.53-1.06-.53l-5.32,17.02-.53,.53c-.35,0-1.06-.18-2.13-.53l2.66-9.57c-.35-.29-.53-.65-.53-1.06,1.42-1.06,2.3-3.37,2.66-6.91-.35-1.42-.53-2.3-.53-2.66l1.6-2.13-1.06-1.6,1.6-2.66c-.35-.29-.53-.65-.53-1.06,.89-2.84,1.6-4.26,2.13-4.26h.53l1.06,1.06v2.13l-1.06,5.85,.53,1.6h-.53l4.79,4.26c0,.77,2.48,3.78,7.45,9.04l5.32,6.91-5.85,1.6Zm18.53,2.93c-1.6,0-2.54-.53-2.84-1.6v-1.6l.53-.53-.53-.53c0-.41,.18-.77,.53-1.06l-.53-2.66v-3.19l.53-.53-.53-.53v-4.79l.53-1.86-1.6-3.72-3.19,.53c-4.43-.12-6.65-.56-6.65-1.33v-1.06l1.06-1.06c.3,.36,.65,.53,1.06,.53,0-.71,.53-1.24,1.6-1.6l.53,.53c.41,0,.77-.18,1.06-.53,.35-.12,.65-.18,.89-.18,.3,0,.44,.15,.44,.44l1.6-.53,2.66,.53,.53-1.6-.53-7.18,.53-.53-.53-.53,.53-2.66v-5.32h.53c3.01,0,4.84,3.19,5.5,9.57l-.53,4.52c0,.35,.18,1.24,.53,2.66l-1.06,3.72,1.06,1.06h-.53c.35,.3,.53,.65,.53,1.06l-1.06,2.66c.29,.35,.65,.53,1.06,.53l-1.6,5.58,.53,.53c0,.35-.18,1.42-.53,3.19l.53,1.6c-.35,2.84-.89,4.25-1.6,4.25l.53,.53v1.06l-1.6,1.6Zm11.52,7.71c-3.01-.3-4.55-.74-4.61-1.33v-1.06c.77-5.79,2.1-11.26,3.99-16.4l-.53-2.48c1.06-11.46,1.6-19.65,1.6-24.56v-4.43l1.33-1.6h2.22c2.07,0,3.22,.44,3.46,1.33v1.6c0,.95-.65,1.42-1.95,1.42l.09,1.6-1.42,4.17,1.06-.18-.53,.53c0,.41,.18,.77,.53,1.06v.44l-.98,2.22,.53,.27v1.06l-.53,.71,1.33,5.94c-.59,.12-.89,1.15-.89,3.1v1.06h-.53l.53,.53,.09,2.48-.89,1.6,.53,2.04-2.39,5.05,.09,3.55c-.53,4.08-1.09,6.12-1.68,6.12l.53,.53v2.13l-.98,1.51Z"/><path class="b" d="M304.07,70.81c-2.3,0-4.49-.09-6.56-.27l-.44-.71c-.35,0-1.63,.15-3.81,.44l-5.23-.97c-1.36-1.83-2.04-3.4-2.04-4.7l.09-.71c1.42,.24,3.01,.35,4.79,.35l2.48,.97,5.85,.53,12.23-.27,.8-1.51-.27-1.68,1.33-4.52-.27-4.96c.65-1.48,1.54-2.22,2.66-2.22l.53,.09c.83,1.42,1.36,4.4,1.6,8.95-.89,3.01-1.36,4.7-1.42,5.05l2.48-.44,1.51,.8,.09-.53,.44,.71,.53,.09c1.18-.65,2.27-.98,3.28-.98l.71,.09,.35,.53,.53,.09,1.24-.8h.53l.35,.71,.53,.09c.18-1.06,1.06-1.8,2.66-2.22l.97,.09,.62,2.84-.09,.53c-.18,2.01-3.16,3.01-8.95,3.01-7.57,1.01-14.27,1.51-20.12,1.51Zm8.6-20.12h-.53c-5.56,0-10.08-1.95-13.56-5.85l-1.77-4.79-.18-2.13c0-3.6,1.39-5.64,4.17-6.12l.8,.8c-1.42,1.71-2.16,3.19-2.22,4.43l.8,4.08c1.24,2.96,3.55,5,6.91,6.12l4.52,.97,3.46-1.24c-.3-.12-.44-.32-.44-.62,.89-2.3,1.6-3.46,2.13-3.46v-4.17l.53-3.46-.53-.27,.53-.35v-.71c0-5.44-2.19-8.16-6.56-8.16-4.85,0-8.36,1.71-10.55,5.14l-1.6,.09-.27-.89c1.48-3.84,5.14-6.03,10.99-6.56h3.1c3.78,.71,5.67,1.74,5.67,3.1l-.35,.35c.71,0,1.71,.95,3.01,2.84l.44,.27-.44,.35v.27l1.33,1.77,.09,1.06c0,1.01-.15,1.92-.44,2.75,0,1.24-.15,2.45-.44,3.63-.59,.65-1.06,1.39-1.42,2.22v1.77l-.44,.62c0,.3-.09,.98-.27,2.04l-.53,.8c-.95,1.48-2.93,2.57-5.94,3.28Zm-10.82,18.62l-3.99-.53-.35-1.15,.27-8.69-.71-.27-.09-.89c0-2.01,1-3.22,3.01-3.63l1.51,1.06,.09,2.13c0,1.6-.21,2.66-.62,3.19l.8,.18c.47,2.9,.71,5.05,.71,6.47s-.21,2.07-.62,2.13Z"/><path class="b" d="M341.84,63.45c-2.3,0-3.72-.89-4.25-2.66l.53-.53c0-.35-.35-2.13-1.06-5.32,.35-.29,.53-.65,.53-1.06-1.06,0-1.77-2.13-2.13-6.38h.53l-.53-1.6,.53-5.85-.53-7.45,.53-4.25-1.06-5.85,1.06-1.06c2.42,.95,3.84,2.01,4.25,3.19,0,.41-.18,.77-.53,1.06l.53,.53c0,1.42-.18,3.19-.53,5.32l.53,2.13h-.53c.71,5.32,1.42,8.33,2.13,9.04-.3,.35-.65,.53-1.06,.53l1.06,2.13-1.06,3.19,2.13,6.38-.53,.53c.29,.35,.65,.53,1.06,.53-.35,.3-.53,.65-.53,1.06l1.06,1.6c0,.41-.18,.77-.53,1.06l.53,.53v1.06c-.35,0-1.06-.18-2.13-.53v2.66Zm1.6,19.15h-.53c-.77,0-1.3-1.24-1.6-3.72h.53c-.35-1.42-1.06-2.13-2.13-2.13v-.53c2.48-3.55,4.25-5.32,5.32-5.32,2.13,0,3.19,2.48,3.19,7.45-1.24,2.84-2.84,4.25-4.79,4.25Z"/><path class="b" d="M26.84,204.02c0-1.56-1.34-3.57-4.02-6.02l6.02-5.02-.67-2.34c1.78,0,5.35-3.9,10.71-11.71l3.01-3.01h.84l-.84-.84c0-1.34,2.79-4.07,8.37-8.2,0-1.34,.89-2.68,2.68-4.02-.45-.44-.67-.95-.67-1.51l10.04-16.06-.84-.84-2.18,.84-7.53,.67c-9.59,3.91-16.79,6.42-21.58,7.53-3.68,1.9-7.81,2.84-12.38,2.84l1.34-5.02,16.56-5.02c.44-1.56,2.45-2.34,6.02-2.34,2.01-.67,5.74-1.67,11.21-3.01,2.01-1.11,4.29-1.84,6.86-2.17l1.51,1.51,1.51-1.51c3.35,1,5.86,2.73,7.53,5.19l-8.37,13.55-.67-.67c0,6.36-4.69,13.22-14.05,20.58l-.84,3.01c5.58,4.02,9.93,7.42,13.05,10.21h.84c4.13,1.23,7.64,3.51,10.54,6.86l-3.85,3.68-1.51-1.51-1.51,1.51c-3.46-1.67-5.19-3.4-5.19-5.19-.45,.45-.95,.67-1.51,.67-.56-.33-.84-.84-.84-1.51l-5.52-2.18-8.2-6.53h-.84l-15.06,17.57Zm78.3,3.51c-2.45,0-3.96-1-4.52-3.01v-3.01l1-1-1-1c0-.78,.33-1.45,1-2.01l-1-5.02v-6.02l1-1-1-1v-4.02l1-3.51-3.01-7.03-6.02,1c-14.39-.22-21.58-1.06-21.58-2.51v-2.01l2.01-2.01c.56,.67,1.23,1,2.01,1,0-1.34,2.68-2.34,8.03-3.01l1,1c.78,0,1.45-.33,2.01-1,1.78-.22,3.18-.33,4.18-.33,1.56,0,2.34,.28,2.34,.84l3.01-1,5.02,1,1-3.01-1-13.55,1-1-1-1,1-5.02v-10.04h1c5.24,0,8.42,6.02,9.54,18.07l-1,8.53c0,.67,.33,2.34,1,5.02l-2.01,7.03,2.01,2.01h-1c.67,.56,1,1.23,1,2.01l-2.01,5.02c.56,.67,1.23,1,2.01,1l-3.01,5.52,1,1c0,.67-.33,2.68-1,6.02l1,3.01c-.67,5.35-1.67,8.03-3.01,8.03l1,1v2.01l-3.01,3.01Z"/><path class="b" d="M155.84,177.92l-11.04-1.84-15.56,1.84-1.34-.84h-.67c-3.68,.56-6.19,.84-7.53,.84-.11-2.79-.39-5.58-.84-8.37l2.84-1.67h4.52l1,1,.67-1h3.01l.84,1,6.53-2.01,11.04,2.01c1.78,0,16.56-2.18,44.34-6.53v1l17.57-3.85,2.51,10.04-2.51,3.01-14.72-3.01c-2.57,1-3.85,2.01-3.85,3.01l-3.68-1.17-4.52,1.17-1-1.17c0,1.67-2.79,3.24-8.37,4.68l-3.68-1.67-1.84,1.67-1-1-9.04,2.01v-1l-3.68,1.84Zm-3.85-26.1l-1-.84v-1l-1,1c-8.7-1-13.05-3.85-13.05-8.53l-4.52-19.58-.67-18.57,3.68-1.51,3.51-.17,1,2.68-1.51,13.05,.5,9.37c1.11,5.69,2.79,9.76,5.02,12.21l6.02-.17v1c.56-.67,1.23-1,2.01-1l.84,1,10.21-4.85,2.84,2.01c0-1.78,.67-2.68,2.01-2.68h2.68l.84-1c.78,0,1.45,.33,2.01,1,3.01-.67,4.85-1,5.52-1v1l1-1h1.67l2.01,1.67h-1c.67,.56,1,1.23,1,2.01l-1,.84,1,1v1.67c-2.01,3.24-4.18,4.85-6.53,4.85l-1-1c-.67,0-4.07,.89-10.21,2.68l-6.53-2.68c0,.78,.33,1.45,1,2.01v.67l-1,1h-1.84l-2.68-1.67-1,.67,1,1v2.01l-2.84,.84Zm15.56,90.35c-.67-.56-1-1.23-1-2.01l-1,1c-9.37-1-14.05-4.02-14.05-9.04l-5.02-21.08,3.01-24.09h2.01l2.01,2.01c0,.67-.33,4.02-1,10.04l1,1c0,.67-.67,5.35-2.01,14.05l2.01,2.01-1,3.01,1,1c0,.67-.33,2.34-1,5.02,1.67,0,3.01,2.34,4.02,7.03l9.04-3.01v1l1-1c.78,0,1.45,.33,2.01,1l11.04-5.02,3.01,2.01c0-2.01,.67-3.01,2.01-3.01h3.01l1-1c.78,0,1.45,.33,2.01,1,3.35-.67,5.35-1,6.02-1v1l1-1h2.01l2.01,2.01h-1l1,1c0,.78-.33,1.45-1,2.01l1,1v2.01c-2.01,3.35-4.35,5.02-7.03,5.02l-1-1c-.67,0-4.35,1-11.04,3.01l-7.03-2.01,1,1c0,.78-.33,1.45-1,2.01h-5.02v2.01l-3.01,1Zm19.58-99.72h-3.51l-2.01-1.67c0-.78,.33-1.45,1-2.01,0-.56-.33-1.73-1-3.51l4.85-3.01h1.67c.67,4.35,1,7.19,1,8.53l-2.01,1.67Zm21.08,89.68h-4.02l-2.01-2.01c0-.78,.33-1.45,1-2.01,0-.67-.33-2.01-1-4.02l5.02-3.01h2.01c.67,4.68,1,7.7,1,9.04l-2.01,2.01Z"/><path class="b" d="M301.24,233.81l-1-1-1,1h-2.18c-2.34-1.79-4.13-4.63-5.35-8.53l-8.53,2.01c0-1.34-1.06-2.01-3.18-2.01v-1l2.18-3.18-1.17-1,1.17-1.34h-1.17c-1.34,0-2.01,1.11-2.01,3.35h-1v-5.35h2.01l-4.35-7.53,2.34-2.01c-2.23,0-3.35-.72-3.35-2.17h1l-2.01-4.35,2.01-5.19c-2.12,0-3.51-4.29-4.18-12.88l-1-1.17v-2.01l1-1v-1.34c-.56-.56-1.23-.89-2.01-1l1-1c0-.78-1.12-6.47-3.35-17.07l1-4.18-1-3.35,1-1h1.34l-1.34-5.52v-3.18l2.34-2.01-1-1v-2.34l1-1-1-1c0-8.48,2.4-12.72,7.19-12.72,3.68-3.68,9.37-5.52,17.07-5.52v-1l5.52,1h7.53l1,1.17,1-1.17h1c5.35,0,8.98,6.42,10.88,19.24l-1,3.35,1,1c-.11,.78-.45,1.45-1,2.01,0,.78,.33,2.29,1,4.52,0,2.79-2.84,8.03-8.53,15.73v2.34c6.8,0,12.83,1.73,18.07,5.19v2.34h-2.01v3.01c5.02,0,7.53,10.71,7.53,32.12l-2.34,2.17c0,2.23-1.4,3.35-4.18,3.35,0,2.79-3.63,8.03-10.88,15.73-8.37,4.35-14.05,6.53-17.07,6.53Zm-14.72-68.43c14.16-3.23,21.25-7.86,21.25-13.89,2.23-.67,3.35-2.73,3.35-6.19v-10.88c-2.34-5.69-7.36-8.53-15.06-8.53h-7.53l-8.53,5.35,1,1v9.7l-2.01,3.35v2.01l2.01,3.18c-.11,.78-.45,1.45-1,2.01v1.34l2.18,2.01v4.18l-1.17,5.35h5.52Zm14.72,55.72c10.04-2.9,15.06-5.08,15.06-6.53l5.35-4.35-1-1v-2.01c2.79-3.01,4.18-5.91,4.18-8.7v-3.01h-2.17c0-.89,.39-3.07,1.17-6.53h-1.17l1.17-3.35c0-2.01-1.06-3.01-3.18-3.01,0-3.12-3.18-6.02-9.54-8.7v-1h-2.34l1,1v1.17h-4.18l-3.01-2.18c-12.27,4.13-18.4,7.36-18.4,9.71l1,1c0,.67-.33,3.51-1,8.53,1.56,0,3.35,6.8,5.35,20.41l-4.35,4.18v1l3.35-2.01h3.18l1,4.35h7.53l1,1Zm-14.72,2.01v-1l-1.34-3.35h-1v4.35h2.34Z"/><path class="b" d="M359.3,148.64l-3.51-2.51h-4.69l-1.34,1.17h-1l-1.17-1.17v-1l-4.52,2.18c0-2.34-1.62-3.51-4.85-3.51,0-3.12-1.17-4.68-3.51-4.68v-5.86c2.01-3.79,5.52-5.69,10.54-5.69,3.68,0,8.37,4.24,14.05,12.72v2.34c2.34,0,3.51,.84,3.51,2.51l-3.51,3.51Zm-4.69,74.46l-1.34-1.17v-1l1.34-1.34h1.17l-1.17-1.17v-3.51l1.17-1-3.51-5.86,2.34-14.05-2.34-2.17c0-.89,1.17-4.85,3.51-11.88l-1.17-1.17v-1l1.17-1.34-1.17-4.52c0-5.46,2.34-9.81,7.03-13.05h3.51c-.89,11.71-1.34,18.74-1.34,21.08l-1,1.34,2.34,18.57h-1.34l1.34,1.17c-.89,9.26-1.34,15.06-1.34,17.4l-2.18,2.51-1.34-1.34c0,1.34-1.9,2.51-5.69,3.51Z"/><path class="b" d="M406.65,233.81l-1-1-1,1h-2.17c-2.34-1.79-4.13-4.63-5.35-8.53l-8.53,2.01c0-1.34-1.06-2.01-3.18-2.01v-1l2.17-3.18-1.17-1,1.17-1.34h-1.17c-1.34,0-2.01,1.11-2.01,3.35h-1v-5.35h2.01l-4.35-7.53,2.34-2.01c-2.23,0-3.35-.72-3.35-2.17h1l-2.01-4.35,2.01-5.19c-2.12,0-3.51-4.29-4.18-12.88l-1-1.17v-2.01l1-1v-1.34c-.56-.56-1.23-.89-2.01-1l1-1c0-.78-1.12-6.47-3.35-17.07l1-4.18-1-3.35,1-1h1.34l-1.34-5.52v-3.18l2.34-2.01-1-1v-2.34l1-1-1-1c0-8.48,2.4-12.72,7.19-12.72,3.68-3.68,9.37-5.52,17.07-5.52v-1l5.52,1h7.53l1,1.17,1-1.17h1c5.35,0,8.98,6.42,10.88,19.24l-1,3.35,1,1c-.11,.78-.45,1.45-1,2.01,0,.78,.33,2.29,1,4.52,0,2.79-2.84,8.03-8.53,15.73v2.34c6.8,0,12.83,1.73,18.07,5.19v2.34h-2.01v3.01c5.02,0,7.53,10.71,7.53,32.12l-2.34,2.17c0,2.23-1.4,3.35-4.18,3.35,0,2.79-3.63,8.03-10.88,15.73-8.37,4.35-14.05,6.53-17.07,6.53Zm-14.72-68.43c14.16-3.23,21.25-7.86,21.25-13.89,2.23-.67,3.35-2.73,3.35-6.19v-10.88c-2.34-5.69-7.36-8.53-15.06-8.53h-7.53l-8.53,5.35,1,1v9.7l-2.01,3.35v2.01l2.01,3.18c-.11,.78-.45,1.45-1,2.01v1.34l2.17,2.01v4.18l-1.17,5.35h5.52Zm14.72,55.72c10.04-2.9,15.06-5.08,15.06-6.53l5.35-4.35-1-1v-2.01c2.79-3.01,4.18-5.91,4.18-8.7v-3.01h-2.18c0-.89,.39-3.07,1.17-6.53h-1.17l1.17-3.35c0-2.01-1.06-3.01-3.18-3.01,0-3.12-3.18-6.02-9.54-8.7v-1h-2.34l1,1v1.17h-4.18l-3.01-2.18c-12.27,4.13-18.41,7.36-18.41,9.71l1,1c0,.67-.33,3.51-1,8.53,1.56,0,3.35,6.8,5.35,20.41l-4.35,4.18v1l3.35-2.01h3.18l1,4.35h7.53l1,1Zm-14.72,2.01v-1l-1.34-3.35h-1v4.35h2.34Z"/><path class="b" d="M464.71,148.64l-3.51-2.51h-4.68l-1.34,1.17h-1l-1.17-1.17v-1l-4.52,2.18c0-2.34-1.62-3.51-4.85-3.51,0-3.12-1.17-4.68-3.51-4.68v-5.86c2.01-3.79,5.52-5.69,10.54-5.69,3.68,0,8.37,4.24,14.05,12.72v2.34c2.34,0,3.51,.84,3.51,2.51l-3.51,3.51Zm-4.68,74.46l-1.34-1.17v-1l1.34-1.34h1.17l-1.17-1.17v-3.51l1.17-1-3.51-5.86,2.34-14.05-2.34-2.17c0-.89,1.17-4.85,3.51-11.88l-1.17-1.17v-1l1.17-1.34-1.17-4.52c0-5.46,2.34-9.81,7.03-13.05h3.51c-.89,11.71-1.34,18.74-1.34,21.08l-1,1.34,2.34,18.57h-1.34l1.34,1.17c-.89,9.26-1.34,15.06-1.34,17.4l-2.17,2.51-1.34-1.34c0,1.34-1.9,2.51-5.69,3.51Z"/><path class="b" d="M563.09,198.17h-.84c-10.49,0-19.07-4.35-25.77-13.05l-3.18-10.54c-.23-1.78-.33-3.46-.33-5.02,0-8.03,2.62-12.55,7.86-13.55l1.51,2.01c-2.68,3.68-4.13,6.86-4.35,9.54l1.51,9.37c2.34,6.47,6.69,10.99,13.05,13.55l8.53,2.01,6.53-2.51c-.45-.44-.67-.95-.67-1.51,1.67-5.02,3.01-7.53,4.02-7.53v-9.37l1-7.7-1-.84,1-.67v-1.51c0-12.05-4.07-18.07-12.21-18.07-1.23,0-2.62,.17-4.18,.5-6.8,.33-12.16,3.91-16.06,10.71l-3.01,.5-.5-2.17c2.9-8.59,9.87-13.44,20.91-14.56h5.69c7.25,1.45,10.88,3.79,10.88,7.03l-.84,.67c1.34,0,3.29,2.01,5.86,6.02l.67,.84c-.45,.45-.67,.95-.67,1.51l2.51,4.02v1.34c0,2.79-.28,5.08-.84,6.86,0,2.79-.23,5.58-.67,8.37-1.23,1.45-2.17,3.01-2.84,4.69v4.02l-.67,1.51c0,.56-.17,2.01-.5,4.35l-1,1.67c-1.9,3.57-5.69,6.08-11.38,7.53Zm44.17,7.86c-3.01,0-4.74-1-5.19-3.01v-3.01l1-1-1-1c0-.78,.33-1.45,1-2.01l-1-5.02v-6.02l1-1-1-1v-9.04l1-3.51-3.01-7.03-6.02,1c-8.37-.22-12.55-1.06-12.55-2.51v-2.01l2.01-2.01c.56,.67,1.23,1,2.01,1,0-1.34,1-2.34,3.01-3.01l1,1c.78,0,1.45-.33,2.01-1,.67-.22,1.23-.33,1.67-.33,.56,0,.84,.28,.84,.84l3.01-1,5.02,1,1-3.01-1-13.55,1-1-1-1,1-5.02v-10.04h1c5.69,0,9.09,6.02,10.21,18.07l-1,8.53c0,.67,.33,2.34,1,5.02l-2.01,7.03,2.01,2.01h-1c.67,.56,1,1.23,1,2.01l-2.01,5.02c.56,.67,1.23,1,2.01,1l-3.01,10.54,1,1c0,.67-.33,2.68-1,6.02l1,3.01c-.67,5.35-1.67,8.03-3.01,8.03l1,1v2.01l-3.01,3.01Zm21.92,14.56c-5.69-.56-8.65-1.4-8.87-2.51v-2.01c1.56-10.93,4.07-21.25,7.53-30.95l-1-4.69c2.01-21.64,3.01-37.09,3.01-46.35v-8.37l2.51-3.01h4.35c3.9,0,6.08,.84,6.53,2.51v3.01c0,1.79-1.28,2.68-3.85,2.68l.33,3.01-2.84,7.86,2.01-.33-1,1c0,.78,.33,1.45,1,2.01v.84l-1.67,4.18,1,.5v2.01l-1,1.34,2.51,11.21c-1.23,.22-1.84,2.46-1.84,6.69v1.17h-1l1,1,.33,4.69-1.84,3.01,1,3.85-4.52,9.54,.33,6.69c-1,7.7-2.12,11.54-3.35,11.54l1,1v4.02l-1.67,2.84Z"/><path class="b" d="M684.55,212.56c-4.35,0-8.48-.17-12.38-.5l-.84-1.34c-.67,0-3.07,.28-7.2,.84l-9.87-1.84c-2.57-3.46-3.85-6.41-3.85-8.87l.17-1.34c2.68,.45,5.69,.67,9.04,.67l4.68,1.84,11.04,1,23.09-.5,1.51-2.84-.5-3.18,2.51-8.53-.5-9.37c1.23-2.79,2.9-4.18,5.02-4.18l1,.17c1.56,2.68,2.56,8.31,3.01,16.9-1.67,5.69-2.57,8.87-2.68,9.54l4.68-.84,2.84,1.5,.17-1,.84,1.34,1,.17c2.23-1.23,4.29-1.84,6.19-1.84l1.34,.17,.67,1,1,.17,2.34-1.5h1l.67,1.34,1,.17c.33-2.01,2.01-3.4,5.02-4.18l1.84,.17,1.17,5.35-.17,1c-.33,3.79-5.97,5.69-16.9,5.69-14.28,1.9-26.94,2.84-37.98,2.84Zm16.23-37.98h-1c-10.49,0-19.02-3.68-25.6-11.04l-3.35-9.04-.33-4.02c0-6.8,2.62-10.65,7.86-11.54l1.51,1.51c-2.68,3.24-4.07,6.02-4.18,8.37l1.51,7.7c2.34,5.58,6.69,9.43,13.05,11.54l8.53,1.84,6.53-2.34c-.56-.22-.84-.61-.84-1.17,1.67-4.35,3.01-6.53,4.02-6.53v-7.86l1-6.53-1-.5,1-.67v-1.34c0-10.26-4.13-15.39-12.38-15.39-9.15,0-15.79,3.24-19.91,9.7l-3.01,.17-.5-1.67c2.79-7.25,9.7-11.38,20.75-12.38h5.86c7.14,1.34,10.71,3.29,10.71,5.86l-.67,.67c1.34,0,3.23,1.79,5.69,5.35l.84,.5-.84,.67v.5l2.51,3.35,.17,2.01c0,1.9-.28,3.63-.84,5.19,0,2.34-.28,4.63-.84,6.86-1.12,1.23-2.01,2.62-2.68,4.18v3.35l-.84,1.17c0,.56-.17,1.84-.5,3.85l-1,1.51c-1.79,2.79-5.52,4.85-11.21,6.19Zm-20.41,35.14l-7.53-1-.67-2.17,.5-16.4-1.34-.5-.17-1.67c0-3.79,1.9-6.08,5.69-6.86l2.84,2.01,.17,4.02c0,3.01-.39,5.02-1.17,6.02l1.51,.33c.89,5.47,1.34,9.54,1.34,12.21s-.39,3.91-1.17,4.02Z"/><path class="b" d="M755.83,198.67c-4.35,0-7.03-1.67-8.03-5.02l1-1c0-.67-.67-4.02-2.01-10.04,.67-.56,1-1.23,1-2.01-2.01,0-3.35-4.02-4.02-12.05h1l-1-3.01,1-11.04-1-14.05,1-8.03-2.01-11.04,2.01-2.01c4.57,1.79,7.25,3.79,8.03,6.02,0,.78-.33,1.45-1,2.01l1,1c0,2.68-.33,6.02-1,10.04l1,4.02h-1c1.34,10.04,2.68,15.73,4.02,17.07-.56,.67-1.23,1-2.01,1l2.01,4.02-2.01,6.02,4.02,12.05-1,1c.56,.67,1.23,1,2.01,1-.67,.56-1,1.23-1,2.01l2.01,3.01c0,.78-.33,1.45-1,2.01l1,1v2.01c-.67,0-2.01-.33-4.02-1v5.02Zm3.01,36.14h-1c-1.45,0-2.46-2.34-3.01-7.03h1c-.67-2.68-2.01-4.02-4.02-4.02v-1c4.68-6.69,8.03-10.04,10.04-10.04,4.02,0,6.02,4.69,6.02,14.05-2.34,5.35-5.35,8.03-9.04,8.03Z"/></svg>